<svg width="102" height="103" viewBox="0 0 102 103" fill="none" xmlns="http://www.w3.org/2000/svg">
<g clip-path="url(#clip0_294_57)">
<path d="M53.5479 0C53.5149 0.0174977 53.4732 0.0283747 53.4228 0.0326309C53.3776 0.0359412 53.3779 0.0390152 53.4235 0.0418526C53.433 0.0423255 53.4424 0.0449265 53.4518 0.0496556C53.472 0.0595868 53.4822 0.0759022 53.4822 0.0986019C53.4784 1.7117 53.4791 3.32527 53.4843 4.93932C53.4843 5.01096 53.4984 5.067 53.4984 5.14291C53.4984 13.8029 53.4984 22.4628 53.4984 31.1227C53.4984 31.2157 53.5267 31.3157 53.5133 31.4193C53.4897 31.5919 53.4904 31.7538 53.5154 31.9052C53.5238 31.957 53.4984 31.991 53.4984 32.0421C53.4979 32.9974 53.4975 33.9519 53.497 34.9058C53.497 34.9261 53.4942 34.9462 53.4885 34.9661C53.4829 34.985 53.48 35.0105 53.48 35.0427C53.4796 35.9304 53.4817 36.7402 53.4864 37.4723C53.4878 37.7158 53.4763 37.9594 53.4518 38.2029C53.449 38.2299 53.4344 38.2457 53.408 38.2505C53.3783 38.2557 53.3487 38.2601 53.319 38.2639C53.2907 38.2672 53.2769 38.255 53.2773 38.227C53.2773 38.2185 53.2816 38.2145 53.29 38.215C53.2924 38.215 53.2945 38.2143 53.2964 38.2129C53.3011 38.2086 53.3025 38.2032 53.3006 38.1965C53.2681 38.076 53.2083 37.9759 53.1212 37.8965" stroke="#88898C" stroke-width="2"/>
<path d="M40.5564 34.212C40.5484 34.2191 40.5387 34.2181 40.5274 34.2092C40.5213 34.2038 40.5168 34.1969 40.5144 34.1891C40.512 34.1813 40.5119 34.173 40.514 34.1652C40.5163 34.1557 40.5201 34.147 40.5253 34.1389C40.5446 34.1096 40.5375 34.1009 40.5041 34.1127C40.4952 34.116 40.4888 34.1221 40.485 34.1311C40.4728 34.16 40.4561 34.1626 40.4349 34.1389C40.4203 34.1219 40.4007 34.1169 40.3762 34.124C40.3669 34.1268 40.3571 34.1275 40.3475 34.126C40.3379 34.1245 40.3287 34.121 40.3207 34.1156C40.3126 34.1101 40.3058 34.103 40.3007 34.0947C40.2957 34.0863 40.2925 34.077 40.2915 34.0673C40.2821 33.9822 40.2644 33.9027 40.2385 33.8289C40.2362 33.8228 40.2357 33.8166 40.2371 33.8105C40.238 33.8043 40.2399 33.7982 40.2427 33.792C40.2512 33.775 40.2555 33.7566 40.2555 33.7367C40.255 33.2132 40.255 32.6902 40.2555 32.1676C40.2555 32.0491 40.2851 31.9371 40.2703 31.8186C40.2609 31.7443 40.2562 31.6694 40.2562 31.5937C40.2543 29.9735 40.2562 28.4924 40.2618 27.1503C40.2623 26.9928 40.2625 26.8334 40.2625 26.6721C40.2606 25.0676 40.2536 23.4303 40.2413 21.7605C40.2409 21.6948 40.2385 21.6226 40.2343 21.5441C40.2329 21.5191 40.2194 21.5051 40.194 21.5023C40.1775 21.5004 40.1676 21.4909 40.1643 21.4739C40.1587 21.4422 40.1493 21.441 40.1361 21.4704C40.1309 21.4812 40.1224 21.4874 40.1107 21.4888C40.1035 21.4896 40.0968 21.4929 40.0918 21.498C40.0868 21.5032 40.0837 21.51 40.0831 21.5172L40.0767 21.5824C40.0744 21.6122 40.0586 21.6241 40.0294 21.6179C40.0096 21.6136 39.9854 21.6189 39.9567 21.6335" stroke="#989A9D" stroke-width="2"/>
<path d="M61.6033 17.2874L61.5539 17.3328C61.5336 17.3512 61.5336 17.3696 61.5539 17.3881C61.5595 17.3933 61.5666 17.3947 61.5751 17.3923C61.5785 17.3912 61.5822 17.3912 61.5858 17.3922C61.5894 17.3932 61.5928 17.3952 61.5956 17.398C61.6135 17.4165 61.6168 17.4288 61.6054 17.4349C61.5932 17.442 61.5868 17.4529 61.5864 17.4675L61.5793 17.9102C61.5788 17.9234 61.5803 17.9364 61.5836 17.9492C61.5906 17.9799 61.5845 18.0083 61.5652 18.0343C61.5492 18.0565 61.5409 18.0811 61.5405 18.1081C61.5367 18.3654 61.5346 18.6134 61.5341 18.8522C61.5247 31.251 61.5214 44.3421 61.5242 58.1256C61.5242 58.2291 61.516 58.3448 61.4995 58.4725C61.499 58.4758 61.4983 58.4758 61.4974 58.4725C61.488 58.4498 61.4792 58.4211 61.4712 58.3866C61.4656 58.3616 61.4519 58.3419 61.4303 58.3277C61.4072 58.3126 61.3949 58.2911 61.3935 58.2632C61.3926 58.2367 61.3844 58.2124 61.3688 58.1901C61.3462 58.1575 61.3198 58.131 61.2897 58.1107C61.2657 58.0951 61.2534 58.0728 61.253 58.044L61.2508 57.9057C61.2499 57.8759 61.2381 57.852 61.2155 57.834C61.1421 57.7763 61.1067 57.6884 61.1096 57.5701C61.1105 57.5361 61.095 57.5136 61.063 57.5028C61.0432 57.4961 61.029 57.4834 61.0206 57.4644C60.9871 57.394 60.9702 57.3226 60.9697 57.2502C60.9697 57.2266 60.9643 57.2046 60.9535 57.1842L60.8129 56.9168C60.803 56.8979 60.8056 56.8806 60.8207 56.865C60.8296 56.8556 60.8313 56.8456 60.8256 56.8352C60.8167 56.8187 60.8032 56.8073 60.7854 56.8012L60.7013 56.7728" stroke="#818285" stroke-width="2"/>
<path d="M30.9108 22.4819C30.9038 22.4881 30.8967 22.49 30.8896 22.4876C30.8708 22.4805 30.868 22.485 30.8812 22.5011C30.8854 22.5063 30.8903 22.5108 30.896 22.5146C30.8967 22.5151 30.8973 22.5157 30.8976 22.5165C30.898 22.5173 30.8981 22.5182 30.8981 22.519C30.898 22.5199 30.8977 22.5207 30.8972 22.5214C30.8967 22.5221 30.8961 22.5227 30.8953 22.5231C30.835 22.5533 30.7712 22.564 30.7039 22.555C30.678 22.5517 30.665 22.5633 30.665 22.5898V27.4191C30.665 27.4314 30.6678 27.4428 30.6735 27.4532C30.6777 27.4607 30.6798 27.4688 30.6798 27.4773C30.6836 28.8643 30.6836 30.2403 30.6798 31.6051C30.6798 31.6155 30.678 31.6259 30.6742 31.6363C30.6676 31.6533 30.6643 31.6708 30.6643 31.6888C30.6652 32.7973 30.6638 33.8207 30.6601 34.7589C30.6601 34.8162 30.6386 34.8483 30.5958 34.8554C30.5793 34.8587 30.5732 34.8677 30.5774 34.8824C30.5788 34.889 30.5722 34.893 30.5576 34.8944C30.5473 34.8954 30.5386 34.8916 30.5315 34.8831C30.4439 34.7786 30.3554 34.6937 30.2659 34.6284C30.2546 34.6199 30.2362 34.6225 30.2108 34.6362" stroke="#DD514F" stroke-width="2"/>
<path d="M23.857 61.4866L22.1412 65.7406" stroke="#C68081" stroke-width="2"/>
<path d="M81.1494 65.7405L79.2577 61.1126C79.2535 61.1027 79.2518 61.0923 79.2528 61.0814C79.2532 61.0738 79.2518 61.0672 79.2485 61.0615" stroke="#985354" stroke-width="2"/>
<path d="M68.2221 33.7077C68.207 33.7058 68.1943 33.711 68.184 33.7233C68.175 33.7341 68.1713 33.7467 68.1727 33.7609C68.1769 33.8006 68.171 33.8377 68.155 33.8722C68.153 33.8766 68.152 33.8813 68.1521 33.8861C68.1522 33.8909 68.1533 33.8956 68.1555 33.8998C68.1577 33.9041 68.1608 33.9077 68.1647 33.9106C68.1685 33.9134 68.1729 33.9154 68.1776 33.9162C68.1946 33.919 68.208 33.9276 68.2179 33.9417C68.2344 33.9649 68.2365 33.9893 68.2242 34.0148C68.1932 34.0801 68.1807 34.1512 68.1868 34.2283C68.1887 34.2524 68.1832 34.2766 68.1713 34.2978C68.1374 34.3574 68.1105 34.3816 68.1077 34.4582C68.0964 34.7239 68.0907 35.0311 68.0907 35.3796C68.0912 37.6595 68.0947 39.829 68.1013 41.8881C68.1056 43.111 68.1074 44.3761 68.107 45.6832C68.1051 54.3729 68.1065 63.0627 68.1112 71.7524C68.1112 71.8706 68.111 71.9888 68.1105 72.1071C68.0893 75.2671 68.0905 78.4273 68.114 81.5878C68.1169 81.985 68.0844 82.4113 68.1042 82.8192C68.1048 82.8282 68.103 82.8372 68.0989 82.8452C68.0947 82.8532 68.0885 82.8599 68.0808 82.8646C68.0451 82.8868 68.0149 82.9136 67.9904 82.9448C67.9777 82.9609 67.9612 82.9696 67.941 82.971L67.4727 82.9951" stroke="#7A7B7E" stroke-width="2"/>
<path d="M59.4899 82.9922C59.9589 82.9686 60.4289 82.9591 60.8998 82.9638C60.9021 82.9638 60.9043 82.9629 60.9061 82.961C60.9076 82.9596 60.9085 82.9575 60.909 82.9546C60.9104 82.9433 60.9054 82.9381 60.8941 82.939C60.8664 82.9418 60.8383 82.9395 60.8101 82.9319C60.7912 82.9267 60.7877 82.9161 60.7995 82.9C60.8273 82.8617 60.839 82.813 60.8348 82.7539C60.8101 82.397 60.8461 82.0459 60.8412 81.7068C60.8247 80.464 60.8209 79.2191 60.8299 77.972C60.8299 77.9623 60.8281 77.9527 60.8245 77.9437C60.8208 77.9348 60.8154 77.9266 60.8086 77.9196C60.8018 77.9127 60.7937 77.9072 60.7847 77.9034C60.7758 77.8996 60.7661 77.8976 60.7564 77.8975L60.3799 77.8926" stroke="#818285" stroke-width="2"/>
<path d="M40.5041 34.3313C40.473 34.3341 40.4511 34.3278 40.4384 34.3122C39.2121 32.7899 37.9863 31.2671 36.761 29.7438C36.7445 29.723 36.7229 29.6873 36.696 29.6367" stroke="#BC7777" stroke-width="2"/>
<path d="M48.6972 0H53.5478C53.5149 0.0174977 53.4732 0.0283747 53.4228 0.0326309C53.3776 0.0359412 53.3778 0.0390152 53.4235 0.0418526C53.4329 0.0423255 53.4424 0.0449265 53.4518 0.0496556C53.472 0.0595868 53.4821 0.0759022 53.4821 0.0986019C53.4784 1.7117 53.4791 3.32527 53.4843 4.93932C53.4843 5.01096 53.4984 5.067 53.4984 5.14291C53.4984 13.8029 53.4984 22.4628 53.4984 31.1227C53.4984 31.2157 53.5266 31.3157 53.5132 31.4193C53.4897 31.5919 53.4904 31.7538 53.5153 31.9052C53.5238 31.957 53.4984 31.991 53.4984 32.0421C53.4979 32.9974 53.4974 33.9519 53.497 34.9058C53.497 34.9261 53.4941 34.9462 53.4885 34.9661C53.4828 34.985 53.48 35.0105 53.48 35.0427C53.4796 35.9304 53.4817 36.7402 53.4864 37.4723C53.4878 37.7158 53.4763 37.9594 53.4518 38.2029C53.4489 38.2299 53.4343 38.2457 53.408 38.2505C53.3783 38.2557 53.3486 38.2602 53.319 38.2639C53.2907 38.2672 53.2768 38.255 53.2773 38.227C53.2773 38.2185 53.2815 38.2145 53.29 38.215C53.2924 38.215 53.2945 38.2143 53.2964 38.2129C53.3011 38.2086 53.3025 38.2032 53.3006 38.1965C53.2681 38.076 53.2083 37.9759 53.1212 37.8965L46.162 20.5567C46.1488 20.5241 46.1356 20.5241 46.1225 20.5567L40.5563 34.212C40.5483 34.2191 40.5386 34.2182 40.5273 34.2092C40.5212 34.2039 40.5167 34.1969 40.5143 34.1891C40.5119 34.1814 40.5118 34.1731 40.5139 34.1652C40.5162 34.1558 40.52 34.147 40.5252 34.139C40.5445 34.1096 40.5374 34.1009 40.504 34.1127C40.495 34.116 40.4887 34.1222 40.4849 34.1312C40.4727 34.16 40.4559 34.1626 40.4348 34.139C40.4202 34.1219 40.4006 34.117 40.3761 34.1241C40.3668 34.1268 40.357 34.1275 40.3474 34.126C40.3378 34.1246 40.3286 34.121 40.3205 34.1156C40.3125 34.1102 40.3057 34.1031 40.3006 34.0947C40.2956 34.0864 40.2924 34.077 40.2914 34.0673C40.2819 33.9822 40.2643 33.9028 40.2384 33.829C40.236 33.8228 40.2356 33.8167 40.237 33.8105C40.2379 33.8044 40.2398 33.7982 40.2426 33.7921C40.2511 33.7751 40.2553 33.7566 40.2553 33.7368C40.2549 33.2132 40.2549 32.6902 40.2553 32.1676C40.2553 32.0492 40.285 31.9371 40.2702 31.8186C40.2608 31.7444 40.256 31.6694 40.256 31.5938C40.2542 29.9736 40.256 28.4924 40.2617 27.1503C40.2622 26.9928 40.2624 26.8334 40.2624 26.6722C40.2605 25.0676 40.2535 23.4304 40.2412 21.7605C40.2407 21.6948 40.2384 21.6227 40.2342 21.5442C40.2327 21.5191 40.2193 21.5052 40.1939 21.5023C40.1774 21.5004 40.1675 21.491 40.1642 21.4739C40.1586 21.4423 40.1491 21.4411 40.136 21.4704C40.1308 21.4813 40.1223 21.4874 40.1105 21.4888C40.1034 21.4896 40.0967 21.4929 40.0917 21.4981C40.0867 21.5032 40.0836 21.51 40.083 21.5172L40.0766 21.5825C40.0743 21.6123 40.0585 21.6241 40.0293 21.6179C40.0095 21.6137 39.9853 21.6189 39.9565 21.6335L48.6972 0Z" fill="#8B8D90"/>
<path d="M53.5479 0H54.6378L61.6033 17.2873L61.5539 17.3327C61.5336 17.3511 61.5336 17.3695 61.5539 17.388C61.5595 17.3932 61.5666 17.3946 61.5751 17.3922C61.5785 17.3911 61.5822 17.3911 61.5858 17.3921C61.5894 17.3931 61.5928 17.3951 61.5955 17.3979C61.6134 17.4164 61.6167 17.4287 61.6054 17.4348C61.5932 17.4419 61.5868 17.4528 61.5864 17.4674L61.5793 17.9101C61.5788 17.9233 61.5802 17.9363 61.5835 17.9491C61.5906 17.9798 61.5845 18.0082 61.5652 18.0342C61.5492 18.0564 61.5409 18.081 61.5405 18.108C61.5367 18.3653 61.5346 18.6133 61.5341 18.8521C61.5247 31.2509 61.5214 44.342 61.5242 58.1255C61.5242 58.2291 61.516 58.3447 61.4995 58.4724C61.499 58.4757 61.4983 58.4757 61.4974 58.4724C61.4879 58.4497 61.4792 58.4211 61.4712 58.3865C61.4656 58.3615 61.4519 58.3418 61.4303 58.3277C61.4072 58.3125 61.3949 58.291 61.3935 58.2631C61.3926 58.2366 61.3843 58.2123 61.3688 58.19C61.3462 58.1574 61.3198 58.1309 61.2897 58.1106C61.2657 58.095 61.2534 58.0728 61.253 58.0439L61.2508 57.9056C61.2499 57.8758 61.2381 57.8519 61.2155 57.8339C61.1421 57.7762 61.1067 57.6883 61.1096 57.5701C61.1105 57.536 61.095 57.5135 61.0629 57.5027C61.0432 57.496 61.029 57.4833 61.0206 57.4644C60.9871 57.3939 60.9702 57.3225 60.9697 57.2501C60.9697 57.2265 60.9643 57.2045 60.9535 57.1842L60.8129 56.9167C60.803 56.8978 60.8056 56.8805 60.8207 56.8649C60.8296 56.8555 60.8313 56.8456 60.8256 56.8351C60.8167 56.8186 60.8032 56.8072 60.7853 56.8011L60.7013 56.7727L53.1212 37.8965C53.2083 37.9759 53.2681 38.076 53.3006 38.1965C53.3025 38.2032 53.3011 38.2086 53.2964 38.2129C53.2945 38.2143 53.2924 38.215 53.29 38.215C53.2816 38.2145 53.2773 38.2185 53.2773 38.227C53.2769 38.255 53.2907 38.2672 53.319 38.2639C53.3487 38.2602 53.3783 38.2557 53.408 38.2505C53.4344 38.2457 53.449 38.2299 53.4518 38.2029C53.4763 37.9594 53.4878 37.7158 53.4864 37.4723C53.4817 36.7402 53.4796 35.9304 53.48 35.0427C53.48 35.0105 53.4829 34.985 53.4885 34.9661C53.4942 34.9462 53.497 34.9261 53.497 34.9058C53.4975 33.9519 53.4979 32.9974 53.4984 32.0421C53.4984 31.991 53.5238 31.957 53.5154 31.9052C53.4904 31.7538 53.4897 31.5919 53.5133 31.4193C53.5267 31.3157 53.4984 31.2157 53.4984 31.1227C53.4984 22.4628 53.4984 13.8029 53.4984 5.14291C53.4984 5.067 53.4843 5.01096 53.4843 4.93932C53.4791 3.32527 53.4784 1.7117 53.4822 0.0986019C53.4822 0.0759022 53.472 0.0595868 53.4518 0.0496556C53.4424 0.0449265 53.433 0.0423255 53.4235 0.0418526C53.3779 0.0390152 53.3776 0.0359412 53.4228 0.0326309C53.4732 0.0283747 53.5149 0.0174977 53.5479 0Z" fill="#848588"/>
<path d="M30.9108 22.482C30.9037 22.4881 30.8966 22.49 30.8896 22.4877C30.8707 22.4806 30.8679 22.4851 30.8811 22.5011C30.8853 22.5063 30.8903 22.5108 30.8959 22.5146C30.8966 22.5151 30.8972 22.5158 30.8976 22.5166C30.8979 22.5174 30.8981 22.5182 30.898 22.5191C30.8979 22.5199 30.8976 22.5208 30.8972 22.5215C30.8967 22.5222 30.896 22.5228 30.8952 22.5231C30.835 22.5534 30.7711 22.564 30.7038 22.555C30.6779 22.5517 30.665 22.5633 30.665 22.5898V27.4192C30.665 27.4315 30.6678 27.4428 30.6734 27.4532C30.6777 27.4608 30.6798 27.4688 30.6798 27.4773C30.6836 28.8644 30.6836 30.2403 30.6798 31.6051C30.6798 31.6155 30.6779 31.626 30.6741 31.6364C30.6675 31.6534 30.6642 31.6709 30.6642 31.6888C30.6652 32.7974 30.6638 33.8207 30.66 34.759C30.66 34.8162 30.6386 34.8484 30.5957 34.8555C30.5792 34.8588 30.5731 34.8678 30.5774 34.8824C30.5788 34.889 30.5722 34.8931 30.5576 34.8945C30.5472 34.8954 30.5385 34.8916 30.5315 34.8831C30.4439 34.7786 30.3553 34.6937 30.2659 34.6285C30.2546 34.62 30.2362 34.6226 30.2108 34.6363L21.7089 23.4715C21.7063 23.4682 21.7029 23.4654 21.6991 23.4636C21.6952 23.4618 21.691 23.461 21.6868 23.4612C21.6825 23.4614 21.6784 23.4627 21.6747 23.4648C21.6711 23.467 21.668 23.47 21.6658 23.4737C21.2384 24.1859 21.189 25.1449 21.189 25.9614C21.1942 35.6674 21.1937 45.2091 21.1876 54.5865C21.1871 55.0987 21.2022 55.5699 21.2328 56.0003C21.379 58.0645 22.1977 60.1777 23.8569 61.4865L22.1412 65.7406L0.651241 65.742C0.646882 65.742 0.642565 65.7411 0.638537 65.7394C0.634509 65.7377 0.630849 65.7352 0.627766 65.732C0.624683 65.7288 0.622238 65.7251 0.620569 65.721C0.618901 65.7168 0.618042 65.7124 0.618042 65.7079V62.7102C0.618042 62.687 0.629344 62.6742 0.651948 62.6718C2.602 62.4543 4.08562 61.5383 5.10279 59.9238C6.00624 58.4894 6.37144 56.7366 6.37214 55.0384C6.37497 44.2985 6.3752 33.8174 6.37285 23.595C6.37214 22.8466 6.32482 21.9684 6.02037 21.2888C5.6467 20.4553 4.58926 20.3127 3.79601 20.3092C2.70113 20.3035 1.65499 20.3028 0.657599 20.3071C0.631228 20.3071 0.618042 20.2936 0.618042 20.2666V17.2908C0.618042 17.2672 0.629815 17.2554 0.653361 17.2554H26.8936C26.9219 17.2554 26.9353 17.2696 26.9339 17.2979C26.9268 17.4391 26.9106 17.5207 27.0109 17.6441C28.3144 19.2539 29.6143 20.8665 30.9108 22.482Z" fill="#E75958"/>
<path d="M102 17.2554V20.3078C100.964 20.3021 99.9279 20.3026 98.8919 20.3092C98.2378 20.3134 97.4488 20.395 96.9678 20.8107C96.7191 21.0254 96.5512 21.3146 96.4641 21.6783C96.3224 22.2685 96.2515 22.8513 96.2515 23.4269C96.2553 33.855 96.2583 44.2829 96.2607 54.7106C96.2607 55.3495 96.2758 55.8217 96.3059 56.1272C96.4224 57.3197 96.7283 58.505 97.3068 59.5464C97.6082 60.0883 97.9268 60.5371 98.2625 60.8927C99.2444 61.9327 100.49 62.5269 102 62.6754V65.7391L81.1493 65.7406L79.2576 61.1127C79.2534 61.1027 79.2517 61.0923 79.2527 61.0814C79.2532 61.0739 79.2517 61.0673 79.2484 61.0616C80.5807 59.7961 81.2256 57.9155 81.3852 56.1294C81.422 55.7189 81.4403 55.2507 81.4403 54.7248C81.4342 45.1512 81.433 35.5887 81.4368 26.0373C81.4375 25.1932 81.4057 24.2114 80.9628 23.473C80.9609 23.4698 80.9583 23.4671 80.9551 23.4652C80.9519 23.4632 80.9483 23.4621 80.9447 23.4619C80.941 23.4617 80.9373 23.4624 80.9339 23.464C80.9305 23.4655 80.9276 23.4679 80.9254 23.4708L72.0025 35.1825C71.986 35.2042 71.9728 35.2023 71.9629 35.1768L68.489 26.5594C68.4768 26.5292 68.481 26.5013 68.5017 26.4757L75.6643 17.581C75.6826 17.5585 75.6925 17.5304 75.6926 17.5015L75.6947 17.3043C75.6952 17.2726 75.7112 17.2568 75.7427 17.2568L102 17.2554Z" fill="#BA2E2E"/>
<path d="M61.6033 17.2874L68.222 33.7078C68.207 33.7059 68.1942 33.7111 68.1839 33.7234C68.1749 33.7343 68.1712 33.7468 68.1726 33.761C68.1768 33.8007 68.1709 33.8378 68.1549 33.8723C68.1529 33.8767 68.1519 33.8814 68.152 33.8862C68.1521 33.891 68.1533 33.8957 68.1554 33.8999C68.1576 33.9042 68.1607 33.9079 68.1646 33.9107C68.1684 33.9135 68.1728 33.9155 68.1775 33.9163C68.1945 33.9192 68.2079 33.9277 68.2178 33.9419C68.2343 33.965 68.2364 33.9894 68.2241 34.0149C68.1931 34.0802 68.1806 34.1514 68.1867 34.2284C68.1886 34.2525 68.1832 34.2767 68.1712 34.298C68.1373 34.3575 68.1104 34.3817 68.1076 34.4583C68.0963 34.7241 68.0906 35.0312 68.0906 35.3797C68.0911 37.6596 68.0946 39.8291 68.1012 41.8882C68.1055 43.1111 68.1074 44.3762 68.1069 45.6833C68.105 54.373 68.1064 63.0628 68.1111 71.7525C68.1111 71.8707 68.1109 71.989 68.1104 72.1072C68.0892 75.2672 68.0904 78.4274 68.114 81.5879C68.1168 81.9851 68.0843 82.4115 68.1041 82.8193C68.1047 82.8283 68.1029 82.8373 68.0988 82.8453C68.0947 82.8533 68.0884 82.8601 68.0808 82.8647C68.045 82.887 68.0148 82.9137 67.9903 82.9449C67.9776 82.961 67.9611 82.9697 67.9409 82.9711L67.4726 82.9953L59.4899 82.9924C59.9589 82.9688 60.4289 82.9593 60.8998 82.9641C60.9021 82.9641 60.9043 82.9631 60.9061 82.9612C60.9076 82.9598 60.9085 82.9577 60.909 82.9548C60.9104 82.9435 60.9054 82.9383 60.8941 82.9392C60.8664 82.942 60.8383 82.9397 60.8101 82.9321C60.7912 82.9269 60.7877 82.9163 60.7995 82.9002C60.8273 82.8619 60.839 82.8132 60.8348 82.7541C60.8101 82.3973 60.8461 82.0461 60.8412 81.707C60.8247 80.4642 60.8209 79.2193 60.8299 77.9722C60.8299 77.9625 60.8281 77.9529 60.8245 77.9439C60.8208 77.935 60.8154 77.9268 60.8086 77.9199C60.8018 77.9129 60.7937 77.9074 60.7847 77.9036C60.7758 77.8998 60.7661 77.8978 60.7564 77.8977L60.3799 77.8928C61.2054 77.8885 62.0286 77.8455 62.8494 77.7637C63.3627 77.7126 63.8849 77.6232 64.4161 77.4955C65.9991 77.1153 67.4302 76.0754 67.3285 74.3112C67.2828 73.5186 67.0961 72.7132 66.7683 71.8951C64.7474 66.8536 62.725 61.8129 60.7013 56.7728L60.7854 56.8012C60.8032 56.8073 60.8167 56.8187 60.8256 56.8352C60.8313 56.8456 60.8296 56.8556 60.8207 56.865C60.8056 56.8806 60.803 56.8979 60.8129 56.9168L60.9535 57.1842C60.9643 57.2046 60.9697 57.2266 60.9697 57.2502C60.9702 57.3226 60.9871 57.394 61.0206 57.4645C61.029 57.4834 61.0432 57.4961 61.063 57.5028C61.095 57.5136 61.1105 57.5361 61.1096 57.5701C61.1068 57.6884 61.1421 57.7763 61.2155 57.834C61.2381 57.852 61.2499 57.8759 61.2509 57.9057L61.253 58.044C61.2534 58.0728 61.2657 58.0951 61.2897 58.1107C61.3198 58.131 61.3462 58.1575 61.3688 58.1901C61.3844 58.2124 61.3926 58.2367 61.3935 58.2632C61.395 58.2911 61.4072 58.3126 61.4303 58.3277C61.4519 58.3419 61.4656 58.3616 61.4712 58.3866C61.4792 58.4212 61.488 58.4498 61.4974 58.4725C61.4983 58.4758 61.499 58.4758 61.4995 58.4725C61.516 58.3448 61.5242 58.2291 61.5242 58.1256C61.5214 44.3421 61.5247 31.251 61.5341 18.8522C61.5346 18.6134 61.5367 18.3654 61.5405 18.1081C61.5409 18.0811 61.5492 18.0565 61.5652 18.0343C61.5845 18.0083 61.5906 17.9799 61.5836 17.9492C61.5803 17.9364 61.5788 17.9234 61.5793 17.9102L61.5864 17.4675C61.5868 17.4529 61.5932 17.442 61.6055 17.4349C61.6168 17.4288 61.6135 17.4165 61.5956 17.398C61.5928 17.3952 61.5894 17.3932 61.5858 17.3922C61.5822 17.3912 61.5785 17.3912 61.5751 17.3923C61.5666 17.3947 61.5595 17.3933 61.5539 17.3881C61.5336 17.3696 61.5336 17.3512 61.5539 17.3328L61.6033 17.2874Z" fill="#7D7E81"/>
<path d="M40.5564 34.212L40.5041 34.3312C40.473 34.334 40.4511 34.3276 40.4384 34.312C39.2121 32.7897 37.9863 31.2669 36.761 29.7437C36.7445 29.7229 36.7229 29.6872 36.696 29.6366L39.9567 21.6335C39.9854 21.6189 40.0096 21.6136 40.0294 21.6179C40.0586 21.6241 40.0744 21.6122 40.0767 21.5824L40.0831 21.5172C40.0837 21.51 40.0868 21.5032 40.0918 21.498C40.0968 21.4929 40.1035 21.4896 40.1106 21.4888C40.1224 21.4874 40.1309 21.4812 40.1361 21.4704C40.1493 21.441 40.1587 21.4422 40.1643 21.4739C40.1676 21.4909 40.1775 21.5004 40.194 21.5023C40.2194 21.5051 40.2328 21.5191 40.2343 21.5441C40.2385 21.6226 40.2409 21.6948 40.2413 21.7605C40.2536 23.4303 40.2606 25.0676 40.2625 26.6721C40.2625 26.8334 40.2623 26.9928 40.2618 27.1503C40.2562 28.4924 40.2543 29.9735 40.2562 31.5937C40.2562 31.6694 40.2609 31.7443 40.2703 31.8186C40.2851 31.9371 40.2555 32.0491 40.2555 32.1676C40.255 32.6902 40.255 33.2132 40.2555 33.7367C40.2555 33.7566 40.2512 33.775 40.2427 33.7921C40.2399 33.7982 40.238 33.8043 40.2371 33.8105C40.2357 33.8166 40.2361 33.8228 40.2385 33.8289C40.2644 33.9027 40.2821 33.9822 40.2915 34.0673C40.2925 34.077 40.2957 34.0863 40.3007 34.0947C40.3058 34.103 40.3126 34.1101 40.3207 34.1156C40.3287 34.121 40.3379 34.1245 40.3475 34.126C40.3571 34.1275 40.3669 34.1268 40.3762 34.124C40.4007 34.1169 40.4203 34.1219 40.4349 34.1389C40.4561 34.1626 40.4728 34.16 40.485 34.1311C40.4888 34.1221 40.4951 34.116 40.5041 34.1127C40.5375 34.1009 40.5446 34.1096 40.5253 34.1389C40.5201 34.147 40.5163 34.1557 40.514 34.1652C40.5119 34.173 40.512 34.1813 40.5144 34.1891C40.5168 34.1969 40.5213 34.2038 40.5274 34.2092C40.5387 34.2181 40.5484 34.2191 40.5564 34.212Z" fill="#A4A6A9"/>
<path d="M30.9108 22.4819L36.696 29.6366C36.7229 29.6872 36.7445 29.7229 36.761 29.7437C37.9863 31.267 39.2121 32.7897 40.4384 34.312C40.4511 34.3276 40.473 34.334 40.5041 34.3312C40.5008 34.3449 40.4996 34.3581 40.5005 34.3709C40.5015 34.3827 40.5055 34.3931 40.5125 34.4021C44.0896 38.8437 47.6862 43.3106 51.3024 47.8028C51.3039 47.8047 51.3058 47.8062 51.308 47.8073C51.3102 47.8084 51.3126 47.8089 51.3151 47.8089C51.3175 47.8089 51.3199 47.8084 51.3221 47.8073C51.3243 47.8062 51.3263 47.8047 51.3278 47.8028L53.0414 45.6725C53.0655 45.6423 53.0848 45.6453 53.0994 45.6818L56.846 55.0085C56.8591 55.0416 56.8549 55.0724 56.8332 55.1007L51.3638 62.2802C51.3318 62.3218 51.3 62.3218 51.2684 62.2802L30.2108 34.6362C30.2362 34.6225 30.2546 34.6199 30.2659 34.6284C30.3554 34.6937 30.4439 34.7786 30.5315 34.8831C30.5386 34.8916 30.5473 34.8954 30.5576 34.8944C30.5722 34.893 30.5788 34.889 30.5774 34.8824C30.5732 34.8677 30.5793 34.8587 30.5958 34.8554C30.6386 34.8483 30.6601 34.8162 30.6601 34.7589C30.6638 33.8207 30.6652 32.7973 30.6643 31.6888C30.6643 31.6708 30.6676 31.6533 30.6742 31.6363C30.678 31.6259 30.6798 31.6155 30.6798 31.6051C30.6836 30.2403 30.6836 28.8643 30.6798 27.4773C30.6798 27.4688 30.6777 27.4607 30.6735 27.4532C30.6678 27.4428 30.665 27.4314 30.665 27.4191V22.5898C30.665 22.5633 30.678 22.5517 30.7039 22.555C30.7712 22.564 30.835 22.5533 30.8953 22.5231C30.8961 22.5227 30.8967 22.5221 30.8972 22.5214C30.8977 22.5207 30.898 22.5199 30.8981 22.519C30.8981 22.5182 30.898 22.5173 30.8976 22.5165C30.8973 22.5157 30.8967 22.5151 30.896 22.5146C30.8903 22.5108 30.8854 22.5063 30.8812 22.5011C30.868 22.485 30.8708 22.4805 30.8896 22.4876C30.8967 22.49 30.9038 22.4881 30.9108 22.4819Z" fill="#D34845"/>
<path d="M68.222 33.7077L79.2484 61.0615C79.2517 61.0672 79.2532 61.0738 79.2527 61.0814C79.2517 61.0923 79.2534 61.1027 79.2576 61.1126L81.1493 65.7405C81.1516 65.7623 81.1578 65.7854 81.1677 65.81C82.0558 68.0299 82.9374 70.2216 83.8123 72.3851C84.335 73.6776 84.9439 74.9602 85.8417 76.0207C87.0538 77.4522 88.8028 77.892 90.6133 77.8927C91.5287 77.8927 92.4475 77.8929 93.3695 77.8934C93.3824 77.8934 93.3948 77.8985 93.404 77.9077C93.4131 77.9169 93.4183 77.9293 93.4183 77.9423V82.9632C93.4183 82.9713 93.415 82.9791 93.4091 82.9848C93.4033 82.9905 93.3954 82.9937 93.3872 82.9937L67.4725 82.9951L67.9409 82.971C67.9611 82.9696 67.9776 82.9609 67.9903 82.9448C68.0148 82.9136 68.0449 82.8868 68.0807 82.8646C68.0884 82.8599 68.0946 82.8532 68.0987 82.8452C68.1029 82.8372 68.1047 82.8282 68.104 82.8192C68.0843 82.4113 68.1167 81.985 68.1139 81.5878C68.0904 78.4273 68.0892 75.2671 68.1104 72.1071C68.1109 71.9888 68.1111 71.8706 68.1111 71.7524C68.1064 63.0627 68.105 54.3729 68.1069 45.6832C68.1073 44.3761 68.1054 43.111 68.1012 41.8881C68.0946 39.829 68.0911 37.6595 68.0906 35.3796C68.0906 35.0311 68.0963 34.7239 68.1076 34.4582C68.1104 34.3816 68.1372 34.3574 68.1711 34.2978C68.1831 34.2766 68.1885 34.2524 68.1867 34.2283C68.1806 34.1512 68.193 34.0801 68.2241 34.0148C68.2364 33.9893 68.2342 33.9649 68.2178 33.9417C68.2079 33.9276 68.1944 33.919 68.1775 33.9162C68.1728 33.9154 68.1684 33.9134 68.1645 33.9106C68.1607 33.9077 68.1576 33.9041 68.1554 33.8998C68.1532 33.8956 68.152 33.8909 68.1519 33.8861C68.1519 33.8813 68.1529 33.8766 68.1549 33.8722C68.1709 33.8377 68.1768 33.8006 68.1725 33.7609C68.1711 33.7467 68.1749 33.7341 68.1839 33.7233C68.1942 33.711 68.2069 33.7058 68.222 33.7077Z" fill="#76777A"/>
<path d="M22.1412 65.7406L23.857 61.4865L31.8411 41.7129C31.8432 41.7078 31.8466 41.7033 31.8509 41.6999C31.8553 41.6965 31.8604 41.6943 31.8659 41.6936C31.8714 41.6929 31.8769 41.6937 31.882 41.6958C31.8871 41.6979 31.8915 41.7014 31.8948 41.7058L35.5489 46.5004C35.5715 46.5302 35.5757 46.5626 35.5616 46.5976C33.1543 52.5161 30.7564 58.4291 28.3679 64.3367C27.9243 65.433 27.5509 66.5755 27.2476 67.7644C27.1153 68.2822 27.0251 68.7672 26.977 69.2193C26.8706 70.2162 26.9641 71.2315 27.2575 72.2653C27.8791 74.4537 29.6069 76.1619 31.6688 77.033C33.1642 77.665 34.8135 77.8913 36.4488 77.8927C37.2578 77.8942 38.0584 77.8944 38.8504 77.8934C38.8594 77.8934 38.8681 77.897 38.8744 77.9034C38.8808 77.9098 38.8843 77.9185 38.8843 77.9275V82.9597C38.8844 82.9642 38.8837 82.9686 38.882 82.9727C38.8804 82.9768 38.878 82.9806 38.8749 82.9838C38.8718 82.987 38.8681 82.9895 38.864 82.9912C38.8599 82.9929 38.8556 82.9938 38.8511 82.9938L9.25702 82.9952C9.225 82.9952 9.20898 82.9789 9.20898 82.9463V77.9261C9.20898 77.9015 9.22146 77.8892 9.24642 77.8892C9.8459 77.8996 10.4607 77.8982 11.0908 77.8849C12.6711 77.8523 14.0888 77.387 15.3438 76.4889C15.8058 76.1583 16.2522 75.7703 16.6527 75.3787C18.3038 73.7628 19.5938 71.8738 20.5229 69.7116C20.764 69.1498 21.3035 67.8261 22.1412 65.7406Z" fill="#A4A6A9"/>
<path d="M60.3799 77.8926L60.7564 77.8975C60.7661 77.8976 60.7758 77.8996 60.7847 77.9034C60.7937 77.9072 60.8018 77.9127 60.8086 77.9196C60.8154 77.9266 60.8208 77.9348 60.8245 77.9437C60.8281 77.9527 60.8299 77.9623 60.8298 77.972C60.8209 79.2191 60.8247 80.464 60.8412 81.7068C60.8461 82.0459 60.8101 82.397 60.8348 82.7539C60.839 82.813 60.8273 82.8617 60.7995 82.9C60.7877 82.9161 60.7912 82.9267 60.8101 82.9319C60.8383 82.9395 60.8663 82.9418 60.8941 82.939C60.9054 82.9381 60.9104 82.9433 60.909 82.9546C60.9085 82.9575 60.9075 82.9596 60.9061 82.961C60.9043 82.9629 60.9021 82.9638 60.8998 82.9638C60.4289 82.9591 59.9589 82.9686 59.4899 82.9922L56.812 82.9929C56.8034 82.9929 56.7951 82.9895 56.789 82.9834C56.7829 82.9772 56.7795 82.9689 56.7795 82.9603L56.7788 77.9231C56.7788 77.9156 56.7818 77.9083 56.7871 77.903C56.7924 77.8977 56.7996 77.8947 56.8071 77.8947L60.3799 77.8926Z" fill="#848588"/>
</g>
<defs>
<clipPath id="clip0_294_57">
<rect width="102" height="103" fill="white"/>
</clipPath>
</defs>
</svg>
