<svg width="88" height="89" viewBox="0 0 88 89" fill="none" xmlns="http://www.w3.org/2000/svg">
<g clip-path="url(#clip0_233_1490)">
<path d="M46.1982 0C46.1697 0.0151194 46.1338 0.0245179 46.0903 0.0281956C46.0513 0.031056 46.0515 0.0337121 46.0909 0.0361639C46.099 0.0365725 46.1072 0.03882 46.1153 0.0429063C46.1328 0.0514876 46.1415 0.0655854 46.1415 0.0851997C46.1382 1.47904 46.1388 2.87329 46.1433 4.26795C46.1433 4.32986 46.1555 4.37829 46.1555 4.44387C46.1555 11.9267 46.1555 19.4096 46.1555 26.8925C46.1555 26.9728 46.1799 27.0592 46.1683 27.1487C46.148 27.2978 46.1486 27.4378 46.1701 27.5685C46.1774 27.6133 46.1555 27.6427 46.1555 27.6868C46.1551 28.5123 46.1547 29.3371 46.1543 30.1613C46.1543 30.1789 46.1518 30.1963 46.147 30.2134C46.1421 30.2298 46.1397 30.2518 46.1397 30.2796C46.1393 31.0466 46.1411 31.7464 46.1451 32.379C46.1464 32.5894 46.1364 32.7999 46.1153 33.0103C46.1128 33.0336 46.1003 33.0473 46.0775 33.0514C46.0519 33.0559 46.0263 33.0597 46.0007 33.063C45.9763 33.0659 45.9644 33.0552 45.9648 33.0311C45.9648 33.0238 45.9684 33.0203 45.9757 33.0207C45.9778 33.0207 45.9796 33.0201 45.9812 33.0189C45.9853 33.0152 45.9865 33.0105 45.9849 33.0048C45.9568 32.9006 45.9052 32.8142 45.8301 32.7455" stroke="#88898C" stroke-width="2"/>
<path d="M34.9898 29.5617C34.9829 29.5679 34.9746 29.567 34.9648 29.5593C34.9595 29.5547 34.9556 29.5487 34.9536 29.5419C34.9515 29.5352 34.9514 29.5281 34.9532 29.5213C34.9553 29.5131 34.9585 29.5055 34.963 29.4986C34.9797 29.4733 34.9736 29.4657 34.9447 29.4759C34.937 29.4788 34.9315 29.4841 34.9283 29.4918C34.9177 29.5168 34.9033 29.519 34.885 29.4986C34.8724 29.4839 34.8555 29.4796 34.8344 29.4857C34.8264 29.4881 34.8179 29.4887 34.8096 29.4874C34.8013 29.4861 34.7934 29.4831 34.7865 29.4784C34.7795 29.4737 34.7736 29.4676 34.7693 29.4603C34.7649 29.4531 34.7622 29.4451 34.7613 29.4367C34.7532 29.3631 34.7379 29.2945 34.7156 29.2307C34.7135 29.2254 34.7131 29.2201 34.7144 29.2148C34.7152 29.2095 34.7168 29.2042 34.7192 29.1989C34.7265 29.1841 34.7302 29.1682 34.7302 29.151C34.7298 28.6987 34.7298 28.2467 34.7302 27.7952C34.7302 27.6928 34.7558 27.596 34.743 27.4936C34.7349 27.4295 34.7308 27.3647 34.7308 27.2993C34.7292 25.8994 34.7308 24.6195 34.7357 23.4598C34.7361 23.3238 34.7363 23.186 34.7363 23.0467C34.7347 21.6602 34.7286 20.2455 34.718 18.8027C34.7176 18.7459 34.7156 18.6835 34.7119 18.6157C34.7107 18.594 34.6991 18.582 34.6772 18.5795C34.663 18.5779 34.6544 18.5697 34.6516 18.555C34.6467 18.5276 34.6386 18.5266 34.6272 18.552C34.6227 18.5614 34.6154 18.5667 34.6053 18.5679C34.5991 18.5686 34.5934 18.5714 34.589 18.5759C34.5847 18.5803 34.582 18.5862 34.5815 18.5924L34.576 18.6488C34.574 18.6745 34.5604 18.6848 34.5352 18.6794C34.5181 18.6758 34.4972 18.6803 34.4724 18.6929" stroke="#989A9D" stroke-width="2"/>
<path d="M53.1481 14.9375L53.1054 14.9767C53.088 14.9927 53.088 15.0086 53.1054 15.0245C53.1103 15.029 53.1164 15.0303 53.1237 15.0282C53.1267 15.0273 53.1299 15.0272 53.133 15.0281C53.1361 15.0289 53.139 15.0307 53.1414 15.0331C53.1568 15.0491 53.1597 15.0597 53.1499 15.065C53.1394 15.0711 53.1339 15.0805 53.1335 15.0932L53.1274 15.4757C53.127 15.4871 53.1282 15.4983 53.131 15.5094C53.1371 15.5359 53.1318 15.5605 53.1152 15.5829C53.1014 15.6021 53.0943 15.6234 53.0939 15.6467C53.0906 15.869 53.0888 16.0833 53.0884 16.2897C53.0803 27.0032 53.0774 38.3149 53.0798 50.2249C53.0798 50.3144 53.0727 50.4143 53.0585 50.5246C53.0581 50.5275 53.0575 50.5275 53.0567 50.5246C53.0486 50.505 53.041 50.4803 53.0341 50.4505C53.0293 50.4288 53.0175 50.4118 52.9988 50.3996C52.9789 50.3865 52.9683 50.3679 52.9671 50.3438C52.9663 50.3209 52.9592 50.2999 52.9458 50.2807C52.9263 50.2525 52.9035 50.2296 52.8775 50.212C52.8568 50.1985 52.8462 50.1793 52.8458 50.1544L52.844 50.0349C52.8432 50.0091 52.833 49.9885 52.8135 49.973C52.7501 49.9231 52.7197 49.8471 52.7221 49.745C52.7229 49.7155 52.7095 49.6961 52.6819 49.6867C52.6648 49.681 52.6526 49.67 52.6453 49.6536C52.6165 49.5927 52.6019 49.531 52.6015 49.4685C52.6015 49.4481 52.5968 49.4291 52.5874 49.4115L52.4662 49.1804C52.4576 49.1641 52.4599 49.1492 52.4729 49.1357C52.4806 49.1275 52.482 49.1189 52.4771 49.1099C52.4694 49.0956 52.4578 49.0858 52.4424 49.0805L52.3699 49.056" stroke="#818285" stroke-width="2"/>
<path d="M26.6681 19.4263C26.662 19.4316 26.656 19.4332 26.6499 19.4312C26.6336 19.425 26.6312 19.4289 26.6425 19.4428C26.6462 19.4473 26.6505 19.4512 26.6553 19.4545C26.6559 19.4549 26.6564 19.4555 26.6567 19.4562C26.6571 19.4568 26.6572 19.4576 26.6571 19.4583C26.6571 19.4591 26.6568 19.4598 26.6564 19.4604C26.656 19.461 26.6554 19.4615 26.6547 19.4618C26.6027 19.488 26.5477 19.4972 26.4896 19.4894C26.4672 19.4865 26.4561 19.4966 26.4561 19.5194V23.6924C26.4561 23.703 26.4585 23.7128 26.4634 23.7218C26.467 23.7283 26.4689 23.7353 26.4689 23.7426C26.4721 24.9412 26.4721 26.1301 26.4689 27.3094C26.4689 27.3184 26.4672 27.3274 26.464 27.3364C26.4583 27.3511 26.4555 27.3662 26.4555 27.3817C26.4563 28.3396 26.455 29.2238 26.4518 30.0346C26.4518 30.084 26.4333 30.1118 26.3963 30.1179C26.3821 30.1208 26.3768 30.1285 26.3805 30.1412C26.3817 30.1469 26.376 30.1504 26.3634 30.1516C26.3545 30.1524 26.347 30.1492 26.3409 30.1418C26.2653 30.0515 26.1889 29.9782 26.1117 29.9218C26.102 29.9144 26.0861 29.9167 26.0642 29.9285" stroke="#DD514F" stroke-width="2"/>
<path d="M20.5826 53.1289L19.1023 56.8048" stroke="#C68081" stroke-width="2"/>
<path d="M70.0113 56.8047L68.3793 52.8059C68.3756 52.7973 68.3742 52.7883 68.375 52.7789C68.3754 52.7723 68.3742 52.7666 68.3713 52.7617" stroke="#985354" stroke-width="2"/>
<path d="M58.8583 29.1258C58.8453 29.1242 58.8343 29.1287 58.8254 29.1393C58.8176 29.1487 58.8144 29.1595 58.8156 29.1718C58.8193 29.2061 58.8142 29.2382 58.8004 29.268C58.7986 29.2718 58.7978 29.2759 58.7978 29.28C58.7979 29.2841 58.7989 29.2882 58.8008 29.2919C58.8027 29.2955 58.8054 29.2987 58.8087 29.3012C58.812 29.3036 58.8158 29.3053 58.8199 29.306C58.8345 29.3085 58.8461 29.3158 58.8546 29.3281C58.8688 29.3481 58.8707 29.3692 58.8601 29.3912C58.8333 29.4476 58.8225 29.5091 58.8278 29.5757C58.8294 29.5965 58.8247 29.6174 58.8144 29.6358C58.7851 29.6873 58.762 29.7081 58.7595 29.7743C58.7498 30.004 58.7449 30.2694 58.7449 30.5705C58.7453 32.5405 58.7484 34.4151 58.754 36.1943C58.7577 37.2511 58.7593 38.3441 58.7589 39.4736C58.7573 46.9822 58.7585 54.4908 58.7626 61.9994C58.7626 62.1016 58.7624 62.2037 58.762 62.3059C58.7437 65.0364 58.7447 67.7671 58.765 70.4979C58.7675 70.8412 58.7394 71.2096 58.7565 71.562C58.7571 71.5698 58.7555 71.5776 58.7519 71.5845C58.7484 71.5914 58.743 71.5972 58.7364 71.6013C58.7055 71.6205 58.6795 71.6435 58.6584 71.6705C58.6474 71.6844 58.6332 71.692 58.6157 71.6932L58.2117 71.714" stroke="#7A7B7E" stroke-width="2"/>
<path d="M51.3247 71.7116C51.7294 71.6912 52.1348 71.6831 52.5411 71.6871C52.5431 71.6871 52.545 71.6863 52.5466 71.6847C52.5478 71.6835 52.5486 71.6816 52.549 71.6792C52.5502 71.6694 52.546 71.6649 52.5362 71.6657C52.5123 71.6681 52.4881 71.6661 52.4637 71.6596C52.4475 71.6551 52.4444 71.6459 52.4546 71.632C52.4785 71.5989 52.4887 71.5568 52.485 71.5057C52.4637 71.1974 52.4948 70.894 52.4905 70.601C52.4763 69.5271 52.4731 68.4514 52.4808 67.3738C52.4809 67.3655 52.4793 67.3571 52.4761 67.3494C52.473 67.3416 52.4683 67.3345 52.4625 67.3286C52.4566 67.3226 52.4496 67.3178 52.4418 67.3146C52.4341 67.3113 52.4258 67.3095 52.4174 67.3095L52.0926 67.3052" stroke="#818285" stroke-width="2"/>
<path d="M34.9448 29.6649C34.918 29.6673 34.8991 29.6618 34.8881 29.6483C33.8302 28.333 32.7726 27.0172 31.7155 25.701C31.7013 25.683 31.6826 25.6521 31.6594 25.6084" stroke="#BC7777" stroke-width="2"/>
<path d="M42.0134 0H46.1982C46.1698 0.0151194 46.1338 0.0245179 46.0904 0.0281956C46.0514 0.031056 46.0516 0.0337121 46.091 0.0361639C46.0991 0.0365725 46.1072 0.03882 46.1154 0.0429063C46.1328 0.0514876 46.1416 0.0655854 46.1416 0.0851997C46.1383 1.47904 46.1389 2.87329 46.1434 4.26795C46.1434 4.32986 46.1556 4.37829 46.1556 4.44387C46.1556 11.9267 46.1556 19.4096 46.1556 26.8925C46.1556 26.9728 46.1799 27.0592 46.1684 27.1487C46.1481 27.2978 46.1487 27.4378 46.1702 27.5685C46.1775 27.6133 46.1556 27.6427 46.1556 27.6868C46.1552 28.5123 46.1548 29.3371 46.1544 30.1613C46.1544 30.1789 46.1519 30.1963 46.147 30.2134C46.1422 30.2298 46.1397 30.2518 46.1397 30.2796C46.1393 31.0466 46.1411 31.7464 46.1452 32.379C46.1464 32.5894 46.1365 32.7999 46.1154 33.0103C46.1129 33.0336 46.1003 33.0473 46.0776 33.0514C46.052 33.0559 46.0264 33.0597 46.0008 33.063C45.9764 33.0659 45.9644 33.0552 45.9648 33.0311C45.9648 33.0238 45.9685 33.0203 45.9758 33.0207C45.9778 33.0207 45.9797 33.0201 45.9813 33.0189C45.9853 33.0152 45.9866 33.0105 45.9849 33.0048C45.9569 32.9006 45.9053 32.8142 45.8301 32.7455L39.8262 17.7626C39.8148 17.7344 39.8034 17.7344 39.792 17.7626L34.9898 29.5619C34.9829 29.568 34.9746 29.5672 34.9648 29.5594C34.9595 29.5548 34.9556 29.5488 34.9536 29.5421C34.9515 29.5354 34.9514 29.5282 34.9532 29.5214C34.9553 29.5132 34.9585 29.5057 34.963 29.4987C34.9797 29.4734 34.9736 29.4658 34.9447 29.476C34.937 29.4789 34.9315 29.4842 34.9283 29.492C34.9177 29.5169 34.9033 29.5192 34.885 29.4987C34.8724 29.484 34.8555 29.4797 34.8344 29.4858C34.8264 29.4882 34.8179 29.4888 34.8096 29.4875C34.8013 29.4863 34.7934 29.4832 34.7864 29.4785C34.7795 29.4738 34.7736 29.4677 34.7693 29.4605C34.7649 29.4533 34.7622 29.4452 34.7613 29.4368C34.7532 29.3633 34.7379 29.2946 34.7156 29.2309C34.7135 29.2255 34.7131 29.2202 34.7144 29.2149C34.7152 29.2096 34.7168 29.2043 34.7192 29.199C34.7265 29.1843 34.7302 29.1683 34.7302 29.1512C34.7298 28.6988 34.7298 28.2469 34.7302 27.7953C34.7302 27.693 34.7558 27.5961 34.743 27.4938C34.7349 27.4296 34.7308 27.3648 34.7308 27.2995C34.7292 25.8995 34.7308 24.6197 34.7357 23.46C34.7361 23.3239 34.7363 23.1862 34.7363 23.0468C34.7347 21.6603 34.7286 20.2457 34.718 18.8028C34.7176 18.746 34.7156 18.6837 34.7119 18.6158C34.7107 18.5942 34.6991 18.5821 34.6772 18.5797C34.663 18.578 34.6544 18.5699 34.6516 18.5552C34.6467 18.5278 34.6386 18.5268 34.6272 18.5521C34.6227 18.5615 34.6154 18.5668 34.6053 18.568C34.5991 18.5687 34.5934 18.5715 34.589 18.576C34.5847 18.5805 34.582 18.5863 34.5815 18.5925L34.576 18.6489C34.574 18.6747 34.5604 18.6849 34.5352 18.6796C34.5181 18.6759 34.4972 18.6804 34.4724 18.6931L42.0134 0Z" fill="#8B8D90"/>
<path d="M46.1982 0H47.1385L53.148 14.9375L53.1053 14.9768C53.0878 14.9927 53.0878 15.0086 53.1053 15.0246C53.1102 15.0291 53.1163 15.0303 53.1236 15.0283C53.1265 15.0273 53.1297 15.0272 53.1329 15.0281C53.136 15.029 53.1389 15.0307 53.1413 15.0332C53.1567 15.0491 53.1596 15.0597 53.1498 15.065C53.1392 15.0712 53.1338 15.0806 53.1333 15.0932L53.1273 15.4757C53.1268 15.4871 53.1281 15.4984 53.1309 15.5094C53.137 15.536 53.1317 15.5605 53.1151 15.583C53.1012 15.6022 53.0941 15.6234 53.0937 15.6467C53.0905 15.869 53.0887 16.0833 53.0882 16.2897C53.0801 27.0032 53.0773 38.315 53.0797 50.2249C53.0797 50.3144 53.0726 50.4143 53.0584 50.5247C53.058 50.5275 53.0574 50.5275 53.0566 50.5247C53.0484 50.505 53.0409 50.4803 53.034 50.4505C53.0291 50.4288 53.0174 50.4119 52.9987 50.3996C52.9788 50.3865 52.9682 50.368 52.967 50.3438C52.9662 50.321 52.9591 50.2999 52.9456 50.2807C52.9261 50.2525 52.9034 50.2296 52.8774 50.2121C52.8567 50.1986 52.8461 50.1794 52.8457 50.1544L52.8439 50.0349C52.8431 50.0092 52.8329 49.9885 52.8134 49.973C52.75 49.9232 52.7196 49.8472 52.722 49.745C52.7228 49.7156 52.7094 49.6962 52.6818 49.6868C52.6647 49.681 52.6525 49.67 52.6452 49.6537C52.6164 49.5928 52.6017 49.5311 52.6013 49.4686C52.6013 49.4481 52.5966 49.4291 52.5873 49.4116L52.466 49.1805C52.4575 49.1641 52.4597 49.1492 52.4727 49.1357C52.4805 49.1276 52.4819 49.119 52.477 49.11C52.4693 49.0957 52.4577 49.0859 52.4423 49.0806L52.3697 49.056L45.8301 32.7455C45.9052 32.8142 45.9568 32.9006 45.9849 33.0048C45.9865 33.0105 45.9853 33.0152 45.9812 33.0189C45.9796 33.0201 45.9778 33.0207 45.9757 33.0207C45.9684 33.0203 45.9648 33.0238 45.9648 33.0311C45.9644 33.0552 45.9763 33.0659 46.0007 33.063C46.0263 33.0597 46.0519 33.0559 46.0775 33.0514C46.1003 33.0473 46.1128 33.0336 46.1153 33.0103C46.1364 32.7999 46.1464 32.5894 46.1451 32.379C46.1411 31.7464 46.1393 31.0466 46.1397 30.2796C46.1397 30.2518 46.1421 30.2298 46.147 30.2134C46.1518 30.1963 46.1543 30.1789 46.1543 30.1613C46.1547 29.3371 46.1551 28.5123 46.1555 27.6868C46.1555 27.6427 46.1774 27.6133 46.1701 27.5685C46.1486 27.4378 46.148 27.2978 46.1683 27.1487C46.1799 27.0592 46.1555 26.9728 46.1555 26.8925C46.1555 19.4096 46.1555 11.9267 46.1555 4.44387C46.1555 4.37829 46.1433 4.32986 46.1433 4.26795C46.1388 2.87329 46.1382 1.47904 46.1415 0.0851997C46.1415 0.0655854 46.1328 0.0514876 46.1153 0.0429063C46.1072 0.03882 46.099 0.0365725 46.0909 0.0361639C46.0515 0.0337121 46.0513 0.031056 46.0903 0.0281956C46.1338 0.0245179 46.1697 0.0151194 46.1982 0Z" fill="#848588"/>
<path d="M26.6681 19.4264C26.662 19.4317 26.6559 19.4333 26.6498 19.4313C26.6336 19.4251 26.6311 19.429 26.6425 19.4429C26.6462 19.4474 26.6504 19.4513 26.6553 19.4546C26.6559 19.455 26.6564 19.4556 26.6567 19.4562C26.657 19.4569 26.6571 19.4577 26.6571 19.4584C26.657 19.4591 26.6568 19.4599 26.6564 19.4605C26.6559 19.4611 26.6554 19.4616 26.6547 19.4619C26.6027 19.4881 26.5476 19.4973 26.4895 19.4895C26.4672 19.4866 26.456 19.4966 26.456 19.5195V23.6925C26.456 23.7031 26.4585 23.7129 26.4633 23.7219C26.467 23.7284 26.4688 23.7354 26.4688 23.7427C26.4721 24.9412 26.4721 26.1302 26.4688 27.3095C26.4688 27.3185 26.4672 27.3275 26.464 27.3364C26.4583 27.3512 26.4554 27.3663 26.4554 27.3818C26.4562 28.3396 26.455 29.2239 26.4518 30.0346C26.4518 30.0841 26.4333 30.1119 26.3963 30.118C26.3821 30.1209 26.3768 30.1286 26.3805 30.1413C26.3817 30.147 26.376 30.1505 26.3634 30.1517C26.3545 30.1525 26.3469 30.1493 26.3408 30.1419C26.2653 30.0516 26.1889 29.9782 26.1117 29.9219C26.102 29.9145 26.0861 29.9167 26.0642 29.9286L18.7292 20.2814C18.727 20.2785 18.7241 20.2761 18.7208 20.2746C18.7175 20.273 18.7138 20.2723 18.7101 20.2725C18.7065 20.2727 18.7029 20.2737 18.6998 20.2756C18.6966 20.2775 18.694 20.2801 18.692 20.2833C18.3233 20.8987 18.2807 21.7274 18.2807 22.4329C18.2852 30.8196 18.2847 39.0644 18.2795 47.1671C18.2791 47.6097 18.2921 48.0169 18.3185 48.3887C18.4446 50.1724 19.1509 51.9984 20.5825 53.1293L19.1022 56.8051L0.561846 56.8064C0.558084 56.8064 0.55436 56.8056 0.550885 56.8041C0.54741 56.8026 0.544252 56.8005 0.541592 56.7977C0.538933 56.795 0.536823 56.7918 0.535383 56.7882C0.533944 56.7846 0.533203 56.7808 0.533203 56.7769V54.1866C0.533203 54.1666 0.542954 54.1556 0.562455 54.1535C2.24486 53.9655 3.52484 53.174 4.4024 51.779C5.18185 50.5396 5.49691 49.025 5.49752 47.5576C5.49996 38.2776 5.50016 29.2211 5.49813 20.3881C5.49752 19.7414 5.45669 18.9826 5.19403 18.3954C4.87165 17.6752 3.95935 17.552 3.27498 17.5489C2.33038 17.544 1.42783 17.5434 0.567331 17.5471C0.544579 17.5471 0.533203 17.5354 0.533203 17.5121V14.9408C0.533203 14.9204 0.54336 14.9102 0.563674 14.9102H23.2023C23.2267 14.9102 23.2383 14.9224 23.2371 14.9469C23.231 15.0689 23.217 15.1394 23.3035 15.2461C24.4281 16.637 25.5496 18.0305 26.6681 19.4264Z" fill="#E75958"/>
<path d="M88.0001 14.9102V17.5477C87.1062 17.5428 86.2124 17.5432 85.3186 17.5489C84.7543 17.5526 84.0736 17.6231 83.6586 17.9822C83.444 18.1678 83.2992 18.4176 83.2241 18.7319C83.1018 19.2419 83.0406 19.7455 83.0406 20.2428C83.0439 29.2535 83.0465 38.2641 83.0485 47.2744C83.0485 47.8265 83.0615 48.2345 83.0875 48.4985C83.1881 49.5288 83.452 50.5531 83.9511 51.4529C84.2111 51.9212 84.4859 52.309 84.7756 52.6162C85.6227 53.5148 86.6975 54.0283 88.0001 54.1566V56.8039L70.0112 56.8051L68.3792 52.8063C68.3756 52.7977 68.3741 52.7887 68.375 52.7793C68.3754 52.7728 68.3742 52.767 68.3713 52.7621C69.5207 51.6686 70.0771 50.0437 70.2148 48.5003C70.2465 48.1456 70.2623 47.7411 70.2623 47.2867C70.257 39.0143 70.256 30.7516 70.2593 22.4984C70.2599 21.769 70.2325 20.9207 69.8504 20.2826C69.8487 20.2799 69.8464 20.2776 69.8437 20.2759C69.841 20.2742 69.8379 20.2733 69.8347 20.2731C69.8315 20.2729 69.8283 20.2735 69.8254 20.2749C69.8225 20.2762 69.82 20.2782 69.8181 20.2808L62.1199 30.4006C62.1057 30.4194 62.0943 30.4177 62.0858 30.3957L59.0886 22.9496C59.0781 22.9234 59.0817 22.8993 59.0996 22.8773L65.2791 15.1915C65.2949 15.1721 65.3035 15.1478 65.3035 15.1228L65.3053 14.9524C65.3057 14.9251 65.3195 14.9114 65.3468 14.9114L88.0001 14.9102Z" fill="#BA2E2E"/>
<path d="M53.1481 14.9375L58.8583 29.126C58.8453 29.1244 58.8344 29.1289 58.8254 29.1395C58.8177 29.1489 58.8145 29.1597 58.8157 29.172C58.8193 29.2063 58.8143 29.2384 58.8004 29.2682C58.7987 29.272 58.7978 29.2761 58.7979 29.2802C58.798 29.2843 58.799 29.2884 58.8009 29.292C58.8028 29.2957 58.8055 29.2989 58.8088 29.3014C58.8121 29.3038 58.8159 29.3055 58.8199 29.3062C58.8346 29.3087 58.8461 29.316 58.8547 29.3283C58.8689 29.3483 58.8707 29.3694 58.8602 29.3914C58.8334 29.4478 58.8226 29.5093 58.8279 29.5759C58.8295 29.5967 58.8248 29.6176 58.8145 29.636C58.7852 29.6875 58.762 29.7083 58.7596 29.7745C58.7499 30.0042 58.745 30.2696 58.745 30.5707C58.7454 32.5407 58.7484 34.4153 58.7541 36.1945C58.7578 37.2512 58.7594 38.3443 58.759 39.4738C58.7574 46.9824 58.7586 54.491 58.7627 61.9996C58.7627 62.1018 58.7625 62.2039 58.762 62.3061C58.7438 65.0366 58.7448 67.7673 58.7651 70.4981C58.7675 70.8414 58.7395 71.2098 58.7566 71.5622C58.7571 71.57 58.7555 71.5778 58.752 71.5847C58.7485 71.5916 58.7431 71.5974 58.7365 71.6014C58.7056 71.6207 58.6796 71.6437 58.6584 71.6707C58.6475 71.6846 58.6333 71.6922 58.6158 71.6934L58.2117 71.7142L51.3247 71.7118C51.7294 71.6913 52.1348 71.6832 52.5411 71.6873C52.5431 71.6873 52.545 71.6864 52.5466 71.6848C52.5478 71.6836 52.5486 71.6817 52.549 71.6793C52.5502 71.6695 52.546 71.665 52.5362 71.6658C52.5123 71.6683 52.4881 71.6662 52.4637 71.6597C52.4475 71.6552 52.4444 71.646 52.4546 71.6321C52.4785 71.599 52.4887 71.5569 52.485 71.5058C52.4637 71.1975 52.4948 70.8941 52.4905 70.6011C52.4763 69.5272 52.4731 68.4515 52.4808 67.374C52.4809 67.3656 52.4793 67.3573 52.4761 67.3495C52.473 67.3417 52.4683 67.3347 52.4625 67.3287C52.4566 67.3227 52.4496 67.318 52.4418 67.3147C52.4341 67.3114 52.4258 67.3097 52.4174 67.3096L52.0926 67.3053C52.8048 67.3016 53.515 67.2644 54.2231 67.1937C54.6659 67.1496 55.1165 67.0724 55.5748 66.962C56.9405 66.6335 58.1752 65.7349 58.0874 64.2105C58.048 63.5257 57.8869 62.8298 57.6042 62.1228C55.8606 57.7666 54.1158 53.411 52.3699 49.056L52.4424 49.0805C52.4578 49.0858 52.4694 49.0956 52.4771 49.1099C52.482 49.1189 52.4806 49.1275 52.4729 49.1357C52.4599 49.1492 52.4576 49.1641 52.4661 49.1804L52.5874 49.4115C52.5968 49.4291 52.6014 49.4481 52.6014 49.4685C52.6018 49.531 52.6165 49.5927 52.6453 49.6536C52.6526 49.67 52.6648 49.681 52.6819 49.6867C52.7095 49.6961 52.7229 49.7155 52.7221 49.745C52.7197 49.8471 52.7501 49.9231 52.8135 49.973C52.833 49.9885 52.8432 50.0091 52.844 50.0349L52.8458 50.1544C52.8462 50.1793 52.8568 50.1985 52.8775 50.212C52.9035 50.2296 52.9263 50.2525 52.9458 50.2807C52.9592 50.2999 52.9663 50.3209 52.9671 50.3438C52.9683 50.3679 52.9789 50.3865 52.9988 50.3996C53.0175 50.4118 53.0292 50.4288 53.0341 50.4505C53.041 50.4803 53.0485 50.505 53.0567 50.5246C53.0575 50.5275 53.0581 50.5275 53.0585 50.5246C53.0727 50.4143 53.0798 50.3144 53.0798 50.2249C53.0774 38.3149 53.0802 27.0032 53.0884 16.2897C53.0888 16.0833 53.0906 15.869 53.0938 15.6467C53.0943 15.6234 53.1014 15.6021 53.1152 15.5829C53.1318 15.5605 53.1371 15.5359 53.131 15.5094C53.1282 15.4983 53.127 15.4871 53.1274 15.4757L53.1335 15.0932C53.1339 15.0805 53.1394 15.0711 53.1499 15.065C53.1597 15.0597 53.1568 15.0491 53.1414 15.0331C53.139 15.0307 53.1361 15.0289 53.133 15.0281C53.1299 15.0272 53.1266 15.0273 53.1237 15.0282C53.1164 15.0303 53.1103 15.029 53.1054 15.0245C53.088 15.0086 53.088 14.9927 53.1054 14.9767L53.1481 14.9375Z" fill="#7D7E81"/>
<path d="M34.9897 29.5617L34.9446 29.6647C34.9177 29.6671 34.8988 29.6616 34.8879 29.6481C33.8299 28.3328 32.7724 27.017 31.7152 25.7008C31.701 25.6828 31.6823 25.6519 31.6592 25.6082L34.4723 18.6929C34.497 18.6803 34.518 18.6758 34.535 18.6794C34.5602 18.6848 34.5738 18.6745 34.5759 18.6488L34.5813 18.5924C34.5819 18.5862 34.5845 18.5803 34.5889 18.5759C34.5932 18.5714 34.5989 18.5686 34.6051 18.5679C34.6153 18.5667 34.6226 18.5614 34.627 18.552C34.6384 18.5266 34.6465 18.5276 34.6514 18.555C34.6543 18.5697 34.6628 18.5779 34.677 18.5795C34.699 18.582 34.7105 18.594 34.7118 18.6157C34.7154 18.6835 34.7174 18.7459 34.7179 18.8027C34.7284 20.2455 34.7345 21.6602 34.7361 23.0467C34.7361 23.186 34.7359 23.3238 34.7355 23.4598C34.7306 24.6195 34.729 25.8994 34.7306 27.2993C34.7306 27.3647 34.7347 27.4295 34.7428 27.4936C34.7556 27.596 34.73 27.6928 34.73 27.7952C34.7296 28.2467 34.7296 28.6987 34.73 29.151C34.73 29.1682 34.7264 29.1841 34.7191 29.1989C34.7166 29.2042 34.715 29.2095 34.7142 29.2148C34.713 29.2201 34.7134 29.2254 34.7154 29.2307C34.7378 29.2945 34.753 29.3631 34.7611 29.4367C34.762 29.4451 34.7647 29.4531 34.7691 29.4603C34.7734 29.4676 34.7793 29.4737 34.7863 29.4784C34.7933 29.4831 34.8012 29.4861 34.8095 29.4874C34.8177 29.4887 34.8262 29.4881 34.8342 29.4857C34.8554 29.4796 34.8722 29.4839 34.8848 29.4986C34.9031 29.519 34.9175 29.5168 34.9281 29.4918C34.9314 29.4841 34.9368 29.4788 34.9446 29.4759C34.9734 29.4657 34.9795 29.4733 34.9628 29.4986C34.9584 29.5055 34.9551 29.5131 34.9531 29.5213C34.9513 29.5281 34.9514 29.5352 34.9534 29.5419C34.9555 29.5487 34.9594 29.5547 34.9647 29.5593C34.9744 29.567 34.9827 29.5679 34.9897 29.5617Z" fill="#A4A6A9"/>
<path d="M26.6681 19.4263L31.6593 25.6085C31.6824 25.6522 31.7011 25.683 31.7153 25.701C32.7725 27.0172 33.83 28.333 34.888 29.6484C34.8989 29.6619 34.9178 29.6674 34.9446 29.6649C34.9418 29.6768 34.9408 29.6882 34.9416 29.6993C34.9424 29.7095 34.9459 29.7185 34.952 29.7262C38.0381 33.5641 41.141 37.4238 44.2608 41.3054C44.2621 41.3071 44.2638 41.3084 44.2657 41.3094C44.2676 41.3103 44.2697 41.3108 44.2718 41.3108C44.2739 41.3108 44.276 41.3103 44.2779 41.3094C44.2798 41.3084 44.2815 41.3071 44.2828 41.3054L45.7612 39.4648C45.7819 39.4386 45.7986 39.4413 45.8112 39.4727L49.0435 47.5318C49.0549 47.5604 49.0513 47.5869 49.0326 47.6114L44.3139 53.8151C44.2862 53.851 44.2588 53.851 44.2316 53.8151L26.0642 29.9285C26.0861 29.9167 26.102 29.9144 26.1117 29.9218C26.1889 29.9782 26.2653 30.0515 26.3409 30.1418C26.347 30.1492 26.3545 30.1524 26.3634 30.1516C26.376 30.1504 26.3817 30.1469 26.3805 30.1412C26.3768 30.1285 26.3821 30.1208 26.3963 30.1179C26.4333 30.1118 26.4518 30.084 26.4518 30.0346C26.455 29.2238 26.4563 28.3396 26.4555 27.3817C26.4555 27.3662 26.4583 27.3511 26.464 27.3364C26.4672 27.3274 26.4689 27.3184 26.4689 27.3094C26.4721 26.1301 26.4721 24.9412 26.4689 23.7426C26.4689 23.7353 26.467 23.7283 26.4634 23.7218C26.4585 23.7128 26.4561 23.703 26.4561 23.6924V19.5194C26.4561 19.4966 26.4672 19.4865 26.4896 19.4894C26.5477 19.4972 26.6027 19.488 26.6547 19.4618C26.6554 19.4615 26.656 19.461 26.6564 19.4604C26.6568 19.4598 26.6571 19.4591 26.6571 19.4583C26.6572 19.4576 26.6571 19.4568 26.6567 19.4562C26.6564 19.4555 26.6559 19.4549 26.6553 19.4545C26.6505 19.4512 26.6462 19.4473 26.6425 19.4428C26.6312 19.4289 26.6336 19.425 26.6499 19.4312C26.656 19.4332 26.662 19.4316 26.6681 19.4263Z" fill="#D34845"/>
<path d="M58.8583 29.1258L68.3713 52.7617C68.3741 52.7666 68.3753 52.7723 68.3749 52.7789C68.3741 52.7883 68.3755 52.7972 68.3792 52.8058L70.0112 56.8047C70.0133 56.8235 70.0185 56.8435 70.0271 56.8648C70.7933 58.7829 71.5539 60.6767 72.3087 62.5462C72.7597 63.663 73.285 64.7712 74.0596 65.6875C75.1054 66.9245 76.6143 67.3045 78.1762 67.3051C78.966 67.3051 79.7587 67.3053 80.5542 67.3057C80.5653 67.3057 80.576 67.3102 80.5839 67.3181C80.5918 67.326 80.5962 67.3368 80.5962 67.348V71.6865C80.5962 71.6934 80.5934 71.7001 80.5884 71.7051C80.5833 71.71 80.5765 71.7128 80.5694 71.7128L58.2117 71.714L58.6157 71.6932C58.6332 71.692 58.6474 71.6844 58.6584 71.6705C58.6795 71.6435 58.7055 71.6205 58.7364 71.6012C58.743 71.5972 58.7484 71.5914 58.7519 71.5845C58.7555 71.5776 58.7571 71.5698 58.7565 71.562C58.7394 71.2096 58.7675 70.8412 58.765 70.4979C58.7447 67.7671 58.7437 65.0364 58.762 62.3059C58.7624 62.2037 58.7626 62.1016 58.7626 61.9994C58.7585 54.4908 58.7573 46.9822 58.7589 39.4736C58.7593 38.3441 58.7577 37.251 58.754 36.1943C58.7484 34.4151 58.7453 32.5405 58.7449 30.5705C58.7449 30.2694 58.7498 30.004 58.7595 29.7743C58.762 29.7081 58.7851 29.6873 58.8144 29.6358C58.8247 29.6174 58.8294 29.5965 58.8278 29.5757C58.8225 29.5091 58.8333 29.4476 58.8601 29.3912C58.8707 29.3692 58.8688 29.3481 58.8546 29.3281C58.8461 29.3158 58.8345 29.3085 58.8199 29.306C58.8158 29.3053 58.812 29.3036 58.8087 29.3012C58.8054 29.2987 58.8027 29.2955 58.8008 29.2919C58.7989 29.2882 58.7979 29.2841 58.7978 29.28C58.7978 29.2759 58.7986 29.2718 58.8004 29.268C58.8142 29.2382 58.8193 29.2061 58.8156 29.1718C58.8144 29.1595 58.8176 29.1487 58.8254 29.1393C58.8343 29.1287 58.8453 29.1242 58.8583 29.1258Z" fill="#76777A"/>
<path d="M19.1023 56.805L20.5826 53.1292L27.4708 36.0433C27.4726 36.0388 27.4755 36.035 27.4793 36.032C27.483 36.0291 27.4875 36.0272 27.4922 36.0266C27.4969 36.026 27.5017 36.0266 27.5061 36.0285C27.5105 36.0303 27.5143 36.0333 27.5171 36.0371L30.6697 40.1801C30.6892 40.2058 30.6928 40.2338 30.6806 40.264C28.6037 45.3781 26.535 50.4874 24.4743 55.592C24.0916 56.5392 23.7694 57.5265 23.5078 58.5538C23.3936 59.0012 23.3158 59.4203 23.2744 59.8109C23.1826 60.6723 23.2632 61.5497 23.5163 62.4429C24.0526 64.3339 25.5432 65.8098 27.3221 66.5625C28.6123 67.1087 30.0353 67.3042 31.4461 67.3054C32.1441 67.3067 32.8347 67.3069 33.5181 67.306C33.5258 67.306 33.5333 67.3091 33.5388 67.3147C33.5443 67.3202 33.5473 67.3277 33.5473 67.3355V71.6837C33.5474 71.6876 33.5467 71.6914 33.5453 71.6949C33.5439 71.6985 33.5418 71.7018 33.5392 71.7045C33.5365 71.7072 33.5333 71.7094 33.5298 71.7109C33.5263 71.7124 33.5225 71.7131 33.5187 71.7131L7.98651 71.7144C7.95888 71.7144 7.94507 71.7003 7.94507 71.6721V67.3342C7.94507 67.313 7.95583 67.3024 7.97737 67.3024C8.49456 67.3114 9.02496 67.3101 9.56856 67.2987C10.932 67.2705 12.1551 66.8684 13.2379 66.0924C13.6364 65.8068 14.0216 65.4715 14.3671 65.1332C15.7915 63.7369 16.9045 62.1046 17.7061 60.2363C17.9141 59.7509 18.3795 58.6071 19.1023 56.805Z" fill="#A4A6A9"/>
<path d="M52.0924 67.3052L52.4172 67.3095C52.4256 67.3095 52.4339 67.3113 52.4417 67.3146C52.4494 67.3178 52.4564 67.3226 52.4623 67.3286C52.4682 67.3345 52.4728 67.3416 52.476 67.3494C52.4791 67.3571 52.4807 67.3655 52.4806 67.3738C52.4729 68.4514 52.4761 69.5271 52.4904 70.601C52.4946 70.894 52.4635 71.1974 52.4849 71.5057C52.4885 71.5568 52.4784 71.5989 52.4544 71.632C52.4442 71.6459 52.4473 71.6551 52.4635 71.6596C52.4879 71.6661 52.5121 71.6681 52.5361 71.6657C52.5458 71.6649 52.5501 71.6694 52.5489 71.6792C52.5485 71.6816 52.5476 71.6835 52.5464 71.6847C52.5448 71.6863 52.543 71.6871 52.5409 71.6871C52.1347 71.6831 51.7292 71.6912 51.3245 71.7116L49.0142 71.7123C49.0068 71.7123 48.9997 71.7093 48.9944 71.704C48.9892 71.6987 48.9862 71.6915 48.9862 71.6841L48.9856 67.3315C48.9856 67.325 48.9882 67.3188 48.9927 67.3142C48.9973 67.3096 49.0035 67.307 49.01 67.307L52.0924 67.3052Z" fill="#848588"/>
<path d="M14.2817 81.3724C13.71 80.1379 13.8539 78.3831 14.8521 77.3374C15.3969 76.7665 16.1101 76.4527 16.9918 76.3959C18.5104 76.2978 19.842 76.9868 20.3612 78.4768C21.009 80.3347 20.2259 82.648 18.1362 83.1193C17.6381 83.2317 17.1447 83.2484 16.656 83.1696C15.5448 82.9902 14.7534 82.3911 14.2817 81.3724ZM15.4024 77.5016C14.9795 77.8665 14.6971 78.3469 14.5553 78.9427C14.1787 80.5222 14.899 82.3384 16.631 82.6725C18.0796 82.9514 19.4026 82.3225 19.906 80.879C20.4545 79.3055 19.761 77.3527 18.0284 76.9537C17.1234 76.7446 16.0983 76.9003 15.4024 77.5016Z" fill="#BA2E2E"/>
<path d="M38.8341 78.5681C39.1333 79.4856 39.079 80.5957 38.6525 81.455C38.0016 82.7649 36.7913 83.3068 35.3512 83.2013C34.1062 83.11 33.1019 82.3708 32.6485 81.1945C32.1829 79.987 32.3243 78.451 33.2061 77.4335C33.9807 76.5398 35.1654 76.2658 36.322 76.4332C37.5342 76.6085 38.4477 77.3808 38.8341 78.5681ZM38.3807 78.8157C37.9602 77.3967 36.7523 76.7409 35.3214 76.8898C34.1671 77.0106 33.3085 77.7436 33.0159 78.8531C32.6515 80.2371 33.1092 81.8124 34.4487 82.4695C35.0319 82.7557 35.8351 82.8121 36.4652 82.646C37.3875 82.4029 38.0095 81.8261 38.3313 80.9156C38.5746 80.2271 38.5911 79.5271 38.3807 78.8157Z" fill="#BA2E2E"/>
<path d="M68.4059 82.4365C67.7574 82.9718 66.9362 83.2135 65.942 83.1616C64.8932 83.1071 63.9528 82.6412 63.3971 81.7377C62.8017 80.7693 62.7261 79.4686 63.1106 78.4401C63.6689 76.9482 65.0224 76.2972 66.5502 76.4198C67.4156 76.4893 68.1121 76.8039 68.6399 77.3638C69.7892 78.5835 69.7972 80.7178 68.777 82.0179C68.77 82.0267 68.7665 82.0379 68.7672 82.0492C68.7678 82.0605 68.7726 82.0712 68.7807 82.0792L69.5564 82.8312C69.5808 82.8549 69.581 82.8791 69.5571 82.9036L69.2944 83.1671C69.2708 83.1908 69.2471 83.191 69.2231 83.1677L68.4674 82.4383C68.4475 82.4195 68.427 82.4189 68.4059 82.4365ZM66.3966 82.6713C68.2651 82.5934 69.217 81.0083 68.9708 79.2486C68.8581 78.4425 68.4272 77.6929 67.7172 77.2773C66.9634 76.836 65.9097 76.7723 65.0931 77.0996C64.7254 77.2467 64.4042 77.4669 64.1296 77.7603C63.4013 78.5369 63.2179 79.7224 63.511 80.7288C63.7946 81.7014 64.4134 82.3184 65.3673 82.5799C65.6994 82.6713 66.0553 82.686 66.3966 82.6713Z" fill="#BA2E2E"/>
<path d="M82.915 81.5613C83.3543 82.3746 84.3812 82.7645 85.2649 82.7363C86.0742 82.7111 87.1681 82.4482 87.2254 81.4276C87.2583 80.8417 86.9304 80.4917 86.4203 80.2857C86.1445 80.1741 85.8668 80.0918 85.5872 80.0387C85.0721 79.9414 84.5945 79.8395 84.1545 79.7328C83.3428 79.5361 82.6188 79.1217 82.6377 78.1802C82.673 76.4327 84.9224 76.2096 86.168 76.5014C86.7141 76.6293 87.1709 76.9646 87.5386 77.5072C87.5403 77.5096 87.5414 77.5124 87.542 77.5153C87.5425 77.5182 87.5425 77.5211 87.5419 77.524C87.5413 77.5269 87.54 77.5296 87.5383 77.532C87.5366 77.5344 87.5344 77.5364 87.5319 77.5379L87.1443 77.7677C87.1399 77.7702 87.1347 77.7709 87.1299 77.7698C87.125 77.7686 87.1208 77.7657 87.1181 77.7616C86.5952 76.939 85.6421 76.8036 84.7249 76.9047C84.0192 76.9825 83.2312 77.3184 83.1618 78.1006C83.0892 78.9201 83.8632 79.1793 84.5214 79.3222C85.21 79.4723 85.9139 79.5679 86.5611 79.7947C87.4649 80.1116 87.9055 80.8153 87.6964 81.7758C87.5575 82.4133 87.0444 82.8276 86.4429 83.017C85.0826 83.4448 83.1947 83.2003 82.4487 81.7856C82.4427 81.7742 82.4453 81.7656 82.4567 81.7598L82.8778 81.549C82.8843 81.5458 82.8919 81.5452 82.8988 81.5475C82.9058 81.5498 82.9116 81.5547 82.915 81.5613Z" fill="#BA2E2E"/>
<path d="M5.16246 81.483H1.27193C1.26803 81.483 1.26423 81.4842 1.26098 81.4864C1.25774 81.4885 1.25519 81.4916 1.25365 81.4952L0.554649 83.087C0.553113 83.0907 0.550566 83.0937 0.54732 83.0959C0.544074 83.0981 0.540268 83.0993 0.536367 83.0993L0.0250649 83.1011C0.0216743 83.1012 0.0183358 83.1003 0.0153595 83.0987C0.0123833 83.097 0.00986604 83.0947 0.00804178 83.0918C0.00621751 83.0889 0.00514546 83.0856 0.00492527 83.0822C0.00470508 83.0788 0.00534391 83.0754 0.00678237 83.0723L2.93626 76.5028C2.93788 76.4993 2.94047 76.4963 2.94371 76.4943C2.94695 76.4922 2.9507 76.4911 2.95454 76.4911L3.48717 76.4868C3.49118 76.4867 3.49511 76.4879 3.49848 76.49C3.50184 76.4922 3.50449 76.4954 3.50606 76.4991L6.43797 83.0699C6.43928 83.0729 6.43981 83.0763 6.43953 83.0796C6.43924 83.0829 6.43814 83.0861 6.43634 83.0889C6.43453 83.0917 6.43206 83.094 6.42916 83.0956C6.42625 83.0972 6.423 83.098 6.41969 83.0981L5.90961 83.1018C5.9056 83.1018 5.90167 83.1007 5.8983 83.0985C5.89493 83.0963 5.89229 83.0932 5.89072 83.0895L5.18074 81.4952C5.17921 81.4916 5.17666 81.4885 5.17341 81.4864C5.17017 81.4842 5.16636 81.483 5.16246 81.483ZM4.94246 81.0012C4.94582 81.0013 4.94915 81.0005 4.95214 80.9989C4.95512 80.9974 4.95767 80.9951 4.95955 80.9923C4.96143 80.9895 4.96258 80.9862 4.96289 80.9829C4.96321 80.9795 4.96268 80.9761 4.96135 80.973L3.23548 77.0403C3.23388 77.0368 3.2313 77.0338 3.22806 77.0317C3.22482 77.0296 3.22105 77.0285 3.2172 77.0285C3.21335 77.0285 3.20958 77.0296 3.20634 77.0317C3.2031 77.0338 3.20052 77.0368 3.19892 77.0403L1.47365 80.973C1.47233 80.9761 1.4718 80.9795 1.47211 80.9829C1.47243 80.9862 1.47358 80.9895 1.47546 80.9923C1.47734 80.9951 1.47989 80.9974 1.48287 80.9989C1.48586 81.0005 1.48918 81.0013 1.49254 81.0012H4.94246Z" fill="#BA2E2E"/>
<path d="M7.427 76.5383C7.427 76.524 7.43265 76.5103 7.44271 76.5002C7.45277 76.4901 7.46641 76.4844 7.48063 76.4844H9.81531C10.2336 76.4844 10.6478 76.5673 11.0343 76.7284C11.4208 76.8895 11.772 77.1256 12.0678 77.4233C12.3635 77.721 12.5982 78.0744 12.7583 78.4633C12.9183 78.8523 13.0007 79.2691 13.0007 79.6901V79.8997C13.0007 80.7499 12.6651 81.5653 12.0678 82.1665C11.4704 82.7677 10.6601 83.1054 9.81531 83.1054H7.48063C7.46641 83.1054 7.45277 83.0997 7.44271 83.0896C7.43265 83.0795 7.427 83.0658 7.427 83.0515V76.5383ZM7.94257 77.0176L7.96207 82.5758C7.96207 82.5862 7.96618 82.5962 7.97349 82.6036C7.98081 82.6109 7.99073 82.6151 8.00107 82.6151L9.76595 82.6089C10.1232 82.6077 10.4768 82.5372 10.8064 82.4013C11.1361 82.2655 11.4353 82.067 11.6871 81.8173C11.9388 81.5675 12.1382 81.2713 12.2738 80.9457C12.4094 80.62 12.4785 80.2713 12.4773 79.9193L12.476 79.6423C12.4735 78.9316 12.1845 78.2511 11.6726 77.7504C11.1607 77.2497 10.4679 76.9698 9.74645 76.9723L7.98157 76.9784C7.97123 76.9784 7.96131 76.9825 7.95399 76.9899C7.94668 76.9973 7.94257 77.0072 7.94257 77.0176Z" fill="#BA2E2E"/>
<path d="M22.3242 82.6172H25.9631C25.9708 82.6172 25.9783 82.6203 25.9838 82.6258C25.9892 82.6313 25.9923 82.6388 25.9923 82.6466V83.0707C25.9923 83.0785 25.9892 83.086 25.9838 83.0915C25.9783 83.0971 25.9708 83.1002 25.9631 83.1002L21.8032 83.0995C21.7954 83.0995 21.788 83.0964 21.7825 83.0909C21.777 83.0854 21.7739 83.0779 21.7739 83.0701V76.5177C21.7739 76.5138 21.7747 76.5099 21.7762 76.5063C21.7777 76.5027 21.7799 76.4994 21.7827 76.4967C21.7855 76.4939 21.7888 76.4918 21.7924 76.4903C21.796 76.4889 21.7999 76.4882 21.8038 76.4883L22.2645 76.4926C22.2722 76.4927 22.2794 76.4959 22.2848 76.5014C22.2902 76.5069 22.2932 76.5143 22.2931 76.522L22.295 82.5877C22.295 82.5955 22.2981 82.603 22.3035 82.6085C22.309 82.614 22.3165 82.6172 22.3242 82.6172Z" fill="#BA2E2E"/>
<path d="M27.4787 79.6323L31.2059 79.625C31.2089 79.625 31.2119 79.6256 31.2147 79.6268C31.2175 79.6279 31.2201 79.6296 31.2222 79.6318C31.2244 79.634 31.2261 79.6365 31.2273 79.6394C31.2284 79.6422 31.229 79.6452 31.229 79.6483L31.2351 80.0994C31.2351 80.1056 31.2327 80.1115 31.2283 80.1159C31.224 80.1202 31.2181 80.1227 31.212 80.1227L27.4787 80.1251C27.4725 80.1251 27.4666 80.1276 27.4623 80.132C27.4579 80.1363 27.4555 80.1423 27.4555 80.1484L27.4549 83.0881C27.4549 83.0943 27.4525 83.1002 27.4481 83.1046C27.4438 83.109 27.4379 83.1114 27.4317 83.1114L26.9582 83.1084C26.9521 83.1084 26.9462 83.1059 26.9418 83.1015C26.9375 83.0972 26.9351 83.0913 26.9351 83.0851V76.5112C26.9351 76.505 26.9375 76.4991 26.9418 76.4947C26.9462 76.4904 26.9521 76.4879 26.9582 76.4879L31.343 76.4873C31.346 76.4873 31.349 76.4879 31.3518 76.4891C31.3547 76.4902 31.3572 76.492 31.3594 76.4941C31.3615 76.4963 31.3632 76.4989 31.3644 76.5017C31.3655 76.5045 31.3661 76.5075 31.3661 76.5106L31.368 76.9918C31.368 76.9979 31.3655 77.0039 31.3612 77.0082C31.3568 77.0126 31.351 77.0151 31.3448 77.0151L27.4781 77.0157C27.4719 77.0157 27.466 77.0181 27.4617 77.0225C27.4573 77.0269 27.4549 77.0328 27.4549 77.039L27.4555 79.6091C27.4555 79.6152 27.4579 79.6212 27.4623 79.6255C27.4666 79.6299 27.4725 79.6323 27.4787 79.6323Z" fill="#BA2E2E"/>
<path d="M43.3243 77.2937L43.3237 83.0873C43.3237 83.0959 43.3194 83.1002 43.3109 83.1002L42.8087 83.0989C42.8051 83.0989 42.8032 83.0969 42.8032 83.0928V76.5257C42.8032 76.4995 42.8164 76.4865 42.8428 76.4865L43.3755 76.4871C43.399 76.4871 43.4173 76.4971 43.4303 76.5171L45.9058 80.3076C45.918 80.3264 45.9301 80.3264 45.9423 80.3076L48.3867 76.5245C48.4017 76.5008 48.4233 76.4889 48.4513 76.4889L49.0041 76.4859C49.0252 76.4854 49.0357 76.4961 49.0357 76.5177V83.0867C49.0357 83.0949 49.0315 83.0989 49.0229 83.0989L48.5403 83.1002C48.5301 83.1002 48.5251 83.0951 48.5251 83.0848V77.306C48.5251 77.2712 48.5157 77.2684 48.497 77.2974L46.0642 81.0407C46.05 81.0625 46.0305 81.0805 46.0077 81.0929C45.9849 81.1054 45.9593 81.1119 45.9334 81.112C45.9075 81.1121 45.8819 81.1056 45.8591 81.0933C45.8363 81.0809 45.817 81.0631 45.8028 81.0413L43.3462 77.2876C43.3316 77.2651 43.3243 77.2672 43.3243 77.2937Z" fill="#BA2E2E"/>
<path d="M54.9628 81.4836L51.0753 81.483C51.0712 81.483 51.0671 81.4842 51.0637 81.4865C51.0602 81.4888 51.0575 81.492 51.0558 81.4958L50.3568 83.0864C50.3552 83.0902 50.3524 83.0935 50.349 83.0958C50.3455 83.0981 50.3415 83.0993 50.3373 83.0993L49.8284 83.1011C49.8248 83.1012 49.8213 83.1003 49.8181 83.0986C49.8149 83.0968 49.8122 83.0943 49.8102 83.0912C49.8083 83.0882 49.8072 83.0847 49.8069 83.081C49.8067 83.0774 49.8074 83.0738 49.8089 83.0705L52.7384 76.5034C52.74 76.4996 52.7427 76.4965 52.746 76.4942C52.7494 76.4919 52.7533 76.4906 52.7573 76.4905L53.2887 76.4868C53.2929 76.4868 53.2969 76.488 53.3004 76.4903C53.3038 76.4926 53.3066 76.4959 53.3082 76.4997L56.2377 83.068C56.2391 83.0713 56.2397 83.0749 56.2394 83.0784C56.2391 83.082 56.2379 83.0854 56.236 83.0883C56.2341 83.0913 56.2314 83.0938 56.2283 83.0955C56.2252 83.0972 56.2217 83.0981 56.2182 83.0981L55.7105 83.1024C55.7064 83.1024 55.7024 83.1011 55.6989 83.0988C55.6954 83.0966 55.6927 83.0933 55.6911 83.0895L54.9823 81.4964C54.9806 81.4926 54.9779 81.4894 54.9744 81.4871C54.971 81.4848 54.9669 81.4836 54.9628 81.4836ZM51.2752 80.9742C51.2739 80.9771 51.2733 80.9804 51.2735 80.9836C51.2738 80.9868 51.2748 80.9899 51.2766 80.9926C51.2783 80.9953 51.2808 80.9975 51.2836 80.999C51.2865 81.0005 51.2897 81.0013 51.2929 81.0012H54.7446C54.7478 81.0013 54.751 81.0005 54.7539 80.999C54.7567 80.9975 54.7592 80.9953 54.7609 80.9926C54.7627 80.9899 54.7637 80.9868 54.764 80.9836C54.7642 80.9804 54.7636 80.9771 54.7623 80.9742L53.0358 77.0372C53.0343 77.034 53.0319 77.0313 53.0288 77.0293C53.0258 77.0274 53.0223 77.0264 53.0187 77.0264C53.0152 77.0264 53.0117 77.0274 53.0087 77.0293C53.0056 77.0313 53.0032 77.034 53.0017 77.0372L51.2752 80.9742Z" fill="#BA2E2E"/>
<path d="M57.6059 80.6503L57.6071 83.0837C57.6071 83.0939 57.6018 83.099 57.5913 83.099L57.1019 83.1002C57.0998 83.1003 57.0976 83.1 57.0957 83.0992C57.0937 83.0984 57.0918 83.0973 57.0903 83.0958C57.0888 83.0943 57.0875 83.0925 57.0867 83.0905C57.0859 83.0886 57.0854 83.0864 57.0854 83.0843L57.0861 76.5264C57.0861 76.5035 57.0972 76.492 57.1196 76.492C58.6606 76.4798 59.6592 76.4822 60.1155 76.4994C60.9163 76.5296 61.5052 76.8751 61.8822 77.5359C62.1704 78.041 62.2204 78.7232 62.0321 79.2742C61.7378 80.1372 60.9674 80.5737 60.0661 80.5743C60.0623 80.5743 60.0585 80.5755 60.0553 80.5777C60.0521 80.5798 60.0496 80.5828 60.048 80.5864C60.0465 80.59 60.046 80.5939 60.0466 80.5977C60.0472 80.6015 60.0489 80.6051 60.0515 80.608L62.3106 83.0714C62.3128 83.0737 62.3142 83.0765 62.3148 83.0796C62.3153 83.0827 62.315 83.0859 62.3137 83.0888C62.3125 83.0917 62.3104 83.0941 62.3078 83.0958C62.3052 83.0975 62.3021 83.0984 62.299 83.0984L61.6957 83.1008C61.6673 83.1008 61.6433 83.0902 61.6238 83.069L59.4116 80.6319C59.3986 80.6176 59.3824 80.6102 59.3628 80.6098L57.6492 80.6074C57.6203 80.6074 57.6059 80.6217 57.6059 80.6503ZM57.6065 76.994V80.0956C57.6065 80.1012 57.6087 80.1067 57.6128 80.1107C57.6168 80.1148 57.6222 80.117 57.6278 80.117H60.0594C60.4627 80.117 60.8494 79.962 61.1346 79.6861C61.4197 79.4103 61.5799 79.0361 61.5799 78.6459V78.4437C61.5799 78.0535 61.4197 77.6793 61.1346 77.4035C60.8494 77.1276 60.4627 76.9726 60.0594 76.9726H57.6278C57.625 76.9726 57.6223 76.9731 57.6197 76.9742C57.6171 76.9753 57.6147 76.9769 57.6128 76.9789C57.6108 76.9809 57.6092 76.9832 57.6081 76.9858C57.6071 76.9884 57.6065 76.9912 57.6065 76.994Z" fill="#BA2E2E"/>
<path d="M72.3422 83.1116C71.1776 82.8162 70.5042 81.8391 70.4981 80.6426C70.4912 79.2929 70.4906 77.9128 70.4963 76.5022C70.4963 76.4879 70.5034 76.4813 70.5176 76.4826C70.6228 76.4887 70.7797 76.4891 70.9881 76.4838C70.997 76.4834 71.0017 76.4879 71.0021 76.4973C71.0094 77.7506 71.0086 78.9885 70.9997 80.2111C70.996 80.7231 71.0275 81.0862 71.0941 81.3003C71.307 81.9832 71.7474 82.4275 72.4153 82.6335C72.8631 82.7716 73.3199 82.7512 73.7859 82.5722C74.6025 82.2578 75.0297 81.4775 75.031 80.6053C75.0322 79.2682 75.0326 77.9017 75.0322 76.5059C75.0322 76.4928 75.0385 76.4862 75.0511 76.4862L75.5203 76.4875C75.526 76.4875 75.5289 76.4903 75.5289 76.4961C75.5345 77.9594 75.5331 79.3892 75.5246 80.7855C75.5226 81.0801 75.4608 81.3784 75.3393 81.6804C74.8573 82.8793 73.569 83.423 72.3422 83.1116Z" fill="#BA2E2E"/>
<path d="M77.4132 77.0108V79.5085C77.4132 79.5162 77.4162 79.5235 77.4216 79.5289C77.4269 79.5343 77.4342 79.5373 77.4418 79.5373L81.2336 79.5379C81.2412 79.5379 81.2485 79.541 81.2539 79.5464C81.2592 79.5518 81.2622 79.5591 81.2622 79.5668L81.2635 79.9774C81.2635 79.9851 81.2605 79.9924 81.2551 79.9978C81.2497 80.0032 81.2424 80.0062 81.2348 80.0062L77.4424 80.0118C77.4348 80.0118 77.4275 80.0148 77.4222 80.0202C77.4168 80.0256 77.4138 80.0329 77.4138 80.0406L77.4132 82.5794C77.4132 82.587 77.4162 82.5944 77.4216 82.5998C77.4269 82.6052 77.4342 82.6082 77.4418 82.6082H81.5334C81.541 82.6082 81.5483 82.6112 81.5537 82.6166C81.5591 82.622 81.5621 82.6294 81.5621 82.637L81.5627 83.0716C81.5627 83.0792 81.5597 83.0866 81.5543 83.092C81.5489 83.0974 81.5417 83.1004 81.5341 83.1004H76.9342C76.9266 83.1004 76.9193 83.0974 76.9139 83.092C76.9085 83.0866 76.9055 83.0792 76.9055 83.0716V76.5161C76.9055 76.5085 76.9085 76.5011 76.9139 76.4957C76.9193 76.4903 76.9266 76.4873 76.9342 76.4873L81.4189 76.4891C81.4265 76.4891 81.4338 76.4922 81.4391 76.4976C81.4445 76.503 81.4475 76.5103 81.4475 76.518V76.9568C81.4475 76.9645 81.4445 76.9718 81.4391 76.9772C81.4338 76.9826 81.4265 76.9856 81.4189 76.9856L77.4418 76.982C77.4342 76.982 77.4269 76.985 77.4216 76.9904C77.4162 76.9958 77.4132 77.0031 77.4132 77.0108Z" fill="#BA2E2E"/>
<path d="M76.8378 85.0998L76.2851 85.6061C76.28 85.6106 76.2735 85.613 76.2668 85.6128L75.9791 85.6135C75.974 85.6136 75.9689 85.6122 75.9645 85.6095C75.9601 85.6068 75.9566 85.6029 75.9544 85.5983C75.9521 85.5936 75.9512 85.5884 75.9518 85.5833C75.9525 85.5782 75.9545 85.5733 75.9578 85.5693L76.3533 85.0704C76.3558 85.0673 76.359 85.0648 76.3626 85.0631C76.3662 85.0615 76.3701 85.0606 76.374 85.0606L76.8189 85.0532C76.8243 85.0531 76.8296 85.0547 76.8342 85.0577C76.8387 85.0607 76.8422 85.065 76.8442 85.07C76.8463 85.0751 76.8468 85.0806 76.8456 85.0859C76.8445 85.0912 76.8417 85.0961 76.8378 85.0998Z" fill="black"/>
<path d="M14.5274 88.9998H14.241C13.6194 88.9103 13.221 88.5677 13.0459 87.9719C12.8948 87.4589 12.9502 86.7822 13.258 86.3347C13.5631 85.8913 13.9998 85.6887 14.5682 85.7267C15.3178 85.7763 15.7706 86.385 15.8395 87.096C15.9303 88.0344 15.522 88.865 14.5274 88.9998ZM14.4081 88.6658C14.5406 88.666 14.6718 88.6324 14.7943 88.5669C14.9167 88.5014 15.0281 88.4053 15.122 88.2841C15.2158 88.1628 15.2904 88.0188 15.3413 87.8603C15.3923 87.7018 15.4187 87.5318 15.419 87.3601C15.4193 87.1884 15.3935 87.0184 15.3431 86.8596C15.2927 86.7009 15.2186 86.5567 15.1252 86.4351C15.0317 86.3135 14.9207 86.217 14.7985 86.1511C14.6762 86.0852 14.5451 86.0512 14.4127 86.0509C14.2802 86.0507 14.149 86.0843 14.0265 86.1498C13.904 86.2152 13.7927 86.3114 13.6988 86.4326C13.6049 86.5538 13.5304 86.6978 13.4794 86.8564C13.4285 87.0149 13.4021 87.1849 13.4018 87.3566C13.4015 87.5283 13.4273 87.6983 13.4777 87.857C13.5281 88.0157 13.6022 88.16 13.6956 88.2816C13.7891 88.4031 13.9001 88.4996 14.0223 88.5656C14.1446 88.6315 14.2757 88.6655 14.4081 88.6658Z" fill="black"/>
<path d="M19.8383 88.8644C19.5482 88.976 19.2051 89.0079 18.9028 88.9852C17.9119 88.911 17.3903 88.1301 17.4987 87.1843C17.6407 85.9407 18.7407 85.4816 19.8389 85.8316C19.8755 85.843 19.8885 85.8673 19.8779 85.9045L19.8078 86.1521C19.7973 86.1889 19.7743 86.2004 19.7389 86.1865C19.0741 85.9272 18.238 86.1 18.0033 86.8644C17.7998 87.5282 17.9869 88.4004 18.759 88.5923C19.0893 88.6744 19.4206 88.6515 19.753 88.5236C19.7847 88.5114 19.8046 88.5218 19.8127 88.5549L19.8724 88.7988C19.8757 88.812 19.874 88.8259 19.8677 88.838C19.8614 88.85 19.851 88.8595 19.8383 88.8644Z" fill="black"/>
<path d="M27.859 86.1879C27.4763 86.0375 27.1072 86.0328 26.7517 86.1738C26.0393 86.4564 25.9022 87.3942 26.185 88.0139C26.4854 88.6734 27.2764 88.7568 27.8889 88.5183C27.9084 88.5106 27.9208 88.5167 27.9261 88.5367L27.9992 88.8046C28.0026 88.817 28.0011 88.8303 27.995 88.8416C27.9888 88.8529 27.9785 88.8614 27.9663 88.8652C27.6266 88.9748 27.3104 89.0148 27.0174 88.9854C26.1911 88.902 25.7267 88.445 25.6243 87.6142C25.5699 87.1725 25.6552 86.773 25.8803 86.4159C26.3209 85.7171 27.21 85.5939 27.9645 85.8324C28.0014 85.8438 28.0142 85.8683 28.0029 85.9059L27.9255 86.156C27.9149 86.1903 27.8928 86.201 27.859 86.1879Z" fill="black"/>
<path d="M70.7438 88.5209C70.7536 88.5115 70.7662 88.5098 70.7816 88.5159C70.7863 88.5179 70.7906 88.5209 70.794 88.5248C70.7974 88.5288 70.7998 88.5335 70.8011 88.5386L70.8621 88.801C70.8698 88.8345 70.8574 88.8567 70.8249 88.8678C70.625 88.9352 70.4182 88.9757 70.2045 88.9891C69.3019 89.0455 68.6224 88.5956 68.4914 87.6523C68.3799 86.85 68.7681 86.0237 69.5914 85.7926C69.965 85.6884 70.4671 85.6829 70.845 85.8459C70.8673 85.8558 70.8753 85.8723 70.8688 85.8956L70.7907 86.1726C70.7892 86.1783 70.7864 86.1836 70.7826 86.1881C70.7788 86.1926 70.774 86.1963 70.7687 86.1988C70.7634 86.2013 70.7576 86.2026 70.7517 86.2026C70.7459 86.2027 70.74 86.2014 70.7347 86.199C70.5352 86.1079 70.3384 86.0658 70.1442 86.0727C69.4153 86.0977 69.0094 86.4738 68.9265 87.2012C68.7967 88.3431 69.7109 88.8837 70.7219 88.5343C70.73 88.5315 70.7373 88.527 70.7438 88.5209Z" fill="black"/>
<path d="M7.30992 87.9611C6.94366 89.0368 5.79918 89.0111 4.87774 88.9492C4.84686 88.9472 4.83142 88.9306 4.83142 88.8995L4.83081 85.855C4.83081 85.8252 4.84544 85.8082 4.87469 85.8042C5.257 85.749 5.64174 85.7371 6.02893 85.7686C6.39295 85.798 6.69218 85.9096 6.9266 86.1033C7.46289 86.5458 7.52078 87.342 7.30992 87.9611ZM6.93818 87.7123C7.03873 87.2556 6.99181 86.6966 6.6292 86.376C6.28427 86.0714 5.72239 86.0383 5.26715 86.1217C5.24968 86.1249 5.24095 86.1356 5.24095 86.1535V88.5704C5.24095 88.5982 5.25476 88.6137 5.28239 88.617C6.00272 88.696 6.75657 88.5385 6.93818 87.7123Z" fill="black"/>
<path d="M39.1075 87.7158V88.9239C39.1075 88.9431 39.0978 88.9527 39.0783 88.9527H38.7138C38.6951 88.9527 38.6858 88.9431 38.6858 88.9239V85.8383C38.6858 85.8175 38.6959 85.8054 38.7163 85.8022C39.0189 85.7576 39.3283 85.7427 39.6444 85.7574C40.1728 85.7819 40.6256 86.0657 40.6353 86.645C40.6506 87.519 39.8754 87.793 39.1422 87.6858C39.1191 87.6825 39.1075 87.6925 39.1075 87.7158ZM39.1051 86.1595L39.1087 87.2861C39.1087 87.2954 39.1106 87.3047 39.1141 87.3132C39.1177 87.3218 39.1229 87.3296 39.1295 87.3362C39.136 87.3427 39.1438 87.3479 39.1524 87.3514C39.161 87.3549 39.1702 87.3567 39.1794 87.3566L39.5731 87.3554C39.7449 87.3547 39.9094 87.2909 40.0304 87.178C40.1514 87.0651 40.2191 86.9124 40.2185 86.7535V86.6848C40.2182 86.6061 40.2011 86.5282 40.1683 86.4556C40.1354 86.383 40.0875 86.317 40.0271 86.2616C39.9667 86.2062 39.8951 86.1623 39.8164 86.1325C39.7376 86.1026 39.6533 86.0875 39.5682 86.0878L39.1745 86.089C39.1561 86.0892 39.1384 86.0967 39.1254 86.1099C39.1124 86.1231 39.1051 86.1409 39.1051 86.1595Z" fill="black"/>
<path d="M43.8953 87.4504C44.0915 87.5689 44.2156 87.7424 44.2676 87.9708C44.3424 88.2998 44.4243 88.6085 44.5132 88.897C44.5242 88.933 44.511 88.9509 44.4736 88.9509L44.1397 88.9497C44.1257 88.9498 44.112 88.9451 44.1009 88.9364C44.0897 88.9278 44.0817 88.9156 44.0781 88.9019C44.0005 88.615 43.9268 88.3284 43.8569 88.0419C43.7381 87.5553 43.3425 87.554 42.9318 87.581C42.9074 87.5826 42.8952 87.5957 42.8952 87.6202L42.8958 88.9093C42.8958 88.9362 42.8824 88.9497 42.8556 88.9497L42.5113 88.9509C42.4857 88.9509 42.4729 88.9381 42.4729 88.9123V85.8439C42.4729 85.8243 42.4824 85.8126 42.5015 85.809C42.7851 85.7591 43.0988 85.7411 43.4425 85.755C43.9404 85.7759 44.3816 85.988 44.4188 86.5353C44.4464 86.9394 44.2727 87.2284 43.8977 87.402C43.8668 87.4163 43.866 87.4325 43.8953 87.4504ZM42.8971 86.124L42.8946 87.2053C42.8945 87.2117 42.8957 87.218 42.8981 87.224C42.9005 87.2299 42.904 87.2353 42.9085 87.2399C42.913 87.2445 42.9183 87.2481 42.9242 87.2506C42.9301 87.253 42.9364 87.2543 42.9428 87.2543L43.3626 87.2549C43.4472 87.2551 43.5309 87.2409 43.6091 87.213C43.6872 87.1852 43.7582 87.1444 43.8181 87.0928C43.878 87.0412 43.9255 86.98 43.958 86.9125C43.9905 86.845 44.0073 86.7727 44.0074 86.6996V86.6346C44.0077 86.487 43.9402 86.3453 43.8197 86.2407C43.6993 86.1361 43.5357 86.0772 43.3651 86.0768L42.9452 86.0762C42.9325 86.0762 42.9204 86.0812 42.9114 86.0902C42.9024 86.0991 42.8972 86.1113 42.8971 86.124Z" fill="black"/>
<path d="M58.8587 87.1288C58.8819 87.4092 58.849 87.6803 58.76 87.9422C58.3882 89.0363 57.2511 89.0173 56.3126 88.9481C56.2878 88.946 56.2754 88.9327 56.2754 88.9082V85.8447C56.2754 85.8194 56.288 85.8053 56.3132 85.8024C57.4004 85.67 58.7393 85.6847 58.8587 87.1288ZM56.7209 88.6128C57.2895 88.6962 58.033 88.5883 58.2913 87.9759C58.5132 87.4488 58.4998 86.6838 57.9921 86.313C57.663 86.0727 57.1505 86.047 56.7221 86.1193C56.6981 86.123 56.6861 86.1371 56.6861 86.1616L56.6855 88.5723C56.6855 88.596 56.6973 88.6095 56.7209 88.6128Z" fill="black"/>
<path d="M80.6558 87.4101C80.6529 87.4114 80.6504 87.4134 80.6486 87.416C80.6468 87.4185 80.6457 87.4215 80.6455 87.4246C80.6453 87.4277 80.646 87.4308 80.6475 87.4334C80.649 87.4361 80.6513 87.4382 80.654 87.4396C80.8624 87.5528 80.9951 87.734 81.0519 87.9833C81.1308 88.3265 81.2159 88.6442 81.3073 88.9364C81.3078 88.9379 81.3079 88.9396 81.3076 88.9412C81.3073 88.9428 81.3067 88.9443 81.3058 88.9456C81.3048 88.9469 81.3036 88.948 81.3022 88.9487C81.3007 88.9494 81.2991 88.9498 81.2975 88.9499L80.8959 88.9511C80.8825 88.9511 80.8738 88.9446 80.8697 88.9315C80.7868 88.6442 80.7084 88.3465 80.6345 88.0384C80.5193 87.5585 80.1275 87.5566 79.7149 87.5812C79.6913 87.5824 79.6795 87.5948 79.6795 87.6185L79.6789 88.9241C79.6789 88.9433 79.6694 88.9529 79.6503 88.9529L79.2846 88.9517C79.2772 88.9517 79.2701 88.9487 79.2648 88.9433C79.2595 88.9379 79.2566 88.9305 79.2566 88.9229V85.8324C79.2566 85.8256 79.2591 85.819 79.2634 85.8138C79.2678 85.8086 79.2738 85.8052 79.2804 85.8042C79.5969 85.758 79.9154 85.7419 80.2359 85.7558C80.5638 85.7699 80.9349 85.8759 81.097 86.1812C81.3493 86.6568 81.1653 87.206 80.6558 87.4101ZM79.6801 86.1254L79.6777 87.2042C79.6776 87.2108 79.6788 87.2173 79.6813 87.2234C79.6837 87.2295 79.6873 87.235 79.6919 87.2397C79.6965 87.2444 79.702 87.2481 79.708 87.2506C79.7141 87.2532 79.7205 87.2545 79.7271 87.2545L80.1433 87.2551C80.2283 87.2552 80.3125 87.2408 80.3911 87.2126C80.4697 87.1844 80.5411 87.1429 80.6013 87.0906C80.6615 87.0383 80.7094 86.9762 80.742 86.9077C80.7747 86.8393 80.7916 86.7659 80.7917 86.6918V86.6427C80.792 86.493 80.7241 86.3493 80.603 86.2432C80.4818 86.1371 80.3174 86.0773 80.1457 86.077L79.7295 86.0764C79.7165 86.0764 79.704 86.0815 79.6948 86.0907C79.6856 86.0999 79.6803 86.1123 79.6801 86.1254Z" fill="black"/>
<path d="M1.17797 87.969L0.864734 88.9301C0.862805 88.9359 0.859114 88.9409 0.854188 88.9444C0.849262 88.9479 0.843354 88.9498 0.83731 88.9497L0.463737 88.9522C0.459167 88.9522 0.454653 88.9512 0.450572 88.9491C0.446491 88.947 0.442961 88.944 0.440277 88.9403C0.437592 88.9366 0.435832 88.9323 0.435142 88.9277C0.434453 88.9232 0.434854 88.9185 0.436313 88.9142L1.48878 85.7967C1.49071 85.791 1.4944 85.786 1.49932 85.7824C1.50425 85.7789 1.51016 85.777 1.5162 85.7771L1.97814 85.7759C1.98418 85.7758 1.99009 85.7777 1.99502 85.7812C1.99994 85.7847 2.00364 85.7897 2.00556 85.7955L3.06412 88.9136C3.06558 88.9179 3.06598 88.9226 3.06529 88.9271C3.06461 88.9316 3.06284 88.936 3.06016 88.9397C3.05748 88.9434 3.05395 88.9464 3.04987 88.9485C3.04578 88.9506 3.04127 88.9516 3.0367 88.9516L2.6485 88.9509C2.64246 88.951 2.63655 88.9491 2.63162 88.9456C2.6267 88.9421 2.62301 88.9371 2.62108 88.9313L2.29687 87.9702C2.29494 87.9645 2.29125 87.9595 2.28632 87.9559C2.28139 87.9524 2.27549 87.9506 2.26944 87.9506L1.2054 87.9494C1.19935 87.9493 1.19345 87.9512 1.18852 87.9547C1.1836 87.9582 1.1799 87.9632 1.17797 87.969ZM2.18961 87.5835C2.03665 87.125 1.86296 86.6696 1.74778 86.2013C1.73966 86.1682 1.73133 86.1682 1.72279 86.2013C1.59319 86.6851 1.44612 87.1452 1.28158 87.5816C1.27989 87.586 1.27929 87.5907 1.27983 87.5954C1.28037 87.6 1.28203 87.6045 1.28468 87.6084C1.28732 87.6122 1.29086 87.6154 1.29499 87.6176C1.29913 87.6197 1.30373 87.6209 1.30839 87.6209L2.1634 87.6202C2.18941 87.6202 2.19814 87.608 2.18961 87.5835Z" fill="black"/>
<path d="M10.1682 88.462C10.1722 88.4816 10.1773 88.482 10.1834 88.4632C10.4479 87.5981 10.7435 86.7073 11.0701 85.7907C11.0738 85.7809 11.0807 85.776 11.0908 85.776L11.4961 85.7785C11.4985 85.7784 11.5008 85.779 11.5029 85.78C11.505 85.7811 11.5068 85.7827 11.5082 85.7846C11.5096 85.7865 11.5105 85.7888 11.5108 85.7911C11.5111 85.7935 11.5109 85.7958 11.5101 85.7981L10.3998 88.9217C10.3967 88.9302 10.3911 88.9377 10.3835 88.9429C10.376 88.9482 10.367 88.9511 10.3577 88.9511L9.96524 88.9505C9.95656 88.9504 9.94813 88.9477 9.94113 88.9426C9.93413 88.9376 9.92893 88.9304 9.92624 88.9223C9.59187 87.8937 9.25344 86.8511 8.91095 85.7944C8.91014 85.792 8.91095 85.7905 8.91339 85.7901C8.95848 85.7774 9.10088 85.773 9.34059 85.7766C9.35034 85.7766 9.35664 85.7813 9.35948 85.7907C9.63169 86.6337 9.86022 87.3662 10.0451 87.9881C10.089 88.1348 10.13 88.2928 10.1682 88.462Z" fill="black"/>
<path d="M30.2028 85.7759H29.8432C29.8264 85.7759 29.8127 85.7896 29.8127 85.8065V88.9228C29.8127 88.9397 29.8264 88.9534 29.8432 88.9534H30.2028C30.2196 88.9534 30.2332 88.9397 30.2332 88.9228V85.8065C30.2332 85.7896 30.2196 85.7759 30.2028 85.7759Z" fill="black"/>
<path d="M32.7454 87.968L32.4297 88.9328C32.428 88.938 32.4247 88.9425 32.4204 88.9457C32.416 88.9489 32.4107 88.9506 32.4053 88.9506L32.0244 88.95C32.0204 88.95 32.0164 88.949 32.0128 88.9472C32.0092 88.9453 32.0061 88.9427 32.0037 88.9394C32.0013 88.9361 31.9997 88.9323 31.9991 88.9283C31.9985 88.9242 31.9988 88.9201 32 88.9163L33.0555 85.7939C33.0573 85.7888 33.0606 85.7845 33.065 85.7814C33.0694 85.7783 33.0746 85.7767 33.0799 85.7767L33.5443 85.7749C33.5497 85.7749 33.555 85.7766 33.5594 85.7798C33.5637 85.783 33.567 85.7875 33.5687 85.7927L34.6303 88.9181C34.6317 88.922 34.6321 88.9262 34.6315 88.9303C34.6309 88.9344 34.6294 88.9383 34.627 88.9416C34.6246 88.945 34.6214 88.9478 34.6178 88.9496C34.6141 88.9515 34.61 88.9525 34.6059 88.9524L34.2104 88.9494C34.2051 88.9494 34.1998 88.9478 34.1955 88.9447C34.1911 88.9416 34.1878 88.9373 34.186 88.9322L33.8606 87.9674C33.8588 87.9624 33.8555 87.958 33.8511 87.9549C33.8468 87.9518 33.8415 87.9502 33.8362 87.9503H32.7697C32.7643 87.9502 32.759 87.952 32.7547 87.9552C32.7503 87.9583 32.747 87.9629 32.7454 87.968ZM33.7564 87.5843C33.604 87.1338 33.4377 86.6845 33.3188 86.2352C33.3001 86.1633 33.2837 86.1639 33.2695 86.2371C33.1811 86.6943 32.9995 87.1442 32.8465 87.5954C32.8456 87.5983 32.8453 87.6014 32.8458 87.6044C32.8462 87.6075 32.8474 87.6104 32.8492 87.6129C32.851 87.6154 32.8533 87.6174 32.856 87.6189C32.8587 87.6203 32.8617 87.6211 32.8648 87.6211L33.7308 87.6205C33.7351 87.6205 33.7393 87.6196 33.7431 87.6176C33.7469 87.6156 33.7502 87.6128 33.7527 87.6092C33.7552 87.6057 33.7568 87.6016 33.7575 87.5973C33.7581 87.5929 33.7577 87.5885 33.7564 87.5843Z" fill="black"/>
<path d="M50.8875 88.4421C51.1431 87.595 51.4364 86.7113 51.7675 85.7911C51.7688 85.7874 51.7712 85.7841 51.7743 85.7818C51.7775 85.7795 51.7813 85.7783 51.7852 85.7782C51.9298 85.7774 52.0676 85.776 52.1984 85.7739C52.2081 85.7739 52.2114 85.7784 52.2081 85.7874C51.8295 86.8637 51.459 87.9082 51.0966 88.9208C51.0888 88.9412 51.0742 88.9514 51.0527 88.9514H50.6694C50.6442 88.9514 50.6277 88.9394 50.62 88.9153C50.2824 87.8769 49.9444 86.8351 49.6059 85.7899C49.6057 85.7893 49.6057 85.7888 49.6057 85.7882C49.6058 85.7877 49.606 85.7871 49.6063 85.7867C49.6066 85.7862 49.607 85.7858 49.6074 85.7855C49.6079 85.7852 49.6084 85.785 49.609 85.785C49.7495 85.7747 49.8926 85.7727 50.038 85.7788C50.0414 85.779 50.0446 85.7802 50.0472 85.7822C50.0499 85.7841 50.0517 85.7868 50.0526 85.7899C50.3578 86.7166 50.6298 87.6007 50.8686 88.4421C50.8747 88.4637 50.881 88.4637 50.8875 88.4421Z" fill="black"/>
<path d="M54.2334 85.7764H53.8824C53.8632 85.7764 53.8477 85.792 53.8477 85.8113V88.9177C53.8477 88.937 53.8632 88.9527 53.8824 88.9527H54.2334C54.2526 88.9527 54.2682 88.937 54.2682 88.9177V85.8113C54.2682 85.792 54.2526 85.7764 54.2334 85.7764Z" fill="black"/>
<path d="M66.3065 88.3073C66.3028 88.2749 66.2894 88.2436 66.2888 88.2087C66.2616 87.4037 66.2555 86.5978 66.2705 85.7912C66.2707 85.7872 66.2724 85.7835 66.2752 85.7808C66.278 85.778 66.2818 85.7765 66.2858 85.7765L66.6307 85.7759C66.6469 85.7759 66.6551 85.7841 66.6551 85.8004V88.9154C66.6551 88.9203 66.6541 88.9252 66.6522 88.9297C66.6503 88.9342 66.6475 88.9384 66.644 88.9418C66.6405 88.9453 66.6363 88.9481 66.6318 88.9499C66.6272 88.9518 66.6223 88.9528 66.6173 88.9528L66.273 88.9516C66.2502 88.9516 66.233 88.942 66.2212 88.9228C65.8482 88.3229 65.4854 87.7392 65.1327 87.1716C64.9731 86.9153 64.825 86.643 64.6885 86.3545C64.6653 86.3059 64.6546 86.3085 64.6562 86.3625C64.6822 87.2206 64.6879 88.0791 64.6732 88.9381C64.6732 88.9475 64.6686 88.9522 64.6592 88.9522L64.3076 88.9528C64.297 88.9528 64.2917 88.9477 64.2917 88.9375V85.8194C64.2917 85.7916 64.3054 85.7777 64.3326 85.7777L64.7031 85.7783C64.7283 85.7783 64.7478 85.789 64.7616 85.8102C65.0511 86.2619 65.3339 86.7223 65.6239 87.1746C65.8718 87.5612 66.0889 87.9418 66.2754 88.3165C66.3034 88.3725 66.3138 88.3695 66.3065 88.3073Z" fill="black"/>
<path d="M73.059 85.7764H72.7104C72.6902 85.7764 72.6738 85.7928 72.6738 85.8131V88.9159C72.6738 88.9362 72.6902 88.9527 72.7104 88.9527H73.059C73.0792 88.9527 73.0955 88.9362 73.0955 88.9159V85.8131C73.0955 85.7928 73.0792 85.7764 73.059 85.7764Z" fill="black"/>
<path d="M22.2181 87.9723L21.9031 88.9285C21.9009 88.9348 21.8969 88.9402 21.8915 88.944C21.8862 88.9479 21.8798 88.9499 21.8732 88.95L21.5057 88.9524C21.5007 88.9524 21.4957 88.9512 21.4912 88.9488C21.4868 88.9465 21.4829 88.9431 21.48 88.939C21.4771 88.9349 21.4752 88.9301 21.4744 88.9251C21.4737 88.92 21.4742 88.9149 21.4759 88.9101L22.5283 85.7994C22.5305 85.7932 22.5345 85.7877 22.5399 85.7839C22.5452 85.78 22.5516 85.778 22.5582 85.778L23.0159 85.7773C23.0224 85.7774 23.0288 85.7794 23.0342 85.7833C23.0395 85.7871 23.0436 85.7925 23.0457 85.7988L24.0994 88.9107C24.1011 88.9156 24.1016 88.9208 24.1008 88.9258C24.1001 88.9309 24.0981 88.9357 24.0951 88.9399C24.0921 88.944 24.0882 88.9474 24.0836 88.9497C24.0791 88.952 24.074 88.9531 24.0689 88.953L23.6887 88.9481C23.6821 88.9481 23.6757 88.946 23.6703 88.9422C23.665 88.9383 23.6609 88.9329 23.6588 88.9267L23.3352 87.9711C23.333 87.9648 23.329 87.9594 23.3237 87.9556C23.3183 87.9517 23.3119 87.9496 23.3053 87.9496L22.2486 87.9502C22.2418 87.9502 22.2353 87.9523 22.2298 87.9562C22.2243 87.9602 22.2202 87.9658 22.2181 87.9723ZM22.326 87.5972C22.3251 87.5999 22.3249 87.6028 22.3254 87.6056C22.3258 87.6084 22.3269 87.6111 22.3286 87.6134C22.3302 87.6157 22.3324 87.6176 22.3349 87.619C22.3374 87.6203 22.3402 87.621 22.3431 87.6211L23.2145 87.6205C23.2182 87.6205 23.2218 87.6196 23.2251 87.6179C23.2283 87.6163 23.2311 87.6139 23.2332 87.6109C23.2353 87.6079 23.2367 87.6045 23.2371 87.601C23.2376 87.5974 23.2371 87.5938 23.2359 87.5904C23.0677 87.1344 22.9184 86.6731 22.7879 86.2064C22.7843 86.1921 22.78 86.1919 22.7751 86.2058L22.326 87.5972Z" fill="black"/>
<path d="M46.7381 88.5877L48.0483 88.5871C48.0553 88.5871 48.062 88.5899 48.0669 88.5948C48.0718 88.5998 48.0745 88.6065 48.0745 88.6134L48.0715 88.9279C48.0715 88.9349 48.0687 88.9416 48.0638 88.9465C48.0589 88.9515 48.0522 88.9542 48.0453 88.9542H46.3194C46.3125 88.9542 46.3058 88.9515 46.3009 88.9465C46.296 88.9416 46.2932 88.9349 46.2932 88.9279V85.8037C46.2932 85.7967 46.296 85.79 46.3009 85.7851C46.3058 85.7801 46.3125 85.7773 46.3194 85.7773H47.9752C47.9821 85.7773 47.9886 85.78 47.9935 85.7848C47.9984 85.7897 48.0013 85.7962 48.0014 85.8031L48.0045 86.1022C48.0045 86.1091 48.0018 86.1157 47.997 86.1206C47.9922 86.1256 47.9857 86.1284 47.9789 86.1286L46.7387 86.1298C46.7353 86.1298 46.7318 86.1305 46.7287 86.1318C46.7255 86.1331 46.7226 86.1351 46.7202 86.1375C46.7177 86.14 46.7158 86.1429 46.7145 86.1461C46.7132 86.1493 46.7125 86.1527 46.7125 86.1561V87.0897C46.7125 87.0931 46.7132 87.0965 46.7145 87.0997C46.7158 87.1029 46.7177 87.1059 46.7202 87.1083C46.7226 87.1107 46.7255 87.1127 46.7287 87.114C46.7318 87.1153 46.7353 87.116 46.7387 87.116L47.9057 87.1154C47.9127 87.1154 47.9193 87.1182 47.9243 87.1231C47.9292 87.1281 47.9319 87.1348 47.9319 87.1418L47.9295 87.4439C47.9295 87.4474 47.9288 87.4508 47.9275 87.454C47.9262 87.4572 47.9243 87.4601 47.9218 87.4626C47.9194 87.465 47.9165 87.467 47.9133 87.4683C47.9101 87.4696 47.9067 87.4703 47.9033 87.4703L46.7387 87.4685C46.7353 87.4685 46.7318 87.4691 46.7287 87.4705C46.7255 87.4718 46.7226 87.4737 46.7202 87.4762C46.7177 87.4786 46.7158 87.4815 46.7145 87.4847C46.7132 87.4879 46.7125 87.4914 46.7125 87.4948L46.7119 88.5613C46.7119 88.5683 46.7146 88.575 46.7196 88.58C46.7245 88.5849 46.7311 88.5877 46.7381 88.5877Z" fill="black"/>
<path d="M61.1209 88.5871L62.4476 88.5883C62.4546 88.5883 62.4612 88.5911 62.4661 88.596C62.4711 88.601 62.4738 88.6077 62.4738 88.6147L62.4775 88.9279C62.4775 88.9349 62.4747 88.9416 62.4698 88.9465C62.4649 88.9515 62.4582 88.9542 62.4513 88.9542L60.712 88.9536C60.705 88.9536 60.6984 88.9509 60.6935 88.9459C60.6886 88.941 60.6858 88.9343 60.6858 88.9273V85.8043C60.6858 85.7973 60.6886 85.7906 60.6935 85.7857C60.6984 85.7807 60.705 85.778 60.712 85.778L62.369 85.7773C62.3758 85.7773 62.3824 85.78 62.3873 85.7848C62.3922 85.7897 62.395 85.7962 62.3952 85.8031L62.3995 86.1022C62.3996 86.1057 62.3989 86.1092 62.3977 86.1125C62.3964 86.1157 62.3945 86.1187 62.392 86.1212C62.3896 86.1237 62.3867 86.1257 62.3834 86.1271C62.3802 86.1285 62.3768 86.1292 62.3733 86.1292L61.1215 86.1298C61.1146 86.1298 61.1079 86.1326 61.103 86.1375C61.0981 86.1424 61.0953 86.1492 61.0953 86.1561V87.089C61.0953 87.0925 61.096 87.0959 61.0973 87.0991C61.0986 87.1023 61.1006 87.1052 61.103 87.1077C61.1054 87.1101 61.1083 87.1121 61.1115 87.1134C61.1147 87.1147 61.1181 87.1154 61.1215 87.1154H62.3007C62.3077 87.1154 62.3144 87.1182 62.3193 87.1231C62.3242 87.1281 62.327 87.1348 62.327 87.1418L62.3233 87.4452C62.3233 87.4522 62.3205 87.4589 62.3156 87.4638C62.3107 87.4688 62.304 87.4715 62.2971 87.4715L61.1215 87.4679C61.1146 87.4679 61.1079 87.4706 61.103 87.4756C61.0981 87.4805 61.0953 87.4872 61.0953 87.4942L61.0947 88.5607C61.0947 88.5677 61.0975 88.5744 61.1024 88.5794C61.1073 88.5843 61.114 88.5871 61.1209 88.5871Z" fill="black"/>
<path d="M76.6996 87.9505L75.6374 87.9499C75.6314 87.9498 75.6254 87.9517 75.6205 87.9552C75.6156 87.9587 75.6119 87.9637 75.61 87.9695L75.2955 88.93C75.2936 88.9357 75.2899 88.9407 75.285 88.9443C75.28 88.9478 75.2741 88.9497 75.2681 88.9496L74.8939 88.9527C74.8893 88.9527 74.8848 88.9517 74.8807 88.9496C74.8767 88.9475 74.8731 88.9445 74.8705 88.9408C74.8678 88.9371 74.866 88.9327 74.8653 88.9282C74.8646 88.9237 74.865 88.919 74.8665 88.9147L75.9202 85.796C75.9221 85.7902 75.9258 85.7852 75.9307 85.7817C75.9356 85.7782 75.9416 85.7763 75.9476 85.7764L76.4101 85.7782C76.4161 85.7783 76.4219 85.7802 76.4267 85.7837C76.4315 85.7872 76.4351 85.7922 76.437 85.7978L77.4937 88.9153C77.4951 88.9196 77.4956 88.9243 77.4949 88.9288C77.4942 88.9334 77.4924 88.9377 77.4897 88.9414C77.487 88.9451 77.4835 88.9481 77.4794 88.9502C77.4753 88.9523 77.4708 88.9533 77.4663 88.9533L77.0781 88.9478C77.0722 88.9477 77.0665 88.9459 77.0617 88.9425C77.0569 88.9391 77.0532 88.9343 77.0512 88.9288L76.727 87.9701C76.7251 87.9643 76.7214 87.9593 76.7165 87.9558C76.7116 87.9523 76.7057 87.9504 76.6996 87.9505ZM75.7117 87.5827C75.7103 87.5869 75.7099 87.5915 75.7105 87.5959C75.7111 87.6003 75.7128 87.6045 75.7153 87.6082C75.7179 87.6118 75.7213 87.6148 75.7252 87.6169C75.7291 87.619 75.7335 87.6201 75.738 87.6201L76.5918 87.6207C76.5971 87.6208 76.6024 87.6195 76.6071 87.617C76.6119 87.6146 76.6159 87.611 76.619 87.6066C76.6221 87.6022 76.624 87.5971 76.6247 87.5918C76.6253 87.5864 76.6247 87.581 76.6228 87.576C76.4559 87.124 76.3088 86.6709 76.1816 86.2165C76.1723 86.1842 76.1631 86.1842 76.1542 86.2165C76.0152 86.7044 75.8678 87.1598 75.7117 87.5827Z" fill="black"/>
<path d="M83.4611 85.7778H83.1076C83.0894 85.7778 83.0747 85.7926 83.0747 85.8109V88.9186C83.0747 88.9369 83.0894 88.9517 83.1076 88.9517H83.4611C83.4793 88.9517 83.494 88.9369 83.494 88.9186V85.8109C83.494 85.7926 83.4793 85.7778 83.4611 85.7778Z" fill="black"/>
<path d="M85.666 88.949L85.2985 88.952C85.2935 88.952 85.2886 88.9508 85.2842 88.9485C85.2798 88.9462 85.276 88.9429 85.2731 88.9388C85.2702 88.9348 85.2682 88.9301 85.2675 88.9251C85.2667 88.9202 85.2671 88.9151 85.2686 88.9104L86.3199 85.7978C86.322 85.7916 86.3261 85.7861 86.3314 85.7823C86.3368 85.7785 86.3432 85.7764 86.3497 85.7764L86.8086 85.7782C86.8152 85.7782 86.8216 85.7803 86.827 85.7841C86.8323 85.788 86.8363 85.7934 86.8385 85.7997L87.8934 88.9116C87.8951 88.9164 87.8955 88.9216 87.8948 88.9267C87.894 88.9318 87.8921 88.9366 87.8891 88.9407C87.8861 88.9449 87.8822 88.9482 87.8776 88.9505C87.8731 88.9528 87.868 88.954 87.8629 88.9539L87.4814 88.9484C87.4748 88.9483 87.4683 88.9461 87.463 88.9422C87.4576 88.9382 87.4536 88.9327 87.4516 88.9263L87.128 87.9713C87.1258 87.9651 87.1218 87.9597 87.1164 87.9558C87.1111 87.952 87.1047 87.9499 87.0981 87.9499H86.0414C86.0346 87.9498 86.028 87.9519 86.0225 87.9559C86.0171 87.9599 86.013 87.9655 86.0109 87.9719L85.6958 88.9275C85.6937 88.9338 85.6897 88.9392 85.6843 88.943C85.679 88.9469 85.6725 88.949 85.666 88.949ZM87.0256 87.5944C86.872 87.1549 86.7117 86.7148 86.599 86.2765C86.5762 86.1879 86.5541 86.1881 86.5326 86.2771C86.4265 86.7179 86.2626 87.1592 86.1169 87.5833C86.108 87.6083 86.1167 87.6207 86.1431 87.6207L87.0073 87.6201C87.0104 87.6201 87.0135 87.6193 87.0163 87.6179C87.0191 87.6164 87.0215 87.6143 87.0233 87.6118C87.0251 87.6093 87.0262 87.6064 87.0266 87.6034C87.027 87.6003 87.0267 87.5972 87.0256 87.5944Z" fill="black"/>
</g>
<defs>
<clipPath id="clip0_233_1490">
<rect width="88" height="89" fill="white"/>
</clipPath>
</defs>
</svg>
