<svg width="102" height="103" viewBox="0 0 102 103" fill="none" xmlns="http://www.w3.org/2000/svg">
<g clip-path="url(#clip0_233_1469)">
<path d="M53.5477 0C53.5148 0.0174977 53.4731 0.0283747 53.4227 0.0326309C53.3775 0.0359412 53.3777 0.0390152 53.4234 0.0418526C53.4328 0.0423255 53.4423 0.0449265 53.4517 0.0496556C53.4719 0.0595868 53.482 0.0759022 53.482 0.0986019C53.4783 1.7117 53.479 3.32527 53.4842 4.93932C53.4842 5.01096 53.4983 5.067 53.4983 5.14291C53.4983 13.8029 53.4983 22.4628 53.4983 31.1227C53.4983 31.2157 53.5265 31.3157 53.5131 31.4193C53.4896 31.5919 53.4903 31.7538 53.5152 31.9052C53.5237 31.957 53.4983 31.991 53.4983 32.0421C53.4978 32.9974 53.4974 33.9519 53.4969 34.9058C53.4969 34.9261 53.4941 34.9462 53.4884 34.9661C53.4828 34.985 53.4799 35.0105 53.4799 35.0427C53.4795 35.9304 53.4816 36.7402 53.4863 37.4723C53.4877 37.7158 53.4762 37.9594 53.4517 38.2029C53.4488 38.2299 53.4343 38.2457 53.4079 38.2505C53.3782 38.2557 53.3485 38.2601 53.3189 38.2639C53.2906 38.2672 53.2767 38.255 53.2772 38.227C53.2772 38.2185 53.2814 38.2145 53.2899 38.215C53.2923 38.215 53.2944 38.2143 53.2963 38.2129C53.301 38.2086 53.3024 38.2032 53.3005 38.1965C53.268 38.076 53.2082 37.9759 53.1211 37.8965" stroke="#88898C" stroke-width="2"/>
<path d="M40.5563 34.212C40.5483 34.2191 40.5386 34.2181 40.5273 34.2092C40.5212 34.2038 40.5167 34.1969 40.5143 34.1891C40.5119 34.1813 40.5118 34.173 40.5139 34.1652C40.5162 34.1557 40.52 34.147 40.5252 34.1389C40.5445 34.1096 40.5374 34.1009 40.504 34.1127C40.495 34.116 40.4887 34.1221 40.4849 34.1311C40.4727 34.16 40.4559 34.1626 40.4348 34.1389C40.4202 34.1219 40.4006 34.1169 40.3761 34.124C40.3668 34.1268 40.357 34.1275 40.3474 34.126C40.3378 34.1245 40.3286 34.121 40.3205 34.1156C40.3125 34.1101 40.3057 34.103 40.3006 34.0947C40.2956 34.0863 40.2924 34.077 40.2914 34.0673C40.2819 33.9822 40.2643 33.9027 40.2384 33.8289C40.236 33.8228 40.2356 33.8166 40.237 33.8105C40.2379 33.8043 40.2398 33.7982 40.2426 33.792C40.2511 33.775 40.2553 33.7566 40.2553 33.7367C40.2549 33.2132 40.2549 32.6902 40.2553 32.1676C40.2553 32.0491 40.285 31.9371 40.2702 31.8186C40.2608 31.7443 40.256 31.6694 40.256 31.5937C40.2542 29.9735 40.256 28.4924 40.2617 27.1503C40.2622 26.9928 40.2624 26.8334 40.2624 26.6721C40.2605 25.0676 40.2535 23.4303 40.2412 21.7605C40.2407 21.6948 40.2384 21.6226 40.2342 21.5441C40.2327 21.5191 40.2193 21.5051 40.1939 21.5023C40.1774 21.5004 40.1675 21.4909 40.1642 21.4739C40.1586 21.4422 40.1491 21.441 40.136 21.4704C40.1308 21.4812 40.1223 21.4874 40.1105 21.4888C40.1034 21.4896 40.0967 21.4929 40.0917 21.498C40.0867 21.5032 40.0836 21.51 40.083 21.5172L40.0766 21.5824C40.0743 21.6122 40.0585 21.6241 40.0293 21.6179C40.0095 21.6136 39.9853 21.6189 39.9565 21.6335" stroke="#989A9D" stroke-width="2"/>
<path d="M61.6032 17.2871L61.5538 17.3325C61.5335 17.351 61.5335 17.3694 61.5538 17.3878C61.5594 17.393 61.5665 17.3945 61.575 17.3921C61.5784 17.391 61.5821 17.3909 61.5857 17.3919C61.5893 17.3929 61.5927 17.395 61.5954 17.3978C61.6133 17.4162 61.6166 17.4285 61.6053 17.4347C61.5931 17.4418 61.5867 17.4526 61.5863 17.4673L61.5792 17.9099C61.5787 17.9232 61.5801 17.9362 61.5834 17.9489C61.5905 17.9797 61.5844 18.0081 61.5651 18.0341C61.5491 18.0563 61.5408 18.0809 61.5403 18.1078C61.5366 18.3651 61.5345 18.6132 61.534 18.852C61.5246 31.2508 61.5213 44.3419 61.5241 58.1253C61.5241 58.2289 61.5159 58.3445 61.4994 58.4722C61.4989 58.4755 61.4982 58.4755 61.4972 58.4722C61.4878 58.4495 61.4791 58.4209 61.4711 58.3864C61.4655 58.3613 61.4518 58.3417 61.4301 58.3275C61.4071 58.3124 61.3948 58.2909 61.3934 58.263C61.3925 58.2365 61.3842 58.2121 61.3687 58.1899C61.3461 58.1573 61.3197 58.1308 61.2896 58.1104C61.2656 58.0948 61.2533 58.0726 61.2528 58.0438L61.2507 57.9054C61.2498 57.8756 61.238 57.8518 61.2154 57.8338C61.1419 57.7761 61.1066 57.6881 61.1095 57.5699C61.1104 57.5359 61.0949 57.5134 61.0628 57.5025C61.0431 57.4959 61.0289 57.4831 61.0204 57.4642C60.987 57.3937 60.9701 57.3223 60.9696 57.25C60.9696 57.2263 60.9642 57.2043 60.9533 57.184L60.8128 56.9166C60.8029 56.8977 60.8055 56.8804 60.8205 56.8648C60.8295 56.8553 60.8311 56.8454 60.8255 56.835C60.8165 56.8184 60.8031 56.8071 60.7852 56.8009L60.7012 56.7726" stroke="#818285" stroke-width="2"/>
<path d="M30.9107 22.4819C30.9036 22.4881 30.8966 22.49 30.8895 22.4876C30.8707 22.4805 30.8679 22.485 30.881 22.5011C30.8853 22.5063 30.8902 22.5108 30.8959 22.5146C30.8966 22.5151 30.8971 22.5157 30.8975 22.5165C30.8979 22.5173 30.898 22.5182 30.8979 22.519C30.8979 22.5199 30.8976 22.5207 30.8971 22.5214C30.8966 22.5221 30.8959 22.5227 30.8952 22.5231C30.8349 22.5533 30.7711 22.564 30.7037 22.555C30.6778 22.5517 30.6649 22.5633 30.6649 22.5898V27.4191C30.6649 27.4314 30.6677 27.4428 30.6734 27.4532C30.6776 27.4607 30.6797 27.4688 30.6797 27.4773C30.6835 28.8643 30.6835 30.2403 30.6797 31.6051C30.6797 31.6155 30.6778 31.6259 30.6741 31.6363C30.6675 31.6533 30.6642 31.6708 30.6642 31.6888C30.6651 32.7973 30.6637 33.8207 30.6599 34.7589C30.6599 34.8162 30.6385 34.8483 30.5957 34.8554C30.5792 34.8587 30.5731 34.8677 30.5773 34.8824C30.5787 34.889 30.5721 34.893 30.5575 34.8944C30.5472 34.8954 30.5385 34.8916 30.5314 34.8831C30.4438 34.7786 30.3553 34.6937 30.2658 34.6284C30.2545 34.6199 30.2361 34.6225 30.2107 34.6362" stroke="#DD514F" stroke-width="2"/>
<path d="M23.8569 61.4863L22.1411 65.7404" stroke="#C68081" stroke-width="2"/>
<path d="M81.1491 65.7405L79.2575 61.1126C79.2532 61.1027 79.2516 61.0923 79.2525 61.0814C79.253 61.0738 79.2516 61.0672 79.2483 61.0615" stroke="#985354" stroke-width="2"/>
<path d="M68.2219 33.7079C68.2068 33.706 68.1941 33.7112 68.1837 33.7235C68.1748 33.7344 68.171 33.7469 68.1724 33.7611C68.1767 33.8008 68.1708 33.8379 68.1548 33.8725C68.1527 33.8768 68.1517 33.8815 68.1518 33.8863C68.1519 33.8911 68.1531 33.8958 68.1553 33.9001C68.1575 33.9043 68.1606 33.908 68.1644 33.9108C68.1683 33.9137 68.1727 33.9156 68.1774 33.9165C68.1943 33.9193 68.2077 33.9278 68.2176 33.942C68.2341 33.9652 68.2362 33.9895 68.224 34.0151C68.1929 34.0803 68.1804 34.1515 68.1866 34.2286C68.1884 34.2526 68.183 34.2768 68.171 34.2981C68.1371 34.3577 68.1103 34.3818 68.1074 34.4584C68.0961 34.7242 68.0905 35.0313 68.0905 35.3799C68.091 37.6598 68.0945 39.8293 68.1011 41.8883C68.1053 43.1113 68.1072 44.3763 68.1067 45.6834C68.1048 54.3732 68.1063 63.0629 68.111 71.7526C68.111 71.8709 68.1107 71.9891 68.1103 72.1073C68.0891 75.2673 68.0903 78.4275 68.1138 81.588C68.1166 81.9852 68.0841 82.4116 68.1039 82.8195C68.1046 82.8285 68.1027 82.8374 68.0986 82.8455C68.0945 82.8535 68.0883 82.8602 68.0806 82.8649C68.0448 82.8871 68.0147 82.9138 67.9902 82.945C67.9775 82.9611 67.961 82.9698 67.9407 82.9713L67.4724 82.9954" stroke="#7A7B7E" stroke-width="2"/>
<path d="M59.4897 82.9922C59.9588 82.9686 60.4288 82.9591 60.8997 82.9638C60.902 82.9638 60.9041 82.9629 60.906 82.961C60.9074 82.9596 60.9084 82.9575 60.9088 82.9546C60.9103 82.9433 60.9053 82.9381 60.894 82.939C60.8662 82.9418 60.8382 82.9395 60.81 82.9319C60.7911 82.9267 60.7876 82.9161 60.7994 82.9C60.8271 82.8617 60.8389 82.813 60.8347 82.7539C60.81 82.397 60.846 82.0459 60.841 81.7068C60.8246 80.464 60.8208 79.2191 60.8297 77.972C60.8298 77.9623 60.828 77.9527 60.8244 77.9437C60.8207 77.9348 60.8153 77.9266 60.8085 77.9196C60.8017 77.9127 60.7936 77.9072 60.7846 77.9034C60.7756 77.8996 60.766 77.8976 60.7563 77.8975L60.3798 77.8926" stroke="#818285" stroke-width="2"/>
<path d="M40.5038 34.3313C40.4728 34.3341 40.4509 34.3278 40.4382 34.3122C39.2119 32.7899 37.9861 31.2671 36.7608 29.7438C36.7443 29.723 36.7226 29.6873 36.6958 29.6367" stroke="#BC7777" stroke-width="2"/>
<path d="M48.6972 0H53.5478C53.5149 0.0174977 53.4732 0.0283747 53.4228 0.0326309C53.3776 0.0359412 53.3778 0.0390152 53.4235 0.0418526C53.4329 0.0423255 53.4424 0.0449265 53.4518 0.0496556C53.472 0.0595868 53.4821 0.0759022 53.4821 0.0986019C53.4784 1.7117 53.4791 3.32527 53.4843 4.93932C53.4843 5.01096 53.4984 5.067 53.4984 5.14291C53.4984 13.8029 53.4984 22.4628 53.4984 31.1227C53.4984 31.2157 53.5266 31.3157 53.5132 31.4193C53.4897 31.5919 53.4904 31.7538 53.5153 31.9052C53.5238 31.957 53.4984 31.991 53.4984 32.0421C53.4979 32.9974 53.4974 33.9519 53.497 34.9058C53.497 34.9261 53.4941 34.9462 53.4885 34.9661C53.4828 34.985 53.48 35.0105 53.48 35.0427C53.4796 35.9304 53.4817 36.7402 53.4864 37.4723C53.4878 37.7158 53.4763 37.9594 53.4518 38.2029C53.4489 38.2299 53.4343 38.2457 53.408 38.2505C53.3783 38.2557 53.3486 38.2602 53.319 38.2639C53.2907 38.2672 53.2768 38.255 53.2773 38.227C53.2773 38.2185 53.2815 38.2145 53.29 38.215C53.2924 38.215 53.2945 38.2143 53.2964 38.2129C53.3011 38.2086 53.3025 38.2032 53.3006 38.1965C53.2681 38.076 53.2083 37.9759 53.1212 37.8965L46.162 20.5567C46.1488 20.5241 46.1356 20.5241 46.1225 20.5567L40.5563 34.212C40.5483 34.2191 40.5386 34.2182 40.5273 34.2092C40.5212 34.2039 40.5167 34.1969 40.5143 34.1891C40.5119 34.1814 40.5118 34.1731 40.5139 34.1652C40.5162 34.1558 40.52 34.147 40.5252 34.139C40.5445 34.1096 40.5374 34.1009 40.504 34.1127C40.495 34.116 40.4887 34.1222 40.4849 34.1312C40.4727 34.16 40.4559 34.1626 40.4348 34.139C40.4202 34.1219 40.4006 34.117 40.3761 34.1241C40.3668 34.1268 40.357 34.1275 40.3474 34.126C40.3378 34.1246 40.3286 34.121 40.3205 34.1156C40.3125 34.1102 40.3057 34.1031 40.3006 34.0947C40.2956 34.0864 40.2924 34.077 40.2914 34.0673C40.2819 33.9822 40.2643 33.9028 40.2384 33.829C40.236 33.8228 40.2356 33.8167 40.237 33.8105C40.2379 33.8044 40.2398 33.7982 40.2426 33.7921C40.2511 33.7751 40.2553 33.7566 40.2553 33.7368C40.2549 33.2132 40.2549 32.6902 40.2553 32.1676C40.2553 32.0492 40.285 31.9371 40.2702 31.8186C40.2608 31.7444 40.256 31.6694 40.256 31.5938C40.2542 29.9736 40.256 28.4924 40.2617 27.1503C40.2622 26.9928 40.2624 26.8334 40.2624 26.6722C40.2605 25.0676 40.2535 23.4304 40.2412 21.7605C40.2407 21.6948 40.2384 21.6227 40.2342 21.5442C40.2327 21.5191 40.2193 21.5052 40.1939 21.5023C40.1774 21.5004 40.1675 21.491 40.1642 21.4739C40.1586 21.4423 40.1491 21.4411 40.136 21.4704C40.1308 21.4813 40.1223 21.4874 40.1105 21.4888C40.1034 21.4896 40.0967 21.4929 40.0917 21.4981C40.0867 21.5032 40.0836 21.51 40.083 21.5172L40.0766 21.5825C40.0743 21.6123 40.0585 21.6241 40.0293 21.6179C40.0095 21.6137 39.9853 21.6189 39.9565 21.6335L48.6972 0Z" fill="#8B8D90"/>
<path d="M53.548 0H54.6379L61.6034 17.2873L61.554 17.3327C61.5337 17.3511 61.5337 17.3695 61.554 17.388C61.5596 17.3932 61.5667 17.3946 61.5752 17.3922C61.5786 17.3911 61.5823 17.3911 61.5859 17.3921C61.5895 17.3931 61.5929 17.3951 61.5957 17.3979C61.6136 17.4164 61.6169 17.4287 61.6056 17.4348C61.5933 17.4419 61.587 17.4528 61.5865 17.4674L61.5794 17.9101C61.579 17.9233 61.5804 17.9363 61.5837 17.9491C61.5907 17.9798 61.5846 18.0082 61.5653 18.0342C61.5493 18.0564 61.541 18.081 61.5406 18.108C61.5368 18.3653 61.5347 18.6133 61.5342 18.8521C61.5248 31.2509 61.5215 44.342 61.5243 58.1255C61.5243 58.2291 61.5161 58.3447 61.4996 58.4724C61.4991 58.4757 61.4984 58.4757 61.4975 58.4724C61.4881 58.4497 61.4794 58.4211 61.4713 58.3865C61.4657 58.3615 61.452 58.3418 61.4304 58.3277C61.4073 58.3125 61.3951 58.291 61.3937 58.2631C61.3927 58.2366 61.3845 58.2123 61.3689 58.19C61.3463 58.1574 61.32 58.1309 61.2898 58.1106C61.2658 58.095 61.2536 58.0728 61.2531 58.0439L61.251 57.9056C61.25 57.8758 61.2382 57.8519 61.2156 57.8339C61.1422 57.7762 61.1069 57.6883 61.1097 57.5701C61.1106 57.536 61.0951 57.5135 61.0631 57.5027C61.0433 57.496 61.0292 57.4833 61.0207 57.4644C60.9872 57.3939 60.9703 57.3225 60.9698 57.2501C60.9698 57.2265 60.9644 57.2045 60.9536 57.1842L60.813 56.9167C60.8031 56.8978 60.8057 56.8805 60.8208 56.8649C60.8297 56.8555 60.8314 56.8456 60.8257 56.8351C60.8168 56.8186 60.8034 56.8072 60.7855 56.8011L60.7014 56.7727L53.1213 37.8965C53.2085 37.9759 53.2683 38.076 53.3008 38.1965C53.3026 38.2032 53.3012 38.2086 53.2965 38.2129C53.2946 38.2143 53.2925 38.215 53.2902 38.215C53.2817 38.2145 53.2774 38.2185 53.2774 38.227C53.277 38.255 53.2909 38.2672 53.3191 38.2639C53.3488 38.2602 53.3785 38.2557 53.4081 38.2505C53.4345 38.2457 53.4491 38.2299 53.4519 38.2029C53.4764 37.9594 53.4879 37.7158 53.4865 37.4723C53.4818 36.7402 53.4797 35.9304 53.4802 35.0427C53.4802 35.0105 53.483 34.985 53.4886 34.9661C53.4943 34.9462 53.4971 34.9261 53.4971 34.9058C53.4976 33.9519 53.4981 32.9974 53.4985 32.0421C53.4985 31.991 53.524 31.957 53.5155 31.9052C53.4905 31.7538 53.4898 31.5919 53.5134 31.4193C53.5268 31.3157 53.4985 31.2157 53.4985 31.1227C53.4985 22.4628 53.4985 13.8029 53.4985 5.14291C53.4985 5.067 53.4844 5.01096 53.4844 4.93932C53.4792 3.32527 53.4785 1.7117 53.4823 0.0986019C53.4823 0.0759022 53.4722 0.0595868 53.4519 0.0496556C53.4425 0.0449265 53.4331 0.0423255 53.4237 0.0418526C53.378 0.0390152 53.3777 0.0359412 53.423 0.0326309C53.4733 0.0283747 53.515 0.0174977 53.548 0Z" fill="#848588"/>
<path d="M30.9109 22.482C30.9038 22.4881 30.8968 22.49 30.8897 22.4877C30.8709 22.4806 30.868 22.4851 30.8812 22.5011C30.8855 22.5063 30.8904 22.5108 30.8961 22.5146C30.8968 22.5151 30.8973 22.5158 30.8977 22.5166C30.898 22.5174 30.8982 22.5182 30.8981 22.5191C30.8981 22.5199 30.8978 22.5208 30.8973 22.5215C30.8968 22.5222 30.8961 22.5228 30.8954 22.5231C30.8351 22.5534 30.7713 22.564 30.7039 22.555C30.678 22.5517 30.6651 22.5633 30.6651 22.5898V27.4192C30.6651 27.4315 30.6679 27.4428 30.6736 27.4532C30.6778 27.4608 30.6799 27.4688 30.6799 27.4773C30.6837 28.8644 30.6837 30.2403 30.6799 31.6051C30.6799 31.6155 30.678 31.626 30.6743 31.6364C30.6677 31.6534 30.6644 31.6709 30.6644 31.6888C30.6653 32.7974 30.6639 33.8207 30.6601 34.759C30.6601 34.8162 30.6387 34.8484 30.5959 34.8555C30.5794 34.8588 30.5732 34.8678 30.5775 34.8824C30.5789 34.889 30.5723 34.8931 30.5577 34.8945C30.5473 34.8954 30.5386 34.8916 30.5316 34.8831C30.444 34.7786 30.3554 34.6937 30.266 34.6285C30.2547 34.62 30.2363 34.6226 30.2109 34.6363L21.709 23.4715C21.7064 23.4682 21.7031 23.4654 21.6992 23.4636C21.6954 23.4618 21.6911 23.461 21.6869 23.4612C21.6826 23.4614 21.6785 23.4627 21.6749 23.4648C21.6712 23.467 21.6681 23.47 21.6659 23.4737C21.2386 24.1859 21.1891 25.1449 21.1891 25.9614C21.1943 35.6674 21.1938 45.2091 21.1877 54.5865C21.1872 55.0987 21.2023 55.5699 21.2329 56.0003C21.3791 58.0645 22.1978 60.1777 23.8571 61.4865L22.1413 65.7406L0.651364 65.742C0.647004 65.742 0.642687 65.7411 0.638659 65.7394C0.634631 65.7377 0.630971 65.7352 0.627888 65.732C0.624805 65.7288 0.62236 65.7251 0.620691 65.721C0.619023 65.7168 0.618164 65.7124 0.618164 65.7079V62.7102C0.618164 62.687 0.629466 62.6742 0.65207 62.6718C2.60213 62.4543 4.08574 61.5383 5.10291 59.9238C6.00636 58.4894 6.37156 56.7366 6.37226 55.0384C6.37509 44.2985 6.37533 33.8174 6.37297 23.595C6.37226 22.8466 6.32494 21.9684 6.02049 21.2888C5.64682 20.4553 4.58938 20.3127 3.79613 20.3092C2.70125 20.3035 1.65512 20.3028 0.657721 20.3071C0.63135 20.3071 0.618164 20.2936 0.618164 20.2666V17.2908C0.618164 17.2672 0.629937 17.2554 0.653483 17.2554H26.8938C26.922 17.2554 26.9354 17.2696 26.934 17.2979C26.927 17.4391 26.9107 17.5207 27.011 17.6441C28.3145 19.2539 29.6145 20.8665 30.9109 22.482Z" fill="#E75958"/>
<path d="M102 17.2554V20.3078C100.964 20.3021 99.9279 20.3026 98.8919 20.3092C98.2378 20.3134 97.4488 20.395 96.9678 20.8107C96.7191 21.0254 96.5512 21.3146 96.4641 21.6783C96.3224 22.2685 96.2515 22.8513 96.2515 23.4269C96.2553 33.855 96.2583 44.2829 96.2607 54.7106C96.2607 55.3495 96.2758 55.8217 96.3059 56.1272C96.4224 57.3197 96.7283 58.505 97.3068 59.5464C97.6082 60.0883 97.9268 60.5371 98.2625 60.8927C99.2444 61.9327 100.49 62.5269 102 62.6754V65.7391L81.1493 65.7406L79.2576 61.1127C79.2534 61.1027 79.2517 61.0923 79.2527 61.0814C79.2532 61.0739 79.2517 61.0673 79.2484 61.0616C80.5807 59.7961 81.2256 57.9155 81.3852 56.1294C81.422 55.7189 81.4403 55.2507 81.4403 54.7248C81.4342 45.1512 81.433 35.5887 81.4368 26.0373C81.4375 25.1932 81.4057 24.2114 80.9628 23.473C80.9609 23.4698 80.9583 23.4671 80.9551 23.4652C80.9519 23.4632 80.9483 23.4621 80.9447 23.4619C80.941 23.4617 80.9373 23.4624 80.9339 23.464C80.9305 23.4655 80.9276 23.4679 80.9254 23.4708L72.0025 35.1825C71.986 35.2042 71.9728 35.2023 71.9629 35.1768L68.489 26.5594C68.4768 26.5292 68.481 26.5013 68.5017 26.4757L75.6643 17.581C75.6826 17.5585 75.6925 17.5304 75.6926 17.5015L75.6947 17.3043C75.6952 17.2726 75.7112 17.2568 75.7427 17.2568L102 17.2554Z" fill="#BA2E2E"/>
<path d="M61.6035 17.2871L68.2221 33.7075C68.2071 33.7056 68.1944 33.7108 68.184 33.7231C68.1751 33.734 68.1713 33.7465 68.1727 33.7607C68.1769 33.8004 68.1711 33.8376 68.155 33.8721C68.153 33.8764 68.152 33.8812 68.1521 33.8859C68.1522 33.8907 68.1534 33.8954 68.1556 33.8997C68.1577 33.9039 68.1609 33.9076 68.1647 33.9105C68.1685 33.9133 68.173 33.9152 68.1776 33.9161C68.1946 33.9189 68.208 33.9274 68.2179 33.9416C68.2344 33.9648 68.2365 33.9891 68.2243 34.0147C68.1932 34.0799 68.1807 34.1511 68.1868 34.2282C68.1887 34.2522 68.1833 34.2765 68.1713 34.2977C68.1374 34.3573 68.1105 34.3814 68.1077 34.458C68.0964 34.7238 68.0908 35.031 68.0908 35.3795C68.0912 37.6594 68.0948 39.8289 68.1014 41.8879C68.1056 43.1109 68.1075 44.3759 68.107 45.683C68.1051 54.3728 68.1065 63.0625 68.1112 71.7523C68.1112 71.8705 68.111 71.9887 68.1105 72.1069C68.0894 75.2669 68.0905 78.4272 68.1141 81.5876C68.1169 81.9849 68.0844 82.4112 68.1042 82.8191C68.1048 82.8281 68.103 82.8371 68.0989 82.8451C68.0948 82.8531 68.0885 82.8598 68.0809 82.8645C68.0451 82.8867 68.0149 82.9134 67.9905 82.9446C67.9777 82.9607 67.9613 82.9695 67.941 82.9709L67.4727 82.995L59.49 82.9922C59.959 82.9685 60.429 82.9591 60.8999 82.9638C60.9023 82.9638 60.9044 82.9629 60.9063 82.961C60.9077 82.9595 60.9086 82.9574 60.9091 82.9546C60.9105 82.9432 60.9056 82.938 60.8943 82.939C60.8665 82.9418 60.8385 82.9394 60.8102 82.9319C60.7914 82.9267 60.7878 82.916 60.7996 82.9C60.8274 82.8616 60.8392 82.8129 60.8349 82.7538C60.8102 82.397 60.8462 82.0459 60.8413 81.7068C60.8248 80.464 60.821 79.2191 60.83 77.972C60.8301 77.9623 60.8282 77.9527 60.8246 77.9437C60.821 77.9347 60.8156 77.9265 60.8087 77.9196C60.8019 77.9127 60.7938 77.9072 60.7848 77.9034C60.7759 77.8996 60.7663 77.8976 60.7565 77.8975L60.38 77.8925C61.2055 77.8883 62.0287 77.8452 62.8495 77.7634C63.3628 77.7124 63.885 77.623 64.4162 77.4953C65.9992 77.1151 67.4303 76.0751 67.3286 74.3109C67.2829 73.5183 67.0962 72.713 66.7684 71.8948C64.7475 66.8534 62.7252 61.8126 60.7014 56.7726L60.7855 56.8009C60.8034 56.8071 60.8168 56.8184 60.8257 56.835C60.8314 56.8454 60.8297 56.8553 60.8208 56.8648C60.8057 56.8804 60.8031 56.8977 60.813 56.9166L60.9536 57.184C60.9644 57.2043 60.9698 57.2263 60.9698 57.25C60.9703 57.3223 60.9873 57.3937 61.0207 57.4642C61.0292 57.4831 61.0433 57.4959 61.0631 57.5025C61.0951 57.5134 61.1106 57.5359 61.1097 57.5699C61.1069 57.6881 61.1422 57.7761 61.2157 57.8338C61.2383 57.8518 61.25 57.8756 61.251 57.9054L61.2531 58.0438C61.2536 58.0726 61.2658 58.0948 61.2898 58.1104C61.32 58.1308 61.3463 58.1573 61.3689 58.1899C61.3845 58.2121 61.3927 58.2365 61.3937 58.263C61.3951 58.2909 61.4073 58.3124 61.4304 58.3275C61.4521 58.3417 61.4657 58.3613 61.4714 58.3864C61.4794 58.4209 61.4881 58.4495 61.4975 58.4722C61.4984 58.4755 61.4991 58.4755 61.4996 58.4722C61.5161 58.3445 61.5243 58.2289 61.5243 58.1253C61.5215 44.3419 61.5248 31.2508 61.5342 18.852C61.5347 18.6132 61.5368 18.3651 61.5406 18.1078C61.5411 18.0809 61.5493 18.0563 61.5653 18.0341C61.5846 18.0081 61.5907 17.9797 61.5837 17.9489C61.5804 17.9362 61.579 17.9232 61.5794 17.9099L61.5865 17.4673C61.587 17.4526 61.5933 17.4418 61.6056 17.4347C61.6169 17.4285 61.6136 17.4162 61.5957 17.3978C61.5929 17.395 61.5896 17.3929 61.5859 17.3919C61.5823 17.3909 61.5786 17.391 61.5752 17.3921C61.5667 17.3945 61.5597 17.393 61.554 17.3878C61.5338 17.3694 61.5338 17.351 61.554 17.3325L61.6035 17.2871Z" fill="#7D7E81"/>
<path d="M40.5564 34.212L40.5041 34.3312C40.473 34.334 40.4511 34.3276 40.4384 34.312C39.2121 32.7897 37.9863 31.2669 36.761 29.7437C36.7445 29.7229 36.7229 29.6872 36.696 29.6366L39.9567 21.6335C39.9854 21.6189 40.0096 21.6136 40.0294 21.6179C40.0586 21.6241 40.0744 21.6122 40.0767 21.5824L40.0831 21.5172C40.0837 21.51 40.0868 21.5032 40.0918 21.498C40.0968 21.4929 40.1035 21.4896 40.1106 21.4888C40.1224 21.4874 40.1309 21.4812 40.1361 21.4704C40.1493 21.441 40.1587 21.4422 40.1643 21.4739C40.1676 21.4909 40.1775 21.5004 40.194 21.5023C40.2194 21.5051 40.2328 21.5191 40.2343 21.5441C40.2385 21.6226 40.2409 21.6948 40.2413 21.7605C40.2536 23.4303 40.2606 25.0676 40.2625 26.6721C40.2625 26.8334 40.2623 26.9928 40.2618 27.1503C40.2562 28.4924 40.2543 29.9735 40.2562 31.5937C40.2562 31.6694 40.2609 31.7443 40.2703 31.8186C40.2851 31.9371 40.2555 32.0491 40.2555 32.1676C40.255 32.6902 40.255 33.2132 40.2555 33.7367C40.2555 33.7566 40.2512 33.775 40.2427 33.7921C40.2399 33.7982 40.238 33.8043 40.2371 33.8105C40.2357 33.8166 40.2361 33.8228 40.2385 33.8289C40.2644 33.9027 40.2821 33.9822 40.2915 34.0673C40.2925 34.077 40.2957 34.0863 40.3007 34.0947C40.3058 34.103 40.3126 34.1101 40.3207 34.1156C40.3287 34.121 40.3379 34.1245 40.3475 34.126C40.3571 34.1275 40.3669 34.1268 40.3762 34.124C40.4007 34.1169 40.4203 34.1219 40.4349 34.1389C40.4561 34.1626 40.4728 34.16 40.485 34.1311C40.4888 34.1221 40.4951 34.116 40.5041 34.1127C40.5375 34.1009 40.5446 34.1096 40.5253 34.1389C40.5201 34.147 40.5163 34.1557 40.514 34.1652C40.5119 34.173 40.512 34.1813 40.5144 34.1891C40.5168 34.1969 40.5213 34.2038 40.5274 34.2092C40.5387 34.2181 40.5484 34.2191 40.5564 34.212Z" fill="#A4A6A9"/>
<path d="M30.9107 22.4819L36.6959 29.6366C36.7227 29.6872 36.7444 29.7229 36.7609 29.7437C37.9862 31.267 39.212 32.7897 40.4382 34.312C40.451 34.3276 40.4729 34.334 40.5039 34.3312C40.5006 34.3449 40.4995 34.3581 40.5004 34.3709C40.5013 34.3827 40.5053 34.3931 40.5124 34.4021C44.0895 38.8437 47.6861 43.3106 51.3022 47.8028C51.3038 47.8047 51.3057 47.8062 51.3079 47.8073C51.3101 47.8084 51.3125 47.8089 51.3149 47.8089C51.3174 47.8089 51.3198 47.8084 51.322 47.8073C51.3242 47.8062 51.3261 47.8047 51.3277 47.8028L53.0413 45.6725C53.0653 45.6423 53.0846 45.6453 53.0992 45.6818L56.8458 55.0085C56.859 55.0416 56.8548 55.0724 56.8331 55.1007L51.3637 62.2802C51.3317 62.3218 51.2999 62.3218 51.2683 62.2802L30.2107 34.6362C30.2361 34.6225 30.2545 34.6199 30.2658 34.6284C30.3553 34.6937 30.4438 34.7786 30.5314 34.8831C30.5385 34.8916 30.5472 34.8954 30.5575 34.8944C30.5721 34.893 30.5787 34.889 30.5773 34.8824C30.5731 34.8677 30.5792 34.8587 30.5957 34.8554C30.6385 34.8483 30.6599 34.8162 30.6599 34.7589C30.6637 33.8207 30.6651 32.7973 30.6642 31.6888C30.6642 31.6708 30.6675 31.6533 30.6741 31.6363C30.6778 31.6259 30.6797 31.6155 30.6797 31.6051C30.6835 30.2403 30.6835 28.8643 30.6797 27.4773C30.6797 27.4688 30.6776 27.4607 30.6734 27.4532C30.6677 27.4428 30.6649 27.4314 30.6649 27.4191V22.5898C30.6649 22.5633 30.6778 22.5517 30.7037 22.555C30.7711 22.564 30.8349 22.5533 30.8952 22.5231C30.8959 22.5227 30.8966 22.5221 30.8971 22.5214C30.8976 22.5207 30.8979 22.5199 30.8979 22.519C30.898 22.5182 30.8979 22.5173 30.8975 22.5165C30.8971 22.5157 30.8966 22.5151 30.8959 22.5146C30.8902 22.5108 30.8853 22.5063 30.881 22.5011C30.8679 22.485 30.8707 22.4805 30.8895 22.4876C30.8966 22.49 30.9036 22.4881 30.9107 22.4819Z" fill="#D34845"/>
<path d="M68.2221 33.7079L79.2486 61.0618C79.2519 61.0675 79.2533 61.0741 79.2528 61.0816C79.2519 61.0925 79.2535 61.1029 79.2578 61.1129L81.1494 65.7408C81.1518 65.7625 81.1579 65.7857 81.1678 65.8103C82.0559 68.0301 82.9375 70.2218 83.8124 72.3854C84.3351 73.6779 84.944 74.9604 85.8418 76.0209C87.054 77.4524 88.8029 77.8922 90.6134 77.8929C91.5288 77.8929 92.4476 77.8931 93.3696 77.8936C93.3826 77.8936 93.395 77.8988 93.4041 77.908C93.4132 77.9171 93.4184 77.9296 93.4184 77.9426V82.9635C93.4184 82.9716 93.4151 82.9793 93.4093 82.985C93.4034 82.9908 93.3955 82.994 93.3873 82.994L67.4727 82.9954L67.941 82.9713C67.9612 82.9698 67.9777 82.9611 67.9904 82.945C68.0149 82.9138 68.0451 82.8871 68.0808 82.8649C68.0885 82.8602 68.0947 82.8535 68.0989 82.8455C68.103 82.8374 68.1048 82.8285 68.1042 82.8195C68.0844 82.4116 68.1169 81.9852 68.114 81.588C68.0905 78.4275 68.0893 75.2673 68.1105 72.1073C68.111 71.9891 68.1112 71.8709 68.1112 71.7526C68.1065 63.0629 68.1051 54.3732 68.107 45.6834C68.1074 44.3763 68.1056 43.1113 68.1013 41.8883C68.0947 39.8293 68.0912 37.6598 68.0907 35.3799C68.0907 35.0313 68.0964 34.7242 68.1077 34.4584C68.1105 34.3818 68.1374 34.3577 68.1713 34.2981C68.1832 34.2768 68.1887 34.2526 68.1868 34.2286C68.1807 34.1515 68.1932 34.0803 68.2242 34.0151C68.2365 33.9895 68.2344 33.9652 68.2179 33.942C68.208 33.9278 68.1946 33.9193 68.1776 33.9165C68.1729 33.9156 68.1685 33.9137 68.1647 33.9108C68.1608 33.908 68.1577 33.9043 68.1555 33.9001C68.1533 33.8958 68.1522 33.8911 68.1521 33.8863C68.152 33.8815 68.153 33.8768 68.155 33.8725C68.171 33.8379 68.1769 33.8008 68.1727 33.7611C68.1713 33.7469 68.175 33.7344 68.184 33.7235C68.1943 33.7112 68.207 33.706 68.2221 33.7079Z" fill="#76777A"/>
<path d="M22.1412 65.7406L23.857 61.4865L31.8411 41.7129C31.8432 41.7078 31.8466 41.7033 31.8509 41.6999C31.8553 41.6965 31.8604 41.6943 31.8659 41.6936C31.8714 41.6929 31.8769 41.6937 31.882 41.6958C31.8871 41.6979 31.8915 41.7014 31.8948 41.7058L35.5489 46.5004C35.5715 46.5302 35.5757 46.5626 35.5616 46.5976C33.1543 52.5161 30.7564 58.4291 28.3679 64.3367C27.9243 65.433 27.5509 66.5755 27.2476 67.7644C27.1153 68.2822 27.0251 68.7672 26.977 69.2193C26.8706 70.2162 26.9641 71.2315 27.2575 72.2653C27.8791 74.4537 29.6069 76.1619 31.6688 77.033C33.1642 77.665 34.8135 77.8913 36.4488 77.8927C37.2578 77.8942 38.0584 77.8944 38.8504 77.8934C38.8594 77.8934 38.8681 77.897 38.8744 77.9034C38.8808 77.9098 38.8843 77.9185 38.8843 77.9275V82.9597C38.8844 82.9642 38.8837 82.9686 38.882 82.9727C38.8804 82.9768 38.878 82.9806 38.8749 82.9838C38.8718 82.987 38.8681 82.9895 38.864 82.9912C38.8599 82.9929 38.8556 82.9938 38.8511 82.9938L9.25702 82.9952C9.225 82.9952 9.20898 82.9789 9.20898 82.9463V77.9261C9.20898 77.9015 9.22146 77.8892 9.24642 77.8892C9.8459 77.8996 10.4607 77.8982 11.0908 77.8849C12.6711 77.8523 14.0888 77.387 15.3438 76.4889C15.8058 76.1583 16.2522 75.7703 16.6527 75.3787C18.3038 73.7628 19.5938 71.8738 20.5229 69.7116C20.764 69.1498 21.3035 67.8261 22.1412 65.7406Z" fill="#A4A6A9"/>
<path d="M60.3799 77.8926L60.7564 77.8975C60.7661 77.8976 60.7758 77.8996 60.7847 77.9034C60.7937 77.9072 60.8018 77.9127 60.8086 77.9196C60.8154 77.9266 60.8208 77.9348 60.8245 77.9437C60.8281 77.9527 60.8299 77.9623 60.8298 77.972C60.8209 79.2191 60.8247 80.464 60.8412 81.7068C60.8461 82.0459 60.8101 82.397 60.8348 82.7539C60.839 82.813 60.8273 82.8617 60.7995 82.9C60.7877 82.9161 60.7912 82.9267 60.8101 82.9319C60.8383 82.9395 60.8663 82.9418 60.8941 82.939C60.9054 82.9381 60.9104 82.9433 60.909 82.9546C60.9085 82.9575 60.9075 82.9596 60.9061 82.961C60.9043 82.9629 60.9021 82.9638 60.8998 82.9638C60.4289 82.9591 59.9589 82.9686 59.4899 82.9922L56.812 82.9929C56.8034 82.9929 56.7951 82.9895 56.789 82.9834C56.7829 82.9772 56.7795 82.9689 56.7795 82.9603L56.7788 77.9231C56.7788 77.9156 56.7818 77.9083 56.7871 77.903C56.7924 77.8977 56.7996 77.8947 56.8071 77.8947L60.3799 77.8926Z" fill="#848588"/>
</g>
<defs>
<clipPath id="clip0_233_1469">
<rect width="102" height="103" fill="white"/>
</clipPath>
</defs>
</svg>
