<svg width="320" height="46" viewBox="0 0 320 46" fill="none" xmlns="http://www.w3.org/2000/svg">
<path d="M51.9196 18.1031C49.8408 13.6207 50.3638 7.24873 53.994 3.45182C55.9753 1.37902 58.569 0.239509 61.7751 0.0332681C67.2979 -0.322831 72.1404 2.17876 74.0286 7.58924C76.3845 14.3351 73.5366 22.7346 65.9372 24.4461C64.1258 24.8541 62.3314 24.915 60.554 24.6286C56.5131 23.9772 53.6349 21.8021 51.9196 18.1031ZM55.9952 4.0483C54.4571 5.37328 53.4303 7.11743 52.9147 9.28073C51.545 15.0162 54.1646 21.6107 60.4631 22.8236C65.7311 23.8363 70.5425 21.5528 72.3731 16.3115C74.3677 10.5983 71.8456 3.50746 65.5449 2.05858C62.2538 1.29964 58.5261 1.86496 55.9952 4.0483Z" fill="#BA2E2E"/>
<path d="M141.207 7.92095C142.295 11.2527 142.098 15.2833 140.547 18.4036C138.18 23.1598 133.778 25.1272 128.541 24.7444C124.014 24.4128 120.361 21.7287 118.712 17.4577C117.019 13.0733 117.533 7.49585 120.74 3.80132C123.557 0.556368 127.865 -0.4385 132.072 0.169094C136.48 0.805622 139.802 3.60992 141.207 7.92095ZM139.558 8.82008C138.029 3.66777 133.637 1.28637 128.433 1.8272C124.235 2.26565 121.113 4.92747 120.049 8.95584C118.724 13.9813 120.388 19.7011 125.259 22.087C127.38 23.1264 130.301 23.3311 132.593 22.728C135.947 21.8452 138.209 19.7509 139.379 16.4451C140.264 13.9449 140.324 11.4033 139.558 8.82008Z" fill="#BA2E2E"/>
<path d="M248.749 21.9669C246.391 23.9106 243.404 24.7882 239.789 24.5998C235.974 24.4017 232.555 22.7102 230.534 19.4297C228.368 15.9132 228.094 11.1904 229.492 7.45581C231.522 2.03865 236.444 -0.324955 242 0.120169C245.147 0.372406 247.68 1.5149 249.6 3.54763C253.78 7.97662 253.808 15.7262 250.098 20.4468C250.073 20.479 250.06 20.5195 250.063 20.5606C250.065 20.6017 250.083 20.6404 250.112 20.6693L252.933 23.4002C253.022 23.4862 253.022 23.5738 252.935 23.6628L251.98 24.6198C251.894 24.7059 251.808 24.7066 251.721 24.622L248.973 21.9735C248.9 21.9053 248.826 21.9031 248.749 21.9669ZM241.442 22.8193C248.237 22.5366 251.699 16.7812 250.803 10.3914C250.393 7.46472 248.826 4.74278 246.244 3.23381C243.503 1.63136 239.671 1.39989 236.701 2.58837C235.364 3.12252 234.196 3.92227 233.197 4.9876C230.549 7.80746 229.882 12.1118 230.948 15.7663C231.979 19.2976 234.229 21.5381 237.699 22.4877C238.906 22.8193 240.201 22.8727 241.442 22.8193Z" fill="#BA2E2E"/>
<path d="M301.513 18.7886C303.111 21.742 306.845 23.1575 310.059 23.0551C313.002 22.9639 316.98 22.009 317.188 18.3034C317.308 16.1757 316.116 14.9049 314.261 14.157C313.257 13.752 312.248 13.453 311.231 13.2601C309.358 12.907 307.621 12.5368 306.021 12.1496C303.069 11.4351 300.436 9.9306 300.505 6.51204C300.633 0.166799 308.813 -0.64333 313.343 0.416066C315.329 0.880479 316.99 2.0979 318.327 4.06832C318.333 4.07712 318.338 4.08706 318.34 4.09755C318.342 4.10804 318.342 4.11884 318.339 4.12928C318.337 4.13972 318.333 4.14956 318.326 4.15822C318.32 4.16687 318.312 4.17416 318.303 4.1796L316.893 5.01421C316.877 5.02313 316.859 5.0258 316.841 5.02168C316.823 5.01755 316.808 5.00694 316.798 4.99196C314.897 2.00517 311.431 1.51331 308.095 1.88054C305.529 2.1632 302.663 3.38284 302.41 6.22273C302.147 9.19839 304.961 10.1398 307.355 10.6584C309.859 11.2037 312.419 11.5508 314.773 12.3743C318.059 13.525 319.662 16.08 318.901 19.5675C318.396 21.8822 316.53 23.3867 314.343 24.0744C309.396 25.6279 302.53 24.7399 299.818 19.6032C299.795 19.5616 299.805 19.5304 299.846 19.5097L301.378 18.744C301.402 18.7323 301.429 18.7304 301.454 18.7387C301.48 18.747 301.501 18.7649 301.513 18.7886Z" fill="#BA2E2E"/>
<path d="M18.7562 18.5038H4.60779C4.5936 18.504 4.57976 18.5083 4.56796 18.5162C4.55615 18.5241 4.54689 18.5353 4.5413 18.5484L1.99929 24.3283C1.9937 24.3414 1.98444 24.3526 1.97264 24.3605C1.96083 24.3684 1.94699 24.3727 1.93281 24.3728L0.0733947 24.3795C0.0610644 24.3795 0.0489232 24.3765 0.0380998 24.3705C0.0272764 24.3646 0.0181221 24.356 0.011488 24.3456C0.0048538 24.3351 0.000955135 24.3232 0.000154395 24.3108C-0.000646345 24.2985 0.00167683 24.2861 0.00690797 24.2749L10.6603 0.420676C10.6662 0.407996 10.6756 0.397278 10.6874 0.389786C10.6992 0.382294 10.7128 0.378353 10.7268 0.378402L12.6638 0.362808C12.6783 0.362513 12.6926 0.366587 12.7049 0.374517C12.7171 0.382448 12.7267 0.39389 12.7325 0.407337L23.3947 24.266C23.3995 24.2771 23.4014 24.2892 23.4004 24.3013C23.3993 24.3133 23.3953 24.3249 23.3888 24.335C23.3822 24.3452 23.3732 24.3535 23.3627 24.3593C23.3521 24.3651 23.3403 24.3682 23.3282 24.3684L21.4732 24.3817C21.4587 24.382 21.4444 24.3779 21.4321 24.37C21.4199 24.3621 21.4103 24.3506 21.4045 24.3372L18.8226 18.5484C18.8171 18.5353 18.8078 18.5241 18.796 18.5162C18.7842 18.5083 18.7703 18.504 18.7562 18.5038ZM17.9561 16.7545C17.9683 16.7548 17.9804 16.7519 17.9913 16.7463C18.0021 16.7406 18.0114 16.7323 18.0182 16.7221C18.0251 16.7119 18.0293 16.7002 18.0304 16.688C18.0315 16.6757 18.0296 16.6634 18.0248 16.6521L11.7485 2.37255C11.7426 2.35977 11.7333 2.34893 11.7215 2.34133C11.7097 2.33374 11.696 2.32971 11.682 2.32971C11.668 2.32971 11.6543 2.33374 11.6425 2.34133C11.6307 2.34893 11.6213 2.35977 11.6155 2.37255L5.34136 16.6521C5.33654 16.6634 5.33461 16.6757 5.33576 16.688C5.33691 16.7002 5.34109 16.7119 5.34792 16.7221C5.35476 16.7323 5.36403 16.7406 5.37488 16.7463C5.38574 16.7519 5.39783 16.7548 5.41006 16.7545H17.9561Z" fill="#BA2E2E"/>
<path d="M26.9917 0.549832C26.9917 0.497889 27.0122 0.448086 27.0488 0.411356C27.0854 0.374626 27.135 0.354004 27.1867 0.354004H35.6771C37.1983 0.354004 38.7047 0.655077 40.1102 1.24004C41.5156 1.82501 42.7927 2.68239 43.8683 3.76326C44.944 4.84414 45.7973 6.12734 46.3795 7.53956C46.9616 8.95179 47.2613 10.4654 47.2613 11.994V12.7552C47.2613 15.8423 46.0408 18.803 43.8683 20.9859C41.6959 23.1688 38.7494 24.3951 35.6771 24.3951H27.1867C27.135 24.3951 27.0854 24.3745 27.0488 24.3378C27.0122 24.3011 26.9917 24.2512 26.9917 24.1993V0.549832ZM28.8666 2.29028L28.9375 22.4722C28.9375 22.51 28.9525 22.5462 28.9791 22.5729C29.0057 22.5997 29.0418 22.6146 29.0794 22.6146L35.4976 22.5924C36.7969 22.5879 38.0826 22.3318 39.2814 21.8385C40.4801 21.3453 41.5683 20.6247 42.4839 19.7178C43.3996 18.8109 44.1246 17.7355 44.6176 16.5531C45.1107 15.3707 45.3621 14.1043 45.3575 12.8264L45.3531 11.8204C45.3439 9.23997 44.293 6.76898 42.4314 4.95089C40.5699 3.13281 38.0502 2.11653 35.4266 2.12559L29.0085 2.14784C28.9708 2.14784 28.9348 2.16286 28.9082 2.18957C28.8816 2.21628 28.8666 2.25251 28.8666 2.29028Z" fill="#BA2E2E"/>
<path d="M81.1675 22.6231H94.4006C94.4288 22.6231 94.4559 22.6344 94.4758 22.6544C94.4958 22.6745 94.507 22.7016 94.507 22.73V24.2701C94.507 24.2984 94.4958 24.3256 94.4758 24.3456C94.4559 24.3657 94.4288 24.3769 94.4006 24.3769L79.2726 24.3747C79.2444 24.3747 79.2174 24.3634 79.1974 24.3434C79.1775 24.3234 79.1663 24.2962 79.1663 24.2679V0.475989C79.1663 0.461771 79.1691 0.447693 79.1746 0.434585C79.18 0.421477 79.1881 0.409596 79.1982 0.399647C79.2083 0.389697 79.2203 0.381871 79.2335 0.376635C79.2466 0.371399 79.2607 0.368868 79.2749 0.369164L80.9503 0.384731C80.9781 0.385314 81.0046 0.396845 81.0241 0.416817C81.0436 0.436789 81.0545 0.463632 81.0545 0.491584L81.0611 22.5163C81.0611 22.5447 81.0723 22.5718 81.0923 22.5918C81.1122 22.6119 81.1393 22.6231 81.1675 22.6231Z" fill="#BA2E2E"/>
<path d="M99.9119 11.7849L113.466 11.7582C113.477 11.7582 113.488 11.7604 113.499 11.7646C113.509 11.7689 113.518 11.7751 113.526 11.783C113.534 11.7908 113.54 11.8001 113.544 11.8104C113.548 11.8207 113.551 11.8317 113.551 11.8428L113.573 13.4808C113.573 13.5033 113.564 13.5248 113.548 13.5406C113.532 13.5565 113.511 13.5654 113.489 13.5654L99.9119 13.5743C99.8896 13.5743 99.8682 13.5832 99.8524 13.5991C99.8366 13.6149 99.8277 13.6364 99.8277 13.6589L99.8255 24.333C99.8255 24.3554 99.8166 24.3769 99.8008 24.3928C99.785 24.4086 99.7636 24.4175 99.7413 24.4175L98.0193 24.4064C97.9969 24.4064 97.9755 24.3975 97.9597 24.3816C97.9439 24.3658 97.9351 24.3443 97.9351 24.3218V0.452037C97.9351 0.429607 97.9439 0.4081 97.9597 0.39224C97.9755 0.376379 97.9969 0.367462 98.0193 0.367462L113.965 0.365234C113.976 0.365234 113.987 0.367423 113.997 0.371673C114.007 0.375923 114.017 0.382158 114.025 0.390012C114.032 0.397865 114.039 0.407191 114.043 0.417452C114.047 0.427713 114.049 0.438703 114.049 0.449809L114.056 2.19692C114.056 2.21935 114.047 2.24085 114.031 2.25671C114.015 2.27257 113.994 2.28149 113.972 2.28149L99.9097 2.28372C99.8874 2.28372 99.866 2.29264 99.8502 2.3085C99.8344 2.32436 99.8255 2.34586 99.8255 2.36829L99.8277 11.7003C99.8277 11.7228 99.8366 11.7443 99.8524 11.7601C99.8682 11.776 99.8896 11.7849 99.9119 11.7849Z" fill="#BA2E2E"/>
<path d="M157.536 3.29377L157.534 24.3303C157.534 24.3615 157.519 24.3771 157.487 24.3771L155.661 24.3726C155.648 24.3726 155.641 24.3652 155.641 24.3504V0.505064C155.641 0.410104 155.689 0.362621 155.785 0.362621L157.722 0.364848C157.808 0.364848 157.875 0.401198 157.922 0.473902L166.924 14.2371C166.968 14.3054 167.013 14.3054 167.057 14.2371L175.946 0.500608C176.001 0.414551 176.079 0.371532 176.181 0.371532L178.191 0.360393C178.268 0.358909 178.307 0.397491 178.307 0.476129V24.3281C178.307 24.3578 178.291 24.3726 178.26 24.3726L176.505 24.3771C176.468 24.3771 176.449 24.3585 176.449 24.3214V3.33827C176.449 3.21216 176.415 3.20177 176.348 3.30711L167.5 16.899C167.449 16.9783 167.378 17.0435 167.295 17.0887C167.212 17.1339 167.119 17.1577 167.025 17.158C166.93 17.1582 166.837 17.1348 166.755 17.09C166.672 17.0452 166.601 16.9803 166.55 16.9012L157.616 3.27152C157.563 3.18992 157.536 3.19733 157.536 3.29377Z" fill="#BA2E2E"/>
<path d="M199.861 18.5061L185.724 18.5038C185.709 18.5039 185.694 18.5083 185.681 18.5166C185.669 18.5249 185.659 18.5367 185.653 18.5506L183.111 24.3261C183.105 24.3399 183.095 24.3517 183.082 24.36C183.07 24.3683 183.055 24.3728 183.04 24.3728L181.189 24.3795C181.176 24.3796 181.163 24.3764 181.152 24.3701C181.14 24.3638 181.13 24.3547 181.123 24.3436C181.116 24.3324 181.112 24.3197 181.111 24.3065C181.11 24.2933 181.113 24.2801 181.119 24.2682L191.772 0.422889C191.778 0.409365 191.787 0.397801 191.8 0.389527C191.812 0.381252 191.826 0.376617 191.841 0.37616L193.773 0.362793C193.788 0.362827 193.803 0.367262 193.816 0.375562C193.828 0.383862 193.838 0.395685 193.844 0.409549L204.498 24.2593C204.503 24.2711 204.505 24.2841 204.504 24.2969C204.503 24.3098 204.498 24.3222 204.491 24.333C204.484 24.3439 204.475 24.3527 204.463 24.3589C204.452 24.3651 204.439 24.3683 204.427 24.3683L202.58 24.3839C202.565 24.3839 202.551 24.3795 202.538 24.3712C202.525 24.3629 202.516 24.351 202.51 24.3372L199.932 18.5528C199.926 18.5389 199.916 18.5271 199.904 18.5188C199.891 18.5105 199.876 18.5061 199.861 18.5061ZM186.451 16.6566C186.446 16.6672 186.444 16.679 186.445 16.6907C186.446 16.7024 186.449 16.7137 186.456 16.7235C186.462 16.7333 186.471 16.7413 186.481 16.7467C186.492 16.7522 186.503 16.7548 186.515 16.7545H199.068C199.079 16.7548 199.091 16.7522 199.101 16.7467C199.112 16.7413 199.121 16.7333 199.127 16.7235C199.133 16.7137 199.137 16.7024 199.138 16.6907C199.139 16.679 199.137 16.6672 199.132 16.6566L192.853 2.3614C192.848 2.34961 192.839 2.33968 192.828 2.33271C192.817 2.32574 192.804 2.32203 192.791 2.32203C192.778 2.32203 192.766 2.32574 192.755 2.33271C192.744 2.33968 192.735 2.34961 192.729 2.3614L186.451 16.6566Z" fill="#BA2E2E"/>
<path d="M209.473 15.4809L209.478 24.3166C209.478 24.3537 209.458 24.3723 209.42 24.3723L207.64 24.3767C207.633 24.377 207.625 24.3758 207.618 24.373C207.61 24.3702 207.604 24.366 207.598 24.3606C207.593 24.3552 207.588 24.3487 207.585 24.3416C207.582 24.3344 207.581 24.3267 207.581 24.3189L207.583 0.50695C207.583 0.423861 207.623 0.382303 207.705 0.382303C213.309 0.33779 216.94 0.346719 218.6 0.409036C221.512 0.518833 223.653 1.77332 225.024 4.17254C226.073 6.00645 226.254 8.48357 225.57 10.4844C224.499 13.6181 221.698 15.2027 218.42 15.205C218.406 15.2052 218.392 15.2095 218.381 15.2173C218.369 15.2251 218.36 15.2361 218.354 15.249C218.349 15.2619 218.347 15.2761 218.349 15.29C218.351 15.3039 218.358 15.3169 218.367 15.3274L226.582 24.2721C226.59 24.2804 226.596 24.2907 226.598 24.3019C226.6 24.3131 226.598 24.3247 226.594 24.3351C226.589 24.3456 226.582 24.3545 226.572 24.3607C226.563 24.3669 226.552 24.3702 226.54 24.3701L224.346 24.379C224.243 24.379 224.156 24.3404 224.085 24.2632L216.04 15.4142C215.993 15.3622 215.934 15.3355 215.863 15.334L209.631 15.3251C209.526 15.3251 209.473 15.3771 209.473 15.4809ZM209.475 2.2051V13.4667C209.475 13.4874 209.484 13.5072 209.498 13.5218C209.513 13.5364 209.532 13.5446 209.553 13.5446H218.396C219.862 13.5446 221.269 12.9819 222.306 11.9801C223.343 10.9784 223.925 9.61979 223.925 8.20314V7.4687C223.925 6.05205 223.343 4.69341 222.306 3.69169C221.269 2.68997 219.862 2.12721 218.396 2.12721H209.553C209.543 2.12721 209.533 2.12922 209.523 2.13313C209.514 2.13705 209.505 2.1428 209.498 2.15003C209.491 2.15726 209.485 2.16585 209.481 2.1753C209.477 2.18475 209.475 2.19487 209.475 2.2051Z" fill="#BA2E2E"/>
<path d="M263.063 24.4173C258.828 23.3446 256.379 19.7969 256.357 15.4525C256.332 10.5517 256.33 5.54031 256.35 0.418415C256.35 0.366484 256.376 0.342756 256.428 0.347207C256.811 0.369463 257.381 0.370951 258.139 0.351663C258.171 0.350179 258.188 0.366494 258.19 0.40062C258.216 4.95127 258.214 9.44628 258.181 13.8856C258.168 15.7448 258.282 17.0631 258.525 17.8406C259.299 20.3199 260.9 21.9335 263.329 22.6813C264.958 23.1828 266.619 23.1086 268.314 22.4587C271.283 21.317 272.837 18.4838 272.841 15.3167C272.846 10.4619 272.847 5.50026 272.846 0.431782C272.846 0.384302 272.869 0.360547 272.914 0.360547L274.621 0.365002C274.642 0.365002 274.652 0.375392 274.652 0.396164C274.673 5.70946 274.668 10.9011 274.636 15.9711C274.629 17.0408 274.405 18.124 273.963 19.2205C272.21 23.5738 267.525 25.5479 263.063 24.4173Z" fill="#BA2E2E"/>
<path d="M281.505 2.26592V11.3353C281.505 11.3631 281.516 11.3897 281.536 11.4093C281.555 11.4289 281.582 11.4399 281.609 11.4399L295.399 11.4422C295.426 11.4422 295.453 11.4532 295.472 11.4728C295.492 11.4924 295.503 11.519 295.503 11.5468L295.507 13.0379C295.507 13.0657 295.496 13.0923 295.477 13.1119C295.457 13.1315 295.431 13.1425 295.403 13.1425L281.612 13.1626C281.584 13.1626 281.558 13.1736 281.538 13.1932C281.518 13.2128 281.508 13.2394 281.508 13.2672L281.505 22.4857C281.505 22.5134 281.516 22.54 281.536 22.5597C281.555 22.5793 281.582 22.5903 281.609 22.5903H296.489C296.517 22.5903 296.543 22.6013 296.563 22.6209C296.582 22.6405 296.593 22.6671 296.593 22.6949L296.596 24.2729C296.596 24.3006 296.585 24.3272 296.565 24.3468C296.546 24.3664 296.519 24.3775 296.491 24.3775H279.763C279.736 24.3775 279.709 24.3664 279.69 24.3468C279.67 24.3272 279.659 24.3006 279.659 24.2729V0.469832C279.659 0.442089 279.67 0.415497 279.69 0.39588C279.709 0.376263 279.736 0.365234 279.763 0.365234L296.073 0.371918C296.1 0.371918 296.127 0.382946 296.146 0.402564C296.166 0.422181 296.177 0.448773 296.177 0.476515V2.07007C296.177 2.09781 296.166 2.1244 296.146 2.14402C296.127 2.16364 296.1 2.17467 296.073 2.17467L281.609 2.16133C281.582 2.16133 281.555 2.17233 281.536 2.19194C281.516 2.21156 281.505 2.23818 281.505 2.26592Z" fill="#BA2E2E"/>
<path d="M279.412 31.6369L277.402 33.4753C277.384 33.4915 277.36 33.5003 277.336 33.4998L276.29 33.502C276.271 33.5025 276.253 33.4975 276.237 33.4877C276.221 33.478 276.208 33.4638 276.2 33.4469C276.192 33.43 276.188 33.4111 276.191 33.3925C276.193 33.3739 276.2 33.3563 276.212 33.3418L277.651 31.5301C277.66 31.519 277.671 31.51 277.684 31.5038C277.697 31.4977 277.712 31.4945 277.726 31.4945L279.344 31.4678C279.363 31.4674 279.383 31.4731 279.399 31.4839C279.416 31.4948 279.428 31.5104 279.436 31.5287C279.443 31.547 279.445 31.5671 279.441 31.5865C279.437 31.6058 279.427 31.6234 279.412 31.6369Z" fill="black"/>
<path d="M52.8126 45.7986H51.771C49.5105 45.4737 48.0618 44.2296 47.425 42.0663C46.8754 40.2034 47.077 37.7463 48.1962 36.1216C49.3058 34.5118 50.8941 33.7758 52.9611 33.9138C55.6871 34.0941 57.3337 36.3041 57.5842 38.8858C57.9144 42.2933 56.4295 45.309 52.8126 45.7986ZM52.3789 44.5857C52.8605 44.5865 53.3377 44.4645 53.7831 44.2268C54.2285 43.989 54.6335 43.64 54.9748 43.1998C55.3162 42.7595 55.5873 42.2367 55.7726 41.661C55.9579 41.0854 56.0539 40.4683 56.055 39.8448C56.056 39.2214 55.9622 38.604 55.7789 38.0277C55.5956 37.4514 55.3263 36.9276 54.9865 36.4861C54.6467 36.0447 54.2429 35.6943 53.7984 35.455C53.3538 35.2156 52.877 35.092 52.3954 35.0912C51.9137 35.0903 51.4365 35.2123 50.9911 35.4501C50.5457 35.6878 50.1407 36.0368 49.7994 36.477C49.458 36.9173 49.1869 37.4401 49.0016 38.0158C48.8163 38.5914 48.7203 39.2085 48.7193 39.832C48.7182 40.4554 48.812 41.0729 48.9953 41.6492C49.1786 42.2255 49.4479 42.7493 49.7877 43.1907C50.1275 43.6321 50.5313 43.9825 50.9759 44.2218C51.4205 44.4612 51.8972 44.5848 52.3789 44.5857Z" fill="black"/>
<path d="M72.127 45.3064C71.0721 45.7115 69.8244 45.8272 68.7251 45.7449C65.1215 45.4756 63.2245 42.6401 63.6189 39.206C64.1353 34.6902 68.1356 33.0232 72.1292 34.2941C72.2622 34.3356 72.3095 34.4239 72.2711 34.5589L72.0162 35.4581C71.9778 35.5916 71.8943 35.6331 71.7658 35.5827C69.3479 34.6412 66.3072 35.2689 65.454 38.0442C64.7138 40.4546 65.3941 43.6216 68.2021 44.3182C69.4033 44.6165 70.6082 44.5334 71.8167 44.069C71.932 44.0245 72.0044 44.0623 72.0339 44.1825L72.2511 45.0683C72.2629 45.116 72.2569 45.1665 72.234 45.2103C72.2112 45.2542 72.1731 45.2883 72.127 45.3064Z" fill="black"/>
<path d="M101.295 35.5876C99.9031 35.0416 98.5608 35.0246 97.268 35.5365C94.6772 36.5625 94.1785 39.9677 95.2069 42.2178C96.2995 44.6125 99.1761 44.9152 101.403 44.0495C101.474 44.0213 101.519 44.0435 101.539 44.1162L101.805 45.0888C101.817 45.134 101.812 45.1822 101.789 45.2233C101.767 45.2645 101.729 45.2953 101.685 45.3092C100.45 45.7068 99.2995 45.8522 98.2342 45.7454C95.229 45.4427 93.5403 43.7831 93.1679 40.7667C92.97 39.1627 93.2802 37.7124 94.0988 36.4156C95.7011 33.8784 98.9346 33.431 101.678 34.2968C101.813 34.3383 101.859 34.4274 101.818 34.5639L101.536 35.4719C101.498 35.5965 101.417 35.6351 101.295 35.5876Z" fill="black"/>
<path d="M257.251 44.0581C257.286 44.024 257.332 44.018 257.388 44.0403C257.405 44.0472 257.421 44.0583 257.433 44.0726C257.445 44.0869 257.454 44.104 257.459 44.1226L257.681 45.0752C257.709 45.1968 257.664 45.2777 257.545 45.3178C256.818 45.5626 256.066 45.7095 255.289 45.7584C252.007 45.9632 249.536 44.3296 249.059 40.9044C248.654 37.991 250.066 34.9909 253.06 34.1518C254.418 33.7735 256.244 33.7535 257.618 34.3455C257.7 34.3811 257.729 34.4412 257.705 34.5257L257.421 35.5317C257.415 35.5524 257.405 35.5715 257.391 35.5879C257.378 35.6043 257.361 35.6175 257.341 35.6265C257.322 35.6356 257.301 35.6404 257.279 35.6406C257.258 35.6407 257.237 35.6362 257.217 35.6274C256.492 35.2966 255.776 35.1437 255.07 35.1689C252.419 35.2595 250.943 36.6252 250.642 39.2663C250.17 43.4126 253.494 45.3756 257.171 44.107C257.2 44.0967 257.227 44.0803 257.251 44.0581Z" fill="black"/>
<path d="M26.5659 42.0262C25.2339 45.9322 21.0719 45.8387 17.7209 45.6139C17.6087 45.6065 17.5525 45.5464 17.5525 45.4336L17.5503 34.379C17.5503 34.2707 17.6035 34.2091 17.7099 34.1943C19.1002 33.9939 20.4993 33.9509 21.9074 34.0652C23.2312 34.172 24.3194 34.5771 25.1719 35.2804C27.1222 36.8873 27.3327 39.7783 26.5659 42.0262ZM25.214 41.1226C25.5797 39.4645 25.409 37.4347 24.0904 36.2707C22.836 35.1646 20.7926 35.0445 19.1371 35.3471C19.0736 35.359 19.0418 35.3976 19.0418 35.4629V44.2385C19.0418 44.3394 19.092 44.3958 19.1925 44.4076C21.8121 44.6947 24.5536 44.1227 25.214 41.1226Z" fill="black"/>
<path d="M142.202 41.1361V45.5228C142.202 45.5926 142.166 45.6274 142.095 45.6274H140.77C140.702 45.6274 140.668 45.5926 140.668 45.5228V34.3191C140.668 34.2434 140.705 34.1996 140.779 34.1877C141.88 34.026 143.005 33.9718 144.154 34.0253C146.076 34.1143 147.722 35.1447 147.758 37.248C147.813 40.4217 144.994 41.4166 142.328 41.0271C142.244 41.0152 142.202 41.0516 142.202 41.1361ZM142.193 35.4853L142.206 39.576C142.206 39.6098 142.213 39.6432 142.226 39.6744C142.239 39.7056 142.258 39.7339 142.281 39.7577C142.305 39.7815 142.334 39.8003 142.365 39.8131C142.396 39.8258 142.429 39.8322 142.463 39.8319L143.895 39.8275C144.519 39.825 145.118 39.5933 145.558 39.1834C145.998 38.7736 146.244 38.2191 146.242 37.6419V37.3926C146.241 37.1067 146.179 36.8239 146.059 36.5602C145.94 36.2965 145.765 36.0572 145.546 35.8559C145.326 35.6546 145.066 35.4953 144.779 35.387C144.493 35.2787 144.186 35.2236 143.877 35.2249L142.445 35.2293C142.378 35.2299 142.314 35.2571 142.267 35.3051C142.219 35.353 142.193 35.4178 142.193 35.4853Z" fill="black"/>
<path d="M159.612 40.1725C160.326 40.6028 160.777 41.2327 160.966 42.0621C161.238 43.2565 161.536 44.3775 161.859 45.425C161.899 45.5556 161.851 45.6209 161.715 45.6209L160.501 45.6164C160.45 45.6166 160.4 45.5996 160.36 45.5682C160.319 45.5368 160.29 45.4927 160.277 45.4428C159.995 44.4012 159.727 43.3604 159.473 42.3203C159.04 40.5531 157.602 40.5487 156.108 40.6466C156.02 40.6525 155.975 40.7 155.975 40.789L155.978 45.4695C155.978 45.5675 155.929 45.6164 155.831 45.6164L154.579 45.6209C154.486 45.6209 154.439 45.5741 154.439 45.4806V34.3392C154.439 34.268 154.474 34.2257 154.544 34.2123C155.575 34.0313 156.716 33.966 157.965 34.0165C159.776 34.0922 161.381 34.8622 161.516 36.8497C161.616 38.3171 160.985 39.3661 159.621 39.9967C159.509 40.0487 159.506 40.1073 159.612 40.1725ZM155.982 35.3563L155.973 39.2823C155.973 39.3056 155.977 39.3287 155.986 39.3503C155.994 39.3719 156.007 39.3915 156.024 39.4081C156.04 39.4246 156.059 39.4378 156.081 39.4467C156.102 39.4557 156.125 39.4604 156.148 39.4604L157.675 39.4626C157.983 39.4632 158.287 39.4116 158.571 39.3106C158.855 39.2096 159.114 39.0612 159.331 38.874C159.549 38.6867 159.722 38.4643 159.84 38.2193C159.958 37.9743 160.019 37.7116 160.02 37.4462V37.2103C160.021 36.6744 159.775 36.1599 159.337 35.7801C158.899 35.4003 158.305 35.1862 157.684 35.1849L156.157 35.1827C156.111 35.1827 156.067 35.2009 156.034 35.2334C156.001 35.2659 155.983 35.3101 155.982 35.3563Z" fill="black"/>
<path d="M214.03 39.0037C214.114 40.0215 213.994 41.006 213.671 41.9571C212.319 45.9298 208.183 45.8608 204.77 45.6093C204.68 45.6019 204.635 45.5537 204.635 45.4646V34.341C204.635 34.249 204.681 34.1978 204.773 34.1874C208.726 33.7067 213.595 33.7601 214.03 39.0037ZM206.255 44.3919C208.323 44.6946 211.027 44.3029 211.967 42.0795C212.773 40.1655 212.724 37.3879 210.878 36.0414C209.682 35.1689 207.818 35.0754 206.26 35.3381C206.173 35.3514 206.129 35.4026 206.129 35.4916L206.127 44.245C206.127 44.3311 206.17 44.38 206.255 44.3919Z" fill="black"/>
<path d="M293.297 40.0255C293.287 40.0299 293.278 40.0372 293.271 40.0465C293.265 40.0559 293.261 40.0668 293.26 40.078C293.259 40.0892 293.262 40.1003 293.267 40.1099C293.273 40.1196 293.281 40.1273 293.291 40.1323C294.049 40.5433 294.531 41.2013 294.738 42.1064C295.025 43.3528 295.334 44.5063 295.667 45.5672C295.668 45.5728 295.669 45.5788 295.668 45.5846C295.667 45.5904 295.664 45.5959 295.661 45.6006C295.658 45.6054 295.653 45.6092 295.648 45.6119C295.643 45.6146 295.637 45.6161 295.631 45.6162L294.171 45.6206C294.122 45.6206 294.09 45.5969 294.075 45.5494C293.774 44.5064 293.489 43.4255 293.22 42.3067C292.801 40.5641 291.376 40.5574 289.876 40.6464C289.79 40.6508 289.747 40.6961 289.747 40.7821L289.745 45.5227C289.745 45.5925 289.71 45.6273 289.641 45.6273L288.311 45.6229C288.284 45.6229 288.258 45.6119 288.239 45.5922C288.22 45.5726 288.209 45.546 288.209 45.5183V34.2967C288.209 34.2718 288.218 34.2479 288.234 34.2291C288.25 34.2104 288.271 34.198 288.295 34.1943C289.446 34.0266 290.605 33.968 291.77 34.0185C292.963 34.0697 294.312 34.4547 294.902 35.5631C295.819 37.2902 295.15 39.2843 293.297 40.0255ZM289.749 35.3605L289.74 39.2776C289.74 39.3015 289.745 39.3252 289.753 39.3473C289.762 39.3694 289.775 39.3896 289.792 39.4065C289.809 39.4235 289.829 39.437 289.851 39.4462C289.873 39.4554 289.896 39.4601 289.92 39.4601L291.434 39.4624C291.743 39.463 292.049 39.4106 292.335 39.3082C292.621 39.2057 292.88 39.0552 293.099 38.8653C293.318 38.6754 293.492 38.4497 293.611 38.2012C293.73 37.9527 293.791 37.6862 293.792 37.417V37.239C293.793 36.6954 293.546 36.1736 293.105 35.7884C292.665 35.4031 292.067 35.186 291.442 35.1847L289.929 35.1825C289.882 35.1825 289.836 35.2012 289.803 35.2345C289.769 35.2678 289.75 35.3131 289.749 35.3605Z" fill="black"/>
<path d="M4.26607 42.0551L3.12693 45.5448C3.11992 45.5658 3.10649 45.5839 3.08858 45.5967C3.07066 45.6095 3.04918 45.6163 3.0272 45.6161L1.66866 45.625C1.65204 45.6251 1.63562 45.6213 1.62078 45.6138C1.60594 45.6063 1.5931 45.5953 1.58334 45.5818C1.57358 45.5683 1.56718 45.5526 1.56467 45.5361C1.56216 45.5196 1.56362 45.5028 1.56893 45.487L5.39634 34.1675C5.40336 34.1465 5.41678 34.1284 5.4347 34.1156C5.45261 34.1028 5.47409 34.096 5.49607 34.0963L7.17597 34.0918C7.19795 34.0916 7.21943 34.0984 7.23735 34.1111C7.25526 34.1239 7.26869 34.1421 7.2757 34.163L11.1253 45.4847C11.1306 45.5006 11.132 45.5174 11.1295 45.5339C11.127 45.5504 11.1206 45.5661 11.1109 45.5796C11.1011 45.5931 11.0883 45.6041 11.0734 45.6116C11.0586 45.6191 11.0422 45.6229 11.0256 45.6227L9.61382 45.6205C9.59184 45.6207 9.57035 45.6139 9.55244 45.6012C9.53452 45.5884 9.5211 45.5702 9.51409 45.5493L8.33505 42.0595C8.32804 42.0386 8.31462 42.0204 8.2967 42.0076C8.27879 41.9949 8.25731 41.9881 8.23533 41.9883L4.3658 41.9838C4.34382 41.9836 4.32233 41.9904 4.30442 42.0032C4.28651 42.016 4.27308 42.0342 4.26607 42.0551ZM7.945 40.6552C7.38873 38.9904 6.7571 37.3367 6.33824 35.6364C6.30869 35.5162 6.2784 35.5162 6.24737 35.6364C5.77606 37.3931 5.24121 39.0638 4.64283 40.6485C4.63669 40.6644 4.63451 40.6815 4.63648 40.6984C4.63844 40.7154 4.64449 40.7315 4.6541 40.7456C4.66371 40.7596 4.67659 40.7711 4.69162 40.779C4.70665 40.7869 4.72338 40.791 4.74034 40.7909L7.8497 40.7887C7.94426 40.7887 7.97603 40.7442 7.945 40.6552Z" fill="black"/>
<path d="M36.9599 43.8448C36.9747 43.916 36.9931 43.9175 37.0153 43.8492C37.9771 40.7081 39.052 37.4736 40.2399 34.1455C40.2532 34.1099 40.2783 34.0921 40.3153 34.0921L41.789 34.101C41.7976 34.1009 41.8061 34.1028 41.8138 34.1067C41.8214 34.1106 41.8281 34.1163 41.8331 34.1233C41.8381 34.1303 41.8413 34.1384 41.8425 34.1469C41.8437 34.1554 41.8429 34.1641 41.84 34.1722L37.8021 45.514C37.7911 45.5452 37.7705 45.5721 37.7431 45.5913C37.7157 45.6104 37.6829 45.6207 37.6491 45.6208L36.2219 45.6186C36.1903 45.6184 36.1597 45.6085 36.1342 45.5901C36.1088 45.5718 36.0898 45.5459 36.0801 45.5162C34.8641 41.7816 33.6333 37.9958 32.3878 34.1589C32.3849 34.15 32.3878 34.1448 32.3967 34.1433C32.5607 34.0973 33.0786 34.081 33.9503 34.0944C33.9857 34.0944 34.0086 34.1114 34.019 34.1455C35.0089 37.2065 35.84 39.8661 36.5122 42.1244C36.6718 42.657 36.821 43.2305 36.9599 43.8448Z" fill="black"/>
<path d="M109.818 34.0918H108.511C108.45 34.0918 108.4 34.1416 108.4 34.2031V45.5181C108.4 45.5796 108.45 45.6294 108.511 45.6294H109.818C109.879 45.6294 109.929 45.5796 109.929 45.5181V34.2031C109.929 34.1416 109.879 34.0918 109.818 34.0918Z" fill="black"/>
<path d="M119.064 42.0507L117.916 45.5538C117.91 45.5726 117.898 45.5889 117.882 45.6005C117.867 45.6121 117.847 45.6184 117.828 45.6183L116.443 45.6161C116.428 45.6162 116.413 45.6127 116.4 45.606C116.387 45.5993 116.376 45.5896 116.367 45.5776C116.359 45.5657 116.353 45.5518 116.351 45.5373C116.348 45.5227 116.349 45.5078 116.354 45.4937L120.192 34.1564C120.199 34.138 120.211 34.1222 120.227 34.111C120.243 34.0998 120.262 34.0939 120.281 34.0941L121.97 34.0874C121.99 34.0874 122.009 34.0936 122.025 34.1052C122.041 34.1168 122.052 34.1332 122.059 34.152L125.919 45.5004C125.924 45.5146 125.926 45.5297 125.924 45.5446C125.921 45.5595 125.916 45.5737 125.907 45.5859C125.898 45.5981 125.887 45.6081 125.874 45.6149C125.86 45.6217 125.845 45.6252 125.831 45.625L124.392 45.6139C124.373 45.6141 124.354 45.6082 124.338 45.597C124.322 45.5858 124.31 45.5699 124.304 45.5516L123.12 42.0485C123.114 42.0301 123.102 42.0142 123.086 42.003C123.07 41.9919 123.051 41.9859 123.031 41.9861H119.153C119.133 41.9861 119.114 41.9923 119.098 42.0039C119.082 42.0155 119.07 42.0319 119.064 42.0507ZM122.741 40.6574C122.187 39.0216 121.582 37.3902 121.15 35.7588C121.082 35.4977 121.022 35.4999 120.97 35.7655C120.649 37.4258 119.989 39.0594 119.432 40.6975C119.429 40.7081 119.428 40.7194 119.43 40.7305C119.431 40.7416 119.435 40.752 119.442 40.7611C119.448 40.7702 119.457 40.7777 119.467 40.7829C119.477 40.7881 119.488 40.7908 119.499 40.791L122.648 40.7887C122.664 40.789 122.679 40.7854 122.693 40.7783C122.707 40.7712 122.719 40.7608 122.728 40.7479C122.737 40.7351 122.743 40.7201 122.745 40.7044C122.747 40.6887 122.746 40.6726 122.741 40.6574Z" fill="black"/>
<path d="M185.041 43.7736C185.97 40.6978 187.037 37.4892 188.241 34.1478C188.246 34.1343 188.255 34.1225 188.266 34.1141C188.278 34.1058 188.291 34.1012 188.306 34.101C188.832 34.098 189.333 34.0929 189.808 34.0854C189.844 34.0854 189.856 34.1018 189.844 34.1344C188.467 38.0426 187.119 41.8351 185.801 45.5118C185.773 45.586 185.72 45.6231 185.642 45.6231H184.248C184.156 45.6231 184.096 45.5793 184.068 45.4918C182.84 41.7216 181.611 37.9387 180.38 34.1433C180.38 34.1414 180.379 34.1394 180.38 34.1374C180.38 34.1354 180.381 34.1334 180.382 34.1317C180.383 34.13 180.384 34.1286 180.386 34.1275C180.388 34.1264 180.39 34.1257 180.392 34.1255C180.903 34.0884 181.423 34.081 181.952 34.1032C181.964 34.1039 181.976 34.1082 181.985 34.1153C181.995 34.1225 182.002 34.1323 182.005 34.1433C183.115 37.5085 184.104 40.7185 184.972 43.7736C184.995 43.8522 185.018 43.8522 185.041 43.7736Z" fill="black"/>
<path d="M197.209 34.0942H195.932C195.862 34.0942 195.806 34.151 195.806 34.2211V45.5005C195.806 45.5706 195.862 45.6274 195.932 45.6274H197.209C197.279 45.6274 197.335 45.5706 197.335 45.5005V34.2211C197.335 34.151 197.279 34.0942 197.209 34.0942Z" fill="black"/>
<path d="M241.114 43.2836C241.101 43.1656 241.052 43.0521 241.05 42.9253C240.951 40.0023 240.929 37.0764 240.983 34.1474C240.984 34.1331 240.99 34.1195 241 34.1095C241.011 34.0996 241.025 34.094 241.039 34.094L242.293 34.0918C242.352 34.0918 242.382 34.1215 242.382 34.1808V45.4914C242.382 45.5092 242.378 45.5269 242.371 45.5434C242.364 45.5598 242.354 45.5748 242.342 45.5874C242.329 45.6 242.314 45.61 242.297 45.6169C242.28 45.6237 242.263 45.6272 242.244 45.6272L240.992 45.6227C240.91 45.6227 240.847 45.5879 240.804 45.5181C239.448 43.34 238.128 41.2205 236.846 39.1595C236.265 38.2292 235.727 37.2403 235.23 36.1928C235.146 36.0162 235.107 36.0258 235.113 36.2217C235.207 39.3376 235.228 42.4549 235.175 45.5738C235.175 45.6079 235.158 45.625 235.124 45.625L233.845 45.6272C233.807 45.6272 233.787 45.6086 233.787 45.5715V34.2498C233.787 34.1489 233.837 34.0985 233.936 34.0985L235.283 34.1007C235.375 34.1007 235.446 34.1393 235.496 34.2164C236.549 35.8567 237.577 37.5281 238.632 39.1707C239.533 40.5743 240.323 41.9564 241.001 43.317C241.103 43.5203 241.141 43.5091 241.114 43.2836Z" fill="black"/>
<path d="M265.669 34.0942H264.402C264.328 34.0942 264.269 34.154 264.269 34.2278V45.4939C264.269 45.5676 264.328 45.6274 264.402 45.6274H265.669C265.743 45.6274 265.802 45.5676 265.802 45.4939V34.2278C265.802 34.154 265.743 34.0942 265.669 34.0942Z" fill="black"/>
<path d="M80.7819 42.0661L79.6361 45.5381C79.6283 45.5608 79.6136 45.5805 79.5942 45.5944C79.5747 45.6084 79.5514 45.6159 79.5275 45.616L78.1911 45.6249C78.1728 45.6248 78.1547 45.6204 78.1384 45.6119C78.1221 45.6035 78.1081 45.5912 78.0975 45.5762C78.0868 45.5612 78.0799 45.5438 78.0773 45.5256C78.0747 45.5073 78.0765 45.4887 78.0825 45.4713L81.9099 34.1763C81.9177 34.1536 81.9324 34.1339 81.9519 34.12C81.9713 34.106 81.9946 34.0985 82.0185 34.0984L83.6829 34.0962C83.7068 34.0963 83.7301 34.1038 83.7496 34.1177C83.769 34.1317 83.7837 34.1514 83.7915 34.1741L87.6234 45.4736C87.6294 45.4912 87.6312 45.51 87.6284 45.5284C87.6257 45.5468 87.6186 45.5642 87.6078 45.5793C87.5969 45.5944 87.5826 45.6066 87.566 45.6149C87.5494 45.6232 87.5311 45.6274 87.5125 45.6271L86.1296 45.6093C86.1057 45.6093 86.0824 45.6017 86.0629 45.5878C86.0435 45.5738 86.0288 45.5541 86.021 45.5314L84.8442 42.0617C84.8364 42.039 84.8217 42.0193 84.8023 42.0054C84.7828 41.9914 84.7595 41.9838 84.7356 41.9838L80.8927 41.986C80.8681 41.9858 80.8441 41.9934 80.8242 42.0078C80.8042 42.0222 80.7894 42.0427 80.7819 42.0661ZM81.1741 40.704C81.171 40.7139 81.1703 40.7244 81.1719 40.7347C81.1735 40.7449 81.1775 40.7546 81.1835 40.763C81.1896 40.7715 81.1975 40.7784 81.2066 40.7832C81.2157 40.788 81.2259 40.7906 81.2362 40.7908L84.4054 40.7886C84.4187 40.7886 84.4318 40.7855 84.4437 40.7794C84.4555 40.7733 84.4657 40.7646 84.4733 40.7538C84.481 40.7431 84.4859 40.7307 84.4875 40.7178C84.4892 40.7048 84.4876 40.6917 84.483 40.6796C83.8713 39.0237 83.3283 37.3486 82.854 35.6541C82.8407 35.6022 82.8252 35.6015 82.8075 35.6519L81.1741 40.704Z" fill="black"/>
<path d="M169.951 44.3007L174.716 44.2984C174.741 44.2984 174.765 44.3085 174.783 44.3265C174.801 44.3444 174.811 44.3687 174.811 44.3941L174.8 45.5359C174.8 45.5612 174.79 45.5856 174.772 45.6035C174.754 45.6215 174.73 45.6316 174.705 45.6316H168.428C168.403 45.6316 168.379 45.6215 168.361 45.6035C168.343 45.5856 168.333 45.5612 168.333 45.5359V34.1919C168.333 34.1665 168.343 34.1421 168.361 34.1242C168.379 34.1063 168.403 34.0962 168.428 34.0962H174.45C174.475 34.0962 174.499 34.1059 174.516 34.1234C174.534 34.1409 174.544 34.1647 174.545 34.1897L174.556 35.2758C174.556 35.3008 174.546 35.3248 174.529 35.3427C174.512 35.3606 174.488 35.3709 174.463 35.3715L169.953 35.3759C169.941 35.3759 169.928 35.3784 169.917 35.3832C169.905 35.388 169.895 35.395 169.886 35.4039C169.877 35.4128 169.87 35.4234 169.865 35.435C169.86 35.4466 169.858 35.459 169.858 35.4716V38.8612C169.858 38.8738 169.86 38.8862 169.865 38.8978C169.87 38.9095 169.877 38.92 169.886 38.9289C169.895 38.9378 169.905 38.9448 169.917 38.9497C169.928 38.9545 169.941 38.9569 169.953 38.9569L174.197 38.9547C174.222 38.9547 174.247 38.9648 174.265 38.9827C174.282 39.0007 174.292 39.025 174.292 39.0504L174.284 40.1476C174.284 40.1602 174.281 40.1727 174.276 40.1843C174.272 40.1959 174.265 40.2064 174.256 40.2153C174.247 40.2242 174.236 40.2313 174.225 40.2361C174.213 40.2409 174.201 40.2434 174.188 40.2434L169.953 40.2367C169.941 40.2367 169.928 40.2391 169.917 40.244C169.905 40.2488 169.895 40.2558 169.886 40.2647C169.877 40.2736 169.87 40.2841 169.865 40.2957C169.86 40.3073 169.858 40.3198 169.858 40.3324L169.856 44.2049C169.856 44.2303 169.866 44.2547 169.883 44.2726C169.901 44.2906 169.926 44.3007 169.951 44.3007Z" fill="black"/>
<path d="M222.256 44.2984L227.081 44.3029C227.106 44.3029 227.13 44.3129 227.148 44.3309C227.166 44.3488 227.176 44.3732 227.176 44.3986L227.189 45.5359C227.189 45.5612 227.179 45.5856 227.161 45.6035C227.144 45.6215 227.119 45.6316 227.094 45.6316L220.769 45.6293C220.744 45.6293 220.719 45.6193 220.702 45.6013C220.684 45.5834 220.674 45.559 220.674 45.5337V34.1941C220.674 34.1687 220.684 34.1444 220.702 34.1264C220.719 34.1085 220.744 34.0984 220.769 34.0984L226.795 34.0962C226.82 34.0962 226.844 34.1059 226.861 34.1234C226.879 34.1409 226.89 34.1647 226.89 34.1897L226.906 35.2758C226.906 35.2885 226.904 35.3012 226.899 35.3131C226.894 35.3249 226.887 35.3357 226.878 35.3449C226.87 35.354 226.859 35.3612 226.847 35.3662C226.836 35.3711 226.823 35.3737 226.81 35.3737L222.258 35.3759C222.233 35.3759 222.209 35.386 222.191 35.4039C222.173 35.4219 222.163 35.4462 222.163 35.4716V38.859C222.163 38.8716 222.165 38.884 222.17 38.8956C222.175 38.9072 222.182 38.9178 222.191 38.9267C222.2 38.9356 222.21 38.9426 222.222 38.9474C222.233 38.9522 222.246 38.9547 222.258 38.9547H226.547C226.572 38.9547 226.596 38.9648 226.614 38.9827C226.632 39.0007 226.642 39.025 226.642 39.0504L226.629 40.1521C226.629 40.1775 226.619 40.2018 226.601 40.2198C226.583 40.2377 226.559 40.2478 226.533 40.2478L222.258 40.2344C222.233 40.2344 222.209 40.2445 222.191 40.2625C222.173 40.2804 222.163 40.3048 222.163 40.3302L222.161 44.2027C222.161 44.2281 222.171 44.2524 222.189 44.2704C222.206 44.2883 222.231 44.2984 222.256 44.2984Z" fill="black"/>
<path d="M278.909 41.9885L275.046 41.9863C275.024 41.9861 275.003 41.9928 274.985 42.0056C274.967 42.0184 274.954 42.0366 274.947 42.0575L273.803 45.5451C273.796 45.566 273.783 45.5841 273.765 45.5969C273.747 45.6097 273.725 45.6165 273.703 45.6163L272.342 45.6274C272.326 45.6276 272.309 45.6237 272.295 45.6162C272.28 45.6087 272.267 45.5978 272.257 45.5843C272.247 45.5707 272.241 45.5551 272.238 45.5386C272.236 45.5221 272.237 45.5052 272.243 45.4894L276.075 34.1655C276.082 34.1445 276.095 34.1264 276.113 34.1136C276.131 34.1008 276.152 34.094 276.174 34.0942L277.856 34.1009C277.878 34.1012 277.899 34.1082 277.917 34.1209C277.934 34.1337 277.947 34.1516 277.954 34.1721L281.797 45.4916C281.802 45.5075 281.804 45.5243 281.801 45.5408C281.799 45.5573 281.792 45.573 281.782 45.5865C281.773 45.6 281.76 45.611 281.745 45.6185C281.73 45.626 281.714 45.6298 281.697 45.6296L280.285 45.6096C280.264 45.6095 280.243 45.6028 280.226 45.5905C280.208 45.5782 280.195 45.5607 280.188 45.5406L279.009 42.0597C279.002 42.0388 278.988 42.0207 278.971 42.0079C278.953 41.9951 278.931 41.9883 278.909 41.9885ZM275.317 40.6531C275.311 40.6685 275.31 40.6848 275.312 40.7009C275.314 40.717 275.32 40.7323 275.33 40.7455C275.339 40.7588 275.351 40.7696 275.366 40.7772C275.38 40.7847 275.396 40.7887 275.412 40.7889L278.517 40.7911C278.536 40.7913 278.555 40.7867 278.573 40.7778C278.59 40.7688 278.605 40.7558 278.616 40.7398C278.627 40.7238 278.634 40.7053 278.637 40.6859C278.639 40.6666 278.637 40.6469 278.63 40.6287C278.023 38.9876 277.488 37.3422 277.025 35.6922C276.991 35.575 276.958 35.575 276.926 35.6922C276.42 37.4638 275.884 39.1175 275.317 40.6531Z" fill="black"/>
<path d="M303.498 34.0986H302.213C302.147 34.0986 302.093 34.1524 302.093 34.2188V45.5027C302.093 45.5691 302.147 45.6229 302.213 45.6229H303.498C303.564 45.6229 303.618 45.5691 303.618 45.5027V34.2188C303.618 34.1524 303.564 34.0986 303.498 34.0986Z" fill="black"/>
<path d="M311.517 45.6141L310.181 45.6252C310.163 45.625 310.145 45.6206 310.129 45.6122C310.113 45.6039 310.099 45.5918 310.088 45.5771C310.078 45.5624 310.071 45.5454 310.068 45.5274C310.065 45.5095 310.066 45.4911 310.072 45.4738L313.895 34.1721C313.903 34.1494 313.917 34.1297 313.937 34.1158C313.956 34.1018 313.98 34.0943 314.004 34.0942L315.672 34.1009C315.696 34.101 315.72 34.1085 315.739 34.1225C315.759 34.1364 315.773 34.1561 315.781 34.1788L319.617 45.4783C319.623 45.4959 319.625 45.5147 319.622 45.5331C319.62 45.5515 319.613 45.569 319.602 45.584C319.591 45.5991 319.576 45.6113 319.56 45.6196C319.543 45.628 319.525 45.6322 319.506 45.6318L318.119 45.6118C318.095 45.6116 318.071 45.6037 318.052 45.5894C318.032 45.575 318.018 45.5548 318.011 45.5317L316.834 42.0642C316.826 42.0415 316.811 42.0218 316.792 42.0078C316.772 41.9939 316.749 41.9863 316.725 41.9863H312.882C312.858 41.986 312.834 41.9937 312.814 42.0081C312.794 42.0225 312.779 42.0429 312.771 42.0664L311.626 45.5361C311.618 45.5588 311.603 45.5785 311.584 45.5925C311.564 45.6064 311.541 45.614 311.517 45.6141ZM316.461 40.6954C315.903 39.0996 315.32 37.5016 314.91 35.9103C314.827 35.5884 314.747 35.5891 314.668 35.9126C314.283 37.5128 313.687 39.1152 313.157 40.6554C313.124 40.7459 313.156 40.7911 313.252 40.7911L316.395 40.7889C316.406 40.7888 316.418 40.786 316.428 40.7807C316.438 40.7755 316.446 40.768 316.453 40.7588C316.459 40.7496 316.464 40.7391 316.465 40.728C316.467 40.717 316.465 40.7058 316.461 40.6954Z" fill="black"/>
</svg>
