<svg width="32" height="31" viewBox="0 0 32 31" fill="none" xmlns="http://www.w3.org/2000/svg">
<path d="M10.6148 15.5588C10.6148 12.7189 12.9084 10.4161 15.7385 10.4161C18.5687 10.4161 20.8636 12.7189 20.8636 15.5588C20.8636 18.3987 18.5687 20.7016 15.7385 20.7016C12.9084 20.7016 10.6148 18.3987 10.6148 15.5588ZM7.84429 15.5588C7.84429 19.9339 11.3785 23.4804 15.7385 23.4804C20.0986 23.4804 23.6328 19.9339 23.6328 15.5588C23.6328 11.1837 20.0986 7.63725 15.7385 7.63725C11.3785 7.63725 7.84429 11.1837 7.84429 15.5588ZM22.1005 7.32315C22.1003 7.68929 22.2084 8.04726 22.411 8.35177C22.6136 8.65629 22.9016 8.89368 23.2387 9.03393C23.5757 9.17418 23.9466 9.21099 24.3045 9.13971C24.6624 9.06842 24.9912 8.89224 25.2493 8.63344C25.5074 8.37464 25.6833 8.04486 25.7546 7.68578C25.8259 7.3267 25.7895 6.95447 25.65 6.61614C25.5105 6.27781 25.2742 5.9886 24.9709 5.78506C24.6676 5.58152 24.3109 5.4728 23.9461 5.47266H23.9453C23.4562 5.47289 22.9872 5.6679 22.6413 6.01486C22.2954 6.36183 22.1009 6.83237 22.1005 7.32315V7.32315ZM9.52753 28.116C8.02865 28.0475 7.21396 27.797 6.67256 27.5853C5.95478 27.3049 5.44265 26.971 4.9042 26.4314C4.36575 25.8918 4.03244 25.3784 3.75424 24.6581C3.54319 24.1151 3.29352 23.2974 3.22538 21.7933C3.15085 20.1672 3.13597 19.6787 3.13597 15.5589C3.13597 11.4392 3.15208 10.9521 3.22538 9.32459C3.29364 7.82052 3.54516 7.00437 3.75424 6.45974C4.03367 5.73948 4.36649 5.22558 4.9042 4.68526C5.44191 4.14495 5.95355 3.81049 6.67256 3.53133C7.21371 3.31954 8.02865 3.06901 9.52753 3.00064C11.1481 2.92585 11.6348 2.91091 15.7385 2.91091C19.8422 2.91091 20.3295 2.92708 21.9514 3.00064C23.4503 3.06913 24.2636 3.32152 24.8064 3.53133C25.5242 3.81049 26.0363 4.14569 26.5747 4.68526C27.1132 5.22484 27.4453 5.73948 27.7247 6.45974C27.9358 7.00277 28.1854 7.82052 28.2536 9.32459C28.3281 10.9521 28.343 11.4392 28.343 15.5589C28.343 19.6787 28.3281 20.1658 28.2536 21.7933C28.1853 23.2974 27.9344 24.1149 27.7247 24.6581C27.4453 25.3784 27.1125 25.8923 26.5747 26.4314C26.037 26.9705 25.5242 27.3049 24.8064 27.5853C24.2652 27.7971 23.4503 28.0476 21.9514 28.116C20.3309 28.1908 19.8441 28.2057 15.7385 28.2057C11.633 28.2057 11.1476 28.1908 9.52753 28.116V28.116ZM9.40024 0.225262C7.7636 0.300052 6.64525 0.560459 5.66858 0.941814C4.65711 1.33563 3.80085 1.86398 2.94521 2.72122C2.08956 3.57847 1.56439 4.43905 1.17193 5.45402C0.791892 6.43468 0.532382 7.55629 0.45785 9.19858C0.382088 10.8435 0.364746 11.3693 0.364746 15.5588C0.364746 19.7483 0.382088 20.2742 0.45785 21.9191C0.532382 23.5615 0.791892 24.683 1.17193 25.6636C1.56439 26.678 2.08969 27.5395 2.94521 28.3964C3.80073 29.2533 4.65711 29.7809 5.66858 30.1758C6.6471 30.5572 7.7636 30.8176 9.40024 30.8924C11.0403 30.9672 11.5635 30.9858 15.7385 30.9858C19.9136 30.9858 20.4376 30.9684 22.0769 30.8924C23.7136 30.8176 24.8312 30.5572 25.8085 30.1758C26.8194 29.7809 27.6762 29.2537 28.5319 28.3964C29.3875 27.5392 29.9116 26.678 30.3052 25.6636C30.6852 24.683 30.9459 23.5613 31.0192 21.9191C31.0938 20.2729 31.1111 19.7483 31.1111 15.5588C31.1111 11.3693 31.0938 10.8435 31.0192 9.19858C30.9447 7.55616 30.6852 6.43407 30.3052 5.45402C29.9116 4.43967 29.3862 3.57983 28.5319 2.72122C27.6776 1.86262 26.8194 1.33563 25.8097 0.941814C24.8312 0.560459 23.7135 0.298818 22.0781 0.225262C20.4389 0.150472 19.9148 0.131836 15.7398 0.131836C11.5647 0.131836 11.0403 0.149238 9.40024 0.225262Z" fill="black"/>
<path d="M10.6148 15.5588C10.6148 12.7189 12.9084 10.4161 15.7385 10.4161C18.5687 10.4161 20.8636 12.7189 20.8636 15.5588C20.8636 18.3987 18.5687 20.7016 15.7385 20.7016C12.9084 20.7016 10.6148 18.3987 10.6148 15.5588ZM7.84429 15.5588C7.84429 19.9339 11.3785 23.4804 15.7385 23.4804C20.0986 23.4804 23.6328 19.9339 23.6328 15.5588C23.6328 11.1837 20.0986 7.63725 15.7385 7.63725C11.3785 7.63725 7.84429 11.1837 7.84429 15.5588ZM22.1005 7.32315C22.1003 7.68929 22.2084 8.04726 22.411 8.35177C22.6136 8.65629 22.9016 8.89368 23.2387 9.03393C23.5757 9.17418 23.9466 9.21099 24.3045 9.13971C24.6624 9.06842 24.9912 8.89224 25.2493 8.63344C25.5074 8.37464 25.6833 8.04486 25.7546 7.68578C25.8259 7.3267 25.7895 6.95447 25.65 6.61614C25.5105 6.27781 25.2742 5.9886 24.9709 5.78506C24.6676 5.58152 24.3109 5.4728 23.9461 5.47266H23.9453C23.4562 5.47289 22.9872 5.6679 22.6413 6.01486C22.2954 6.36183 22.1009 6.83237 22.1005 7.32315V7.32315ZM9.52753 28.116C8.02865 28.0475 7.21396 27.797 6.67256 27.5853C5.95478 27.3049 5.44265 26.971 4.9042 26.4314C4.36575 25.8918 4.03244 25.3784 3.75424 24.6581C3.54319 24.1151 3.29352 23.2974 3.22538 21.7933C3.15085 20.1672 3.13597 19.6787 3.13597 15.5589C3.13597 11.4392 3.15208 10.9521 3.22538 9.32459C3.29364 7.82052 3.54516 7.00437 3.75424 6.45974C4.03367 5.73948 4.36649 5.22558 4.9042 4.68526C5.44191 4.14495 5.95355 3.81049 6.67256 3.53133C7.21371 3.31954 8.02865 3.06901 9.52753 3.00064C11.1481 2.92585 11.6348 2.91091 15.7385 2.91091C19.8422 2.91091 20.3295 2.92708 21.9514 3.00064C23.4503 3.06913 24.2636 3.32152 24.8064 3.53133C25.5242 3.81049 26.0363 4.14569 26.5747 4.68526C27.1132 5.22484 27.4453 5.73948 27.7247 6.45974C27.9358 7.00277 28.1854 7.82052 28.2536 9.32459C28.3281 10.9521 28.343 11.4392 28.343 15.5589C28.343 19.6787 28.3281 20.1658 28.2536 21.7933C28.1853 23.2974 27.9344 24.1149 27.7247 24.6581C27.4453 25.3784 27.1125 25.8923 26.5747 26.4314C26.037 26.9705 25.5242 27.3049 24.8064 27.5853C24.2652 27.7971 23.4503 28.0476 21.9514 28.116C20.3309 28.1908 19.8441 28.2057 15.7385 28.2057C11.633 28.2057 11.1476 28.1908 9.52753 28.116V28.116ZM9.40024 0.225262C7.7636 0.300052 6.64525 0.560459 5.66858 0.941814C4.65711 1.33563 3.80085 1.86398 2.94521 2.72122C2.08956 3.57847 1.56439 4.43905 1.17193 5.45402C0.791892 6.43468 0.532382 7.55629 0.45785 9.19858C0.382088 10.8435 0.364746 11.3693 0.364746 15.5588C0.364746 19.7483 0.382088 20.2742 0.45785 21.9191C0.532382 23.5615 0.791892 24.683 1.17193 25.6636C1.56439 26.678 2.08969 27.5395 2.94521 28.3964C3.80073 29.2533 4.65711 29.7809 5.66858 30.1758C6.6471 30.5572 7.7636 30.8176 9.40024 30.8924C11.0403 30.9672 11.5635 30.9858 15.7385 30.9858C19.9136 30.9858 20.4376 30.9684 22.0769 30.8924C23.7136 30.8176 24.8312 30.5572 25.8085 30.1758C26.8194 29.7809 27.6762 29.2537 28.5319 28.3964C29.3875 27.5392 29.9116 26.678 30.3052 25.6636C30.6852 24.683 30.9459 23.5613 31.0192 21.9191C31.0938 20.2729 31.1111 19.7483 31.1111 15.5588C31.1111 11.3693 31.0938 10.8435 31.0192 9.19858C30.9447 7.55616 30.6852 6.43407 30.3052 5.45402C29.9116 4.43967 29.3862 3.57983 28.5319 2.72122C27.6776 1.86262 26.8194 1.33563 25.8097 0.941814C24.8312 0.560459 23.7135 0.298818 22.0781 0.225262C20.4389 0.150472 19.9148 0.131836 15.7398 0.131836C11.5647 0.131836 11.0403 0.149238 9.40024 0.225262Z" fill="black"/>
</svg>
