<svg width="27" height="26" viewBox="0 0 27 26" fill="none" xmlns="http://www.w3.org/2000/svg">
<path d="M6.65974 25.2793V8.62499H1.1465V25.2793H6.66032H6.65974ZM3.90427 6.35152C5.82645 6.35152 7.02313 5.07267 7.02313 3.47446C6.98716 1.83984 5.82645 0.59668 3.94083 0.59668C2.05391 0.59668 0.821533 1.83984 0.821533 3.47432C0.821533 5.07252 2.01779 6.35137 3.86815 6.35137H3.90384L3.90427 6.35152ZM9.71139 25.2793H15.2242V15.9798C15.2242 15.4827 15.2602 14.9843 15.4058 14.6292C15.8042 13.6343 16.7113 12.6045 18.2347 12.6045C20.2291 12.6045 21.0274 14.1316 21.0274 16.3706V25.2793H26.5401V15.7302C26.5401 10.6149 23.8206 8.23454 20.1934 8.23454C17.2196 8.23454 15.9136 9.90341 15.1879 11.0401H15.2246V8.62557H9.71168C9.78364 10.1879 9.71125 25.2798 9.71125 25.2798L9.71139 25.2793Z" fill="black"/>
</svg>
