<svg width="16" height="16" viewBox="0 0 16 16" fill="none" xmlns="http://www.w3.org/2000/svg">
<path d="M15.1111 10.9167C14 10.9167 12.9333 10.75 11.9378 10.4417C11.6267 10.35 11.28 10.4167 11.0311 10.6417L9.07556 12.475C6.56 11.275 4.49778 9.35 3.21778 6.98333L5.17333 5.14167C5.42222 4.925 5.49333 4.6 5.39556 4.30833C5.06667 3.375 4.88889 2.375 4.88889 1.33333C4.88889 0.875 4.48889 0.5 4 0.5H0.888889C0.4 0.5 0 0.875 0 1.33333C0 9.15833 6.76444 15.5 15.1111 15.5C15.6 15.5 16 15.125 16 14.6667V11.75C16 11.2917 15.6 10.9167 15.1111 10.9167ZM14.2222 8H16C16 3.85833 12.4178 0.5 8 0.5V2.16667C11.44 2.16667 14.2222 4.775 14.2222 8ZM10.6667 8H12.4444C12.4444 5.7 10.4533 3.83333 8 3.83333V5.5C9.47556 5.5 10.6667 6.61667 10.6667 8Z" fill="#F5F5F5"/>
</svg>
