<svg width="20" height="20" viewBox="0 0 20 20" fill="none" xmlns="http://www.w3.org/2000/svg">
<path d="M17.05 2.91C15.18 1.03 12.69 0 10.04 0C4.58005 0 0.130049 4.45 0.130049 9.91C0.130049 11.66 0.590049 13.36 1.45005 14.86L0.0500488 20L5.30005 18.62C6.75005 19.41 8.38005 19.83 10.04 19.83C15.5 19.83 19.9501 15.38 19.9501 9.92C19.9501 7.27 18.92 4.78 17.05 2.91ZM10.04 18.15C8.56005 18.15 7.11005 17.75 5.84005 17L5.54005 16.82L2.42005 17.64L3.25005 14.6L3.05005 14.29C2.23005 12.98 1.79005 11.46 1.79005 9.91C1.79005 5.37 5.49005 1.67 10.03 1.67C12.23 1.67 14.3 2.53 15.85 4.09C17.41 5.65 18.26 7.72 18.26 9.92C18.2801 14.46 14.58 18.15 10.04 18.15ZM14.56 11.99C14.31 11.87 13.09 11.27 12.87 11.18C12.64 11.1 12.48 11.06 12.31 11.3C12.14 11.55 11.67 12.11 11.53 12.27C11.39 12.44 11.24 12.46 10.99 12.33C10.74 12.21 9.94005 11.94 9.00005 11.1C8.26005 10.44 7.77005 9.63 7.62005 9.38C7.48005 9.13 7.60005 9 7.73005 8.87C7.84005 8.76 7.98005 8.58 8.10005 8.44C8.22005 8.3 8.27005 8.19 8.35005 8.03C8.43005 7.86 8.39005 7.72 8.33005 7.6C8.27005 7.48 7.77005 6.26 7.57005 5.76C7.37005 5.28 7.16005 5.34 7.01005 5.33C6.86005 5.33 6.70005 5.33 6.53005 5.33C6.36005 5.33 6.10005 5.39 5.87005 5.64C5.65005 5.89 5.01005 6.49 5.01005 7.71C5.01005 8.93 5.90005 10.11 6.02005 10.27C6.14005 10.44 7.77005 12.94 10.25 14.01C10.84 14.27 11.3 14.42 11.66 14.53C12.25 14.72 12.79 14.69 13.22 14.63C13.7 14.56 14.69 14.03 14.89 13.45C15.1 12.87 15.1 12.38 15.03 12.27C14.96 12.16 14.81 12.11 14.56 11.99Z" fill="#E6E0E6"/>
</svg>
