<svg width="62" height="62" viewBox="0 0 62 62" fill="none" xmlns="http://www.w3.org/2000/svg">
<path d="M15.3647 45.4047L17.5695 37.181C15.7914 33.9774 15.2265 30.2391 15.9784 26.6521C16.7303 23.065 18.7486 19.8699 21.663 17.6529C24.5773 15.4359 28.1921 14.3458 31.8442 14.5826C35.4963 14.8195 38.9406 16.3674 41.5451 18.9422C44.1496 21.5171 45.7396 24.9463 46.0233 28.6005C46.307 32.2547 45.2655 35.8888 43.0897 38.836C40.9139 41.7832 37.75 43.8457 34.1783 44.6451C30.6067 45.4445 26.8671 44.9271 23.6456 43.188L15.3647 45.4047ZM24.0449 40.1106L24.557 40.4148C26.8904 41.8 29.6157 42.3732 32.3084 42.0451C35.001 41.717 37.5096 40.5061 39.4434 38.6011C41.3771 36.696 42.6272 34.2038 42.999 31.5129C43.3708 28.822 42.8434 26.0834 41.4988 23.7241C40.1543 21.3647 38.0683 19.5171 35.5658 18.469C33.0633 17.421 30.2849 17.2315 27.6636 17.93C25.0423 18.6285 22.7254 20.1758 21.0739 22.3308C19.4223 24.4858 18.529 27.1274 18.533 29.8439C18.5308 32.0964 19.1528 34.3053 20.3298 36.2247L20.6509 36.755L19.4184 41.345L24.0449 40.1106Z" fill="#020617"/>
<path fill-rule="evenodd" clip-rule="evenodd" d="M36.4744 31.9557C36.1742 31.7132 35.8227 31.5425 35.4466 31.4566C35.0706 31.3708 34.6799 31.372 34.3044 31.4602C33.7402 31.6949 33.3756 32.5816 33.0111 33.025C32.9342 33.1312 32.8212 33.2058 32.6934 33.2346C32.5655 33.2634 32.4316 33.2445 32.3167 33.1814C30.2511 32.3712 28.5197 30.8854 27.4037 28.9652C27.3085 28.8454 27.2635 28.6933 27.2781 28.5409C27.2926 28.3884 27.3657 28.2476 27.4818 28.1481C27.8885 27.7449 28.187 27.2456 28.3499 26.6963C28.386 26.0904 28.2474 25.4869 27.9506 24.9577C27.7211 24.2158 27.2843 23.5551 26.692 23.0539C26.3864 22.9162 26.0476 22.8701 25.7165 22.921C25.3854 22.9719 25.076 23.1177 24.8257 23.3407C24.3913 23.7162 24.0464 24.1844 23.8166 24.711C23.5867 25.2375 23.4778 25.809 23.4977 26.3834C23.499 26.7059 23.5398 27.027 23.6192 27.3396C23.8208 28.0906 24.1307 28.8081 24.5393 29.4694C24.8341 29.976 25.1557 30.4664 25.5028 30.9386C26.6308 32.4894 28.0487 33.8062 29.6779 34.8158C30.4954 35.3288 31.3692 35.7459 32.2819 36.0589C33.2301 36.4893 34.2769 36.6545 35.3113 36.537C35.9006 36.4477 36.459 36.2146 36.9373 35.8584C37.4156 35.5022 37.7992 35.0337 38.0542 34.4941C38.2041 34.1682 38.2495 33.8038 38.1844 33.4509C38.0282 32.7294 37.0647 32.3034 36.4744 31.9557Z" fill="#020617"/>
</svg>
