<svg width="36" height="25" viewBox="0 0 36 25" fill="none" xmlns="http://www.w3.org/2000/svg">
<path d="M34.8227 3.95892C34.4214 2.44561 33.2344 1.25178 31.7242 0.842631C28.9934 0.108399 18.0371 0.108398 18.0371 0.108398C18.0371 0.108398 7.08636 0.108399 4.35007 0.842631C2.84538 1.24618 1.65836 2.44001 1.25153 3.95892C0.521484 6.70528 0.521484 12.439 0.521484 12.439C0.521484 12.439 0.521484 18.1728 1.25153 20.9191C1.65278 22.4324 2.83981 23.6263 4.35007 24.0354C7.08636 24.7696 18.0371 24.7696 18.0371 24.7696C18.0371 24.7696 28.9934 24.7696 31.7242 24.0354C33.2288 23.6319 34.4159 22.438 34.8227 20.9191C35.5527 18.1728 35.5527 12.439 35.5527 12.439C35.5527 12.439 35.5527 6.70528 34.8227 3.95892Z" fill="white"/>
<path d="M14.5373 17.7244L23.6379 12.439L14.5373 7.15367V17.7244Z" fill="#232629"/>
</svg>
